<?xml version="1.0" encoding="UTF-8" standalone="no"?>
<svg
   xmlns:dc="http://purl.org/dc/elements/1.1/"
   xmlns:cc="http://creativecommons.org/ns#"
   xmlns:rdf="http://www.w3.org/1999/02/22-rdf-syntax-ns#"
   xmlns:svg="http://www.w3.org/2000/svg"
   xmlns="http://www.w3.org/2000/svg"
   xmlns:sodipodi="http://sodipodi.sourceforge.net/DTD/sodipodi-0.dtd"
   xmlns:inkscape="http://www.inkscape.org/namespaces/inkscape"
   version="1.1"
   id="svg2"
   xml:space="preserve"
   width="678.85803"
   height="730.12921"
   viewBox="0 0 678.85804 730.12922"
   sodipodi:docname="brilliant_ideas_work.svg"
   inkscape:version="1.0.1 (3bc2e813f5, 2020-09-07)"><metadata
     id="metadata8"><rdf:RDF><cc:Work
         rdf:about=""><dc:format>image/svg+xml</dc:format><dc:type
           rdf:resource="http://purl.org/dc/dcmitype/StillImage" /><dc:title></dc:title></cc:Work></rdf:RDF></metadata><defs
     id="defs6" /><sodipodi:namedview
     pagecolor="#ffffff"
     bordercolor="#666666"
     borderopacity="1"
     objecttolerance="10"
     gridtolerance="10"
     guidetolerance="10"
     inkscape:pageopacity="0"
     inkscape:pageshadow="2"
     inkscape:window-width="1920"
     inkscape:window-height="1166"
     id="namedview4"
     showgrid="false"
     inkscape:zoom="0.67084155"
     inkscape:cx="164.89719"
     inkscape:cy="362.25313"
     inkscape:window-x="-11"
     inkscape:window-y="-11"
     inkscape:window-maximized="1"
     inkscape:current-layer="g12" /><g
     id="g10"
     inkscape:groupmode="layer"
     inkscape:label="ink_ext_XXXXXX"
     transform="matrix(1.3333333,0,0,-1.3333333,-57.424606,778.68131)"><g
       id="g12"
       transform="scale(0.1)"><path
         d="m 5497.12,3283.84 c 0,-1411.79 -1105.07,-2556.27 -2468.23,-2556.27 -1363.17,0 -2468.23,1144.48 -2468.23,2556.27 0,1411.79 1105.06,2556.27 2468.23,2556.27 1363.16,0 2468.23,-1144.48 2468.23,-2556.27"
         style="fill:#eeefed;fill-opacity:1;fill-rule:nonzero;stroke:none"
         id="path80" /><path
         d="M 3107.49,4804.72 H 1381.3 c 0,0 -38.36,-4.93 -38.36,38.4 0,0 -7.38,34.98 34.77,34.98 42.07,0 8.36,1.1 8.36,1.1 h 667.12 972.42 69.98 c 0,0 34.69,-4.65 34.69,-34.77 0,0 8.44,-39.71 -22.79,-39.71"
         style="fill:#ffffff;fill-opacity:1;fill-rule:nonzero;stroke:none"
         id="path82" /><path
         d="m 2619.1,4833.66 c -7.8,20.03 -12.3,41.99 -12.3,64.94 0,99.63 80.83,180.38 180.58,180.38 99.64,0 180.35,-80.75 180.35,-180.38 0,-22.95 -4.42,-44.91 -12.23,-64.94 h -336.4"
         style="fill:#ffffff;fill-opacity:1;fill-rule:nonzero;stroke:none"
         id="path84" /><path
         d="m 1947.4,4859.65 c -6.14,16 -9.66,33.07 -9.66,51.17 0,78.43 63.56,142.06 142.11,142.06 78.42,0 141.98,-63.63 141.98,-142.06 0,-18.1 -3.51,-35.17 -9.74,-51.17 H 1947.4"
         style="fill:#ffffff;fill-opacity:1;fill-rule:nonzero;stroke:none"
         id="path86" /><path
         d="m 2132.36,4842.85 c -13.6,35.36 -21.41,73.57 -21.41,113.7 0,174.04 141.27,315.2 315.31,315.2 174.12,0 315.39,-141.16 315.39,-315.2 0,-40.13 -7.82,-78.34 -21.53,-113.7 h -587.76"
         style="fill:#ffffff;fill-opacity:1;fill-rule:nonzero;stroke:none"
         id="path88" /><path
         d="m 1872.65,4879.2 c 0,0 55.83,-1.66 68.53,60.52 l 51.96,-84.49 -50.5,-48.1 -57.97,24.05 -12.02,48.02"
         style="fill:#ffffff;fill-opacity:1;fill-rule:nonzero;stroke:none"
         id="path90" /><path
         d="m 3031.84,4879.2 c 0,0 -55.76,-1.66 -68.41,60.52 l -51.89,-84.49 50.58,-48.1 57.77,24.05 11.95,48.02"
         style="fill:#ffffff;fill-opacity:1;fill-rule:nonzero;stroke:none"
         id="path92" /><path
         d="m 1696.96,5002.92 h 407.76 c 8.64,0 15.81,-7.05 15.81,-15.69 0,-8.64 -7.17,-15.81 -15.81,-15.81 h -407.76 c -8.71,0 -15.69,7.17 -15.69,15.81 0,8.64 6.98,15.69 15.69,15.69"
         style="fill:#ffffff;fill-opacity:1;fill-rule:nonzero;stroke:none"
         id="path94" /><path
         d="m 1532.38,5002.92 h 80.16 c 8.64,0 15.74,-7.05 15.74,-15.69 0,-8.64 -7.1,-15.81 -15.74,-15.81 h -80.16 c -8.55,0 -15.69,7.17 -15.69,15.81 0,8.64 7.14,15.69 15.69,15.69"
         style="fill:#ffffff;fill-opacity:1;fill-rule:nonzero;stroke:none"
         id="path96" /><path
         d="M 4555.44,5147.49 H 3318.69 c 0,0 -27.48,-3.53 -27.48,27.52 0,0 -5.28,25.06 24.91,25.06 30.14,0 5.99,0.79 5.99,0.79 h 477.97 696.69 50.13 c 0,0 24.87,-3.34 24.87,-24.92 0,0 6.04,-28.45 -16.33,-28.45"
         style="fill:#ffffff;fill-opacity:1;fill-rule:nonzero;stroke:none"
         id="path98" /><path
         d="m 4205.53,5168.22 c -5.6,14.35 -8.82,30.09 -8.82,46.53 0,71.39 57.91,129.24 129.38,129.24 71.38,0 129.21,-57.85 129.21,-129.24 0,-16.44 -3.17,-32.18 -8.76,-46.53 h -241.01"
         style="fill:#ffffff;fill-opacity:1;fill-rule:nonzero;stroke:none"
         id="path100" /><path
         d="m 3724.29,5186.84 c -4.42,11.47 -6.93,23.7 -6.93,36.67 0,56.19 45.54,101.78 101.81,101.78 56.19,0 101.73,-45.59 101.73,-101.78 0,-12.97 -2.52,-25.2 -6.98,-36.67 h -189.63"
         style="fill:#ffffff;fill-opacity:1;fill-rule:nonzero;stroke:none"
         id="path102" /><path
         d="m 3856.8,5174.81 c -9.75,25.34 -15.34,52.71 -15.34,81.47 0,124.68 101.22,225.82 225.9,225.82 124.75,0 225.96,-101.14 225.96,-225.82 0,-28.76 -5.59,-56.13 -15.42,-81.47 h -421.1"
         style="fill:#ffffff;fill-opacity:1;fill-rule:nonzero;stroke:none"
         id="path104" /><path
         d="m 3670.72,5200.86 c 0,0 40,-1.2 49.1,43.35 l 37.23,-60.53 -36.18,-34.47 -41.53,17.24 -8.62,34.41"
         style="fill:#ffffff;fill-opacity:1;fill-rule:nonzero;stroke:none"
         id="path106" /><path
         d="m 4501.23,5200.86 c 0,0 -39.94,-1.2 -49.01,43.35 l -37.17,-60.53 36.24,-34.47 41.39,17.24 8.55,34.41"
         style="fill:#ffffff;fill-opacity:1;fill-rule:nonzero;stroke:none"
         id="path108" /><path
         d="m 3544.85,5289.5 h 292.14 c 6.19,0 11.33,-5.06 11.33,-11.25 0,-6.18 -5.14,-11.32 -11.33,-11.32 h -292.14 c -6.25,0 -11.25,5.14 -11.25,11.32 0,6.19 5,11.25 11.25,11.25"
         style="fill:#ffffff;fill-opacity:1;fill-rule:nonzero;stroke:none"
         id="path110" /><path
         d="m 3426.94,5289.5 h 57.44 c 6.18,0 11.27,-5.06 11.27,-11.25 0,-6.18 -5.09,-11.32 -11.27,-11.32 h -57.44 c -6.13,0 -11.24,5.14 -11.24,11.32 0,6.19 5.11,11.25 11.24,11.25"
         style="fill:#ffffff;fill-opacity:1;fill-rule:nonzero;stroke:none"
         id="path112" /><path
         d="m 2051.68,1115.9 c -2.44,3.31 2.51,-3.26 0,0 -36.89,9.44 -164.62,26.17 -307.38,26.17 -133.74,0 -257.92,-19.5 -302.14,-28.04 -3.43,-4.38 3.31,4.55 0,0 34.11,-9.76 156.39,-16.96 302.14,-16.96 154.73,0 283.05,8.15 307.38,18.83"
         style="fill:#423734;fill-opacity:1;fill-rule:nonzero;stroke:none"
         id="path114" /><path
         d="m 2091.78,1886.96 c -13.18,-9.67 -213.3,-508.39 -242.67,-663.87 -24.26,-128.51 -66.8,-436.098 -66.8,-436.098 l 36.18,1.649 c 0,0 80.97,476.559 107.03,603.389 37.28,181.42 191.87,506.37 191.87,506.37 l -25.61,-11.44"
         style="fill:#213d21;fill-opacity:1;fill-rule:nonzero;stroke:none"
         id="path116" /><path
         d="m 2091.78,1886.96 c 0,0 -101.48,38.55 -115.01,87.84 -13.53,49.3 136.92,31.05 182.74,71.61 45.85,40.62 86.51,44.65 181.44,51.13 94.93,6.49 179.8,17.07 232.84,-3.28 8.51,-3.25 -27.71,5.21 -61.28,-24.19 -94.11,-82.5 -214.28,-77.81 -282.49,-118.19 -64.43,-38.06 -109.38,-50.05 -138.24,-64.92"
         style="fill:#213d21;fill-opacity:1;fill-rule:nonzero;stroke:none"
         id="path118" /><path
         d="m 1424.71,1537.46 c 13.17,-9.69 213.32,-508.39 242.67,-663.878 24.3,-128.512 66.84,-436.09 66.84,-436.09 l -36.22,1.61 c 0,0 -80.98,476.578 -107.01,603.428 -37.33,181.42 -191.9,506.37 -191.9,506.37 l 25.62,-11.44"
         style="fill:#213d21;fill-opacity:1;fill-rule:nonzero;stroke:none"
         id="path120" /><path
         d="m 1424.71,1537.46 c 0,0 101.49,38.57 115.04,87.84 13.51,49.3 -136.93,31.04 -182.76,71.63 -45.87,40.6 -86.49,44.62 -181.43,51.1 -94.96,6.49 -179.806,17.07 -232.849,-3.27 -8.5,-3.25 27.715,5.18 61.269,-24.21 94.13,-82.47 214.29,-77.8 282.49,-118.18 64.41,-38.06 109.4,-50.04 138.24,-64.91"
         style="fill:#213d21;fill-opacity:1;fill-rule:nonzero;stroke:none"
         id="path122" /><path
         d="m 1640.34,866.809 c 10.93,118.312 70.21,495.911 54.69,831.921 -8.15,177.52 -120.09,770.51 -179.49,901.49 -34.88,76.79 -65.22,135.1 -84.72,165.89 -3.7,11.68 -55.95,41.81 -24.26,-13 31.75,-54.79 159.9,-249.34 245.18,-978.29 41.25,-352.1 -78.05,-1148.859 -86.12,-1165.55 -8.05,-16.707 37.36,-30.891 37.36,-30.891 25.1,193.601 27.53,182.332 37.36,288.43"
         style="fill:#213d21;fill-opacity:1;fill-rule:nonzero;stroke:none"
         id="path124" /><path
         d="m 1389.28,2766.11 c 0,0 -218.33,287.47 -436.698,411.18 -218.363,123.74 -444.004,179.12 -509.48,315.2 -65.493,136.08 145.562,34.84 225.613,12.69 80.051,-22.2 180.176,-31.2 298.398,-45.09 120.097,-14.07 466.687,-156.31 509.497,-328.34 36.83,-148.03 14.53,-296.5 -87.33,-365.64"
         style="fill:#6e8427;fill-opacity:1;fill-rule:nonzero;stroke:none"
         id="path126" /><path
         d="m 1486.51,3083.34 c 0,0 108.38,-202.13 56.5,-297.88 -51.87,-95.79 -124.21,-55.44 -124.21,-55.44 l -29.52,36.09 c 0,0 117.78,75.91 97.23,317.23"
         style="fill:#213d21;fill-opacity:1;fill-rule:nonzero;stroke:none"
         id="path128" /><path
         d="m 1548.43,3398.02 83.94,-138.5 c 0,0 182.95,58.76 182.95,138.5 0,79.76 22.7,54.54 52.1,71.34 29.34,16.79 25.17,71.37 0,113.32 -25.18,41.98 19.93,49.34 40.93,70.3 20.99,20.98 88.12,173.13 -177.35,257.07 -112.9,35.72 -107.03,8.41 -140.6,0 -33.56,-8.39 104.93,-272.8 -41.97,-512.03"
         style="fill:#213d21;fill-opacity:1;fill-rule:nonzero;stroke:none"
         id="path130" /><path
         d="m 1527.45,3398.02 c 0,0 117.5,25.18 100.72,96.5 -16.78,71.39 -20.98,130.14 25.18,176.3 46.15,46.18 -29.38,298.01 -125.9,394.53 -96.54,96.53 -339.96,217.8 -423.9,285.16 -83.91,67.39 -184.683,85.57 -293.792,137.36 -109.11,51.76 -327.395,223.83 -331.582,320.35 -4.188,96.52 -71.363,-153.9 92.332,-320.35 163.711,-166.49 579.212,-493.85 642.152,-598.78 62.96,-104.94 277.03,-369.38 314.79,-491.07"
         style="fill:#6e8427;fill-opacity:1;fill-rule:nonzero;stroke:none"
         id="path132" /><path
         d="m 1516.87,3425.84 c 0,0 152.96,-267.03 223.1,-1224.01 20.56,-280.48 -57.88,-1096.43 -57.88,-1096.43 l 45.88,0.27 c 0,0 66.74,827.39 41.56,1110.81 -25.18,283.36 -117.47,984.18 -137.16,1043.04 -35.59,106.47 -115.5,166.32 -115.5,166.32"
         style="fill:#213d21;fill-opacity:1;fill-rule:nonzero;stroke:none"
         id="path134" /><path
         d="m 2075.62,2307.89 -79.26,-94.42 c 0,0 -130.75,65.49 -121.46,125.46 9.27,59.99 -10.73,43.65 -30.88,59.7 -20.16,16.06 -10.64,56.6 13.17,85.23 23.82,28.66 -9.25,39.44 -22.59,57.65 -13.33,18.23 -46.15,140.49 163.29,172.71 89.07,13.71 81.46,-6.15 105.74,-16.36 24.26,-10.25 -110.66,-192.96 -28.01,-389.97"
         style="fill:#213d21;fill-opacity:1;fill-rule:nonzero;stroke:none"
         id="path136" /><path
         d="m 2091.39,2305.45 c 0,0 -85.42,32.6 -64.52,84.32 20.93,51.69 30.9,95.4 1.58,135.49 -29.36,40.09 56.76,220.71 140.56,282.07 83.85,61.38 281.05,124.25 352.01,165.18 70.96,40.89 148.84,42.83 236.95,69.08 88.06,26.24 272.25,130.27 286.63,202.37 14.39,72.15 35.74,-124.04 -106.72,-230.18 -142.47,-106.18 -493.06,-304.06 -552.61,-375.65 -59.54,-71.6 -251.32,-245.55 -293.88,-332.68"
         style="fill:#6e8427;fill-opacity:1;fill-rule:nonzero;stroke:none"
         id="path138" /><path
         d="m 2102.58,2325.12 c 0,0 -146.08,-183.01 -310.17,-894.57 -48.11,-208.59 -84.05,-831.351 -84.05,-831.351 l -34.46,5.531 c 0,0 46.07,630.02 98,840.24 51.9,210.22 202.82,726.53 224.46,768.5 39.16,75.93 106.22,111.65 106.22,111.65"
         style="fill:#213d21;fill-opacity:1;fill-rule:nonzero;stroke:none"
         id="path140" /><path
         d="m 2178.66,2983.02 c 0,0 -198.97,-393.96 -259.7,-748.05 -60.76,-354.13 -182.57,-1383.31 -179.68,-1458.798 2.84,-75.563 -49.89,6.117 -49.89,6.117 0,0 156.89,1354.741 231.98,1631.131 78.82,290.05 224.27,573.69 224.27,573.69 l 33.02,-4.09"
         style="fill:#213d21;fill-opacity:1;fill-rule:nonzero;stroke:none"
         id="path142" /><path
         d="m 2677.69,3760.7 c 0,0 -315.22,-113.66 -351.77,-165.24 -36.53,-51.61 -144.05,-189.2 -166.91,-252.62 -22.89,-63.42 -102.3,-58.2 -127.31,-73.99 -24.97,-15.76 -40.8,-158.91 -65.01,-210.82 -24.25,-51.87 -41.74,-96.57 -32.89,-136.96 8.86,-40.4 83.94,-92.48 112.77,-69.73 28.81,22.82 327.19,452.62 449.88,506.2 122.68,53.58 236.86,60.64 278.23,159.3 26.17,62.32 -55.25,206.75 -96.99,243.86"
         style="fill:#213d21;fill-opacity:1;fill-rule:nonzero;stroke:none"
         id="path144" /><path
         d="m 2116.39,2834.25 c 0,0 -59.55,-11.19 -79.4,31.04 -19.86,42.26 46.95,151.68 81.23,181.43 34.28,29.73 33.64,100.66 43.38,113.79 19.85,26.78 278.18,132.2 274.55,183.04 -3.62,50.85 166.07,67.8 254.31,88.12 39.83,9.14 -165.23,-70.71 -290.54,-200.68 -93.75,-97.17 -223.52,-196.82 -283.53,-396.74"
         style="fill:#6e8427;fill-opacity:1;fill-rule:nonzero;stroke:none"
         id="path146" /><path
         d="m 2675.63,3743.53 c 0,0 -245.91,-336.31 -364.65,-477.16 C 2192.24,3125.51 2072,2937.38 2072,2937.38 c 0,0 346.03,453.4 372.42,483.41 26.42,30.07 205.33,288.83 231.21,322.74"
         style="fill:#6e8427;fill-opacity:1;fill-rule:nonzero;stroke:none"
         id="path148" /><path
         d="m 1413.9,2235.09 c 79.4,-203.57 334.43,-1282.93 335.9,-1352.391 1.48,-69.5 74.57,-31.23 74.57,-31.23 0,0 -336.43,1332.891 -399.56,1419.871 -115.99,159.81 -43.12,46.39 -10.91,-36.25"
         style="fill:#213d21;fill-opacity:1;fill-rule:nonzero;stroke:none"
         id="path150" /><path
         d="m 1231.44,2156.74 c 0,0 125.31,-22.16 176.6,73.89 51.29,96.03 46.78,128.62 35.54,153.83 -11.23,25.19 39.91,74.66 39.91,74.66 0,0 12.29,94.94 -50.67,167 -63.02,72.03 -81.8,57.39 -119.83,94.14 -37.98,36.74 -90.27,178.69 -218.74,201.51 -23.56,4.21 -45.57,-8.24 -45.57,-8.24 0,0 -45.2,48.88 -158.18,73.56 -113.004,24.68 -124.207,49.88 -162.324,81.22 -38.153,31.34 -90.645,35.24 -108.957,77.94 -18.324,42.73 -27.43,-158.69 14.219,-219.34 41.679,-60.67 96.234,-122.76 108.734,-181.53 13.859,-65.09 46.012,-135.38 81.961,-164.95 9.531,-7.81 146.34,-80.42 189.397,-169.25 41.64,-85.91 79.76,-197.92 217.91,-254.44"
         style="fill:#6e8427;fill-opacity:1;fill-rule:nonzero;stroke:none"
         id="path152" /><path
         d="m 662.465,3045.8 c 0,0 720.325,-603.53 762.625,-781.36 l -17.05,-33.81 c 0,0 -34.26,103.83 -120.03,197.02 -207.61,225.63 -504.08,494.75 -625.545,618.15"
         style="fill:#213d21;fill-opacity:1;fill-rule:nonzero;stroke:none"
         id="path154" /><path
         d="m 2043.57,1112.95 c -39.48,-9.15 -157.23,-15.8 -296.81,-15.82 -145.48,0.02 -267.58,7.22 -301.64,17.01 -54.86,-75.69 24.98,-198.46 24.98,-303.499 0,-170.578 -25.91,-292.051 100.69,-365.071 -0.1,-0.039 -0.21,-0.078 -0.3,-0.14 20.55,-11.809 42.2,-21.559 64.65,-29.231 237.22,130.403 348.52,426.211 408.43,696.751"
         style="fill:#cf7c1a;fill-opacity:1;fill-rule:nonzero;stroke:none"
         id="path156" /><path
         d="m 2048.46,1114.14 c -1.4,-0.41 -3.17,-0.8 -4.89,-1.19 -59.91,-270.54 -171.21,-566.348 -408.43,-696.751 2.97,-1.019 5.93,-2.117 8.95,-3.078 h 102.67 102.71 c 25.72,8.039 50.34,18.93 73.62,32.309 -0.11,0.062 -0.22,0.101 -0.3,0.14 126.58,73.02 100.67,194.493 100.67,365.071 0,105.039 79.84,227.809 25,303.499"
         style="fill:#bc6f1d;fill-opacity:1;fill-rule:nonzero;stroke:none"
         id="path158" /><path
         d="M 616.086,1821.82 V 365.922 H 2119.92 V 1821.82 H 616.086"
         style="fill:#ae631d;fill-opacity:1;fill-rule:nonzero;stroke:none"
         id="path160" /><path
         d="m 4954.06,3619.52 h -188.91 v 1013.2 h 188.91 v -1013.2"
         style="fill:#ffffff;fill-opacity:1;fill-rule:nonzero;stroke:none"
         id="path162" /><path
         d="m 3612.42,1373.45 v 2395.92 l 737.81,737.8 751.82,-751.82 V 1105.4 l -1489.63,268.05"
         style="fill:#ffffff;fill-opacity:1;fill-rule:nonzero;stroke:none"
         id="path164" /><path
         d="m 4270.07,3439.59 h -213.46 v 445.7 h 213.46 v -445.7"
         style="fill:#eeefed;fill-opacity:1;fill-rule:nonzero;stroke:none"
         id="path166" /><path
         d="M 4584.04,3439.59 H 4370.6 v 445.7 h 213.44 v -445.7"
         style="fill:#eeefed;fill-opacity:1;fill-rule:nonzero;stroke:none"
         id="path168" /><path
         d="m 3075.48,3315.67 615.61,-334.25 c 69.7,-37.85 102.69,-119.87 78.6,-195.43 v 0 c -30.1,-94.37 -135.89,-141.26 -226.02,-100.14 l -430.08,196.15 -38.11,433.67"
         style="fill:#fcd13e;fill-opacity:1;fill-rule:nonzero;stroke:none"
         id="path170" /><path
         d="m 3688.72,3084.67 107.31,-126.16 c 58.97,-69.33 66.7,-168.73 19.14,-246.35 l -16.57,-27.05 c -39.48,-64.42 -130.04,-72.24 -179.99,-15.54 l -98.13,111.44 168.24,303.66"
         style="fill:#fcd13e;fill-opacity:1;fill-rule:nonzero;stroke:none"
         id="path172" /><path
         d="M 2347.89,3239.87 1906.7,2648.16 c -17.19,-23.06 -26.48,-51.04 -26.48,-79.81 v -106.24 c 0,-73.74 59.78,-133.52 133.52,-133.52 v 0 c 40.7,0 79.19,18.56 104.52,50.43 l 319.55,401.99 -89.92,458.86"
         style="fill:#fcd13e;fill-opacity:1;fill-rule:nonzero;stroke:none"
         id="path174" /><path
         d="m 2399.06,3288.53 150.24,100.99 c 36.22,24.34 58.39,60.58 60.93,99.58 l 5.26,177.01 142.19,110.62 142.19,-110.62 5.26,-177.01 c 2.54,-39 24.7,-75.24 60.93,-99.58 l 150.24,-100.99 c 66,-44.36 96.95,-116.18 80.15,-185.94 l -23.03,-95.55 h -393.53 -44.43 -393.52 l -23.03,95.55 c -16.81,69.76 14.15,141.58 80.15,185.94"
         style="fill:#e6615e;fill-opacity:1;fill-rule:nonzero;stroke:none"
         id="path176" /><path
         d="m 2904.42,3513.08 -4.55,153.03 -142.19,110.62 -142.19,-110.62 -0.4,-13.52 c 48.5,-89.28 123.12,-146.02 219.9,-152.29 24.51,-1.59 47.73,3 69.43,12.78"
         style="fill:#100f0d;fill-opacity:1;fill-rule:nonzero;stroke:none"
         id="path178" /><path
         d="m 2558.84,3880.83 c 26.32,-54.41 24.75,-109.58 -3.49,-123.25 -28.24,-13.65 -72.47,19.38 -98.78,73.79 -26.31,54.41 -24.75,109.59 3.49,123.25 28.25,13.66 72.47,-19.37 98.78,-73.79"
         style="fill:#e6615e;fill-opacity:1;fill-rule:nonzero;stroke:none"
         id="path180" /><path
         d="m 2917.08,3880.83 c -26.31,-54.41 -24.75,-109.58 3.49,-123.25 28.24,-13.65 72.47,19.38 98.79,73.79 26.3,54.41 24.74,109.59 -3.5,123.25 -28.24,13.66 -72.47,-19.37 -98.78,-73.79"
         style="fill:#fcddc0;fill-opacity:1;fill-rule:nonzero;stroke:none"
         id="path182" /><path
         d="m 2493.92,3999.83 c 0,-247.57 103.62,-435.45 284.53,-447.18 146.67,-9.5 247.72,199.61 247.72,447.18 0,247.56 -119.15,307.11 -266.13,307.11 -146.97,0 -266.12,-59.55 -266.12,-307.11"
         style="fill:#e6615e;fill-opacity:1;fill-rule:nonzero;stroke:none"
         id="path184" /><path
         d="m 2818.4,3764.13 c 3.29,0 6.49,1.26 8.95,3.62 3.51,3.37 4.83,8.37 3.44,13.03 l -32.2,108.1 c -0.98,3.31 -1.48,6.74 -1.48,10.19 0,1.32 -1.07,2.38 -2.38,2.38 -1.32,0 -2.38,-1.06 -2.38,-2.38 0,-3.91 0.57,-7.79 1.68,-11.54 l 32.2,-108.1 c 0.9,-3 0.08,-6.08 -2.17,-8.25 -2.25,-2.17 -5.36,-2.86 -8.32,-1.85 l -36.98,12.65 -18.9,-1.46 c -1.3,-0.1 -2.29,-1.24 -2.18,-2.55 0.09,-1.31 1.3,-2.42 2.55,-2.19 l 17.91,1.38 36.06,-12.32 c 1.38,-0.47 2.8,-0.71 4.2,-0.71"
         style="fill:#271414;fill-opacity:1;fill-rule:nonzero;stroke:none"
         id="path186" /><path
         d="m 2737.25,3944.85 c 0,0 -2.94,37.36 -30.08,43.65 l -126.82,-4.26 c 0,0 118.52,-23.09 137.71,-31.24 0,0 20.07,-14.08 19.19,-8.15"
         style="fill:#2d1616;fill-opacity:1;fill-rule:nonzero;stroke:none"
         id="path188" /><path
         d="m 2842.53,3944.85 c 0,0 2.93,37.36 30.07,43.65 l 126.83,-4.26 c 0,0 -118.52,-23.09 -137.71,-31.24 0,0 -20.07,-14.08 -19.19,-8.15"
         style="fill:#2d1616;fill-opacity:1;fill-rule:nonzero;stroke:none"
         id="path190" /><path
         d="m 2850.85,3881.72 9.14,14.8 c 9.78,15.84 26.57,26.01 45.14,27.33 v 0 c 12.87,0.92 25.69,-2.49 36.4,-9.68 l 24.66,-16.56 -19.1,-11.6 c -9.06,-5.5 -19.46,-8.41 -30.06,-8.41 h -36.2 c -3.11,0 -6.22,0.25 -9.3,0.75 l -20.68,3.37"
         style="fill:#ffffff;fill-opacity:1;fill-rule:nonzero;stroke:none"
         id="path192" /><path
         d="m 2862.93,3898.42 c 0.74,0 1.47,0.35 1.94,1.01 13.08,18.47 29.96,27.86 50.18,27.9 0.04,0 0.08,0 0.11,0 11.94,0 23.85,-3.75 34.46,-10.86 l 22.31,-14.95 c 1.09,-0.73 2.58,-0.44 3.3,0.65 0.73,1.09 0.44,2.57 -0.65,3.3 l -22.31,14.95 c -11.39,7.63 -24.22,11.66 -37.11,11.66 -0.04,0 -0.08,0 -0.12,0 -15.01,-0.03 -36.59,-5.24 -54.05,-29.91 -0.76,-1.07 -0.51,-2.55 0.56,-3.31 0.42,-0.29 0.9,-0.44 1.38,-0.44"
         style="fill:#2d1616;fill-opacity:1;fill-rule:nonzero;stroke:none"
         id="path194" /><path
         d="m 2971.12,3900.2 c -1.26,1.29 -1.65,2.08 -1.27,2.66 0.14,0.24 0.27,0.36 0.24,0.44 0,0.02 -0.03,0.06 -0.03,0.06 l -0.44,0.3 -0.96,0.65 c -2.51,1.78 -5.19,3.31 -7.92,4.77 -5.5,2.86 -11.23,5.37 -16.41,8.7 -11.1,7.24 -24.53,10.8 -37.64,9.98 -13.1,-0.82 -25.89,-5.7 -35.94,-14.03 -5.03,-4.14 -9.42,-9.05 -12.95,-14.52 l -9.85,-15.71 c -1,-1.58 -0.53,-3.68 1.05,-4.68 1.59,-1.01 3.69,-0.54 4.69,1.04 0.01,0.01 0.04,0.06 0.05,0.07 3.16,5.26 6.4,10.6 9.62,15.7 3.12,4.9 7.05,9.28 11.63,12.86 9.07,7.2 20.48,11.49 32.02,11.63 11.52,0.25 22.95,-3.28 32.23,-9.91 5.05,-3.54 9.55,-7.88 14.27,-11.89 2.38,-1.99 4.82,-3.88 7.41,-5.54 l 0.97,-0.63 0.52,-0.34 0.95,-0.53 c 1.33,-0.66 2.91,-1.12 4.58,-1.1 3.43,0.11 6.24,1.75 7.45,4.87 0.14,0.36 0.05,0.75 -0.21,1.01 l -4.06,4.14"
         style="fill:#2d1616;fill-opacity:1;fill-rule:nonzero;stroke:none"
         id="path196" /><path
         d="m 2914.61,3902.68 c 0,-1.84 1.49,-3.33 3.33,-3.33 1.85,0 3.34,1.49 3.34,3.33 0,1.85 -1.49,3.34 -3.34,3.34 -1.84,0 -3.33,-1.49 -3.33,-3.34"
         style="fill:#ffffff;fill-opacity:1;fill-rule:nonzero;stroke:none"
         id="path198" /><path
         d="m 2712.89,3881.72 -9.14,14.8 c -9.78,15.84 -26.58,26.01 -45.15,27.33 v 0 c -12.87,0.92 -25.68,-2.49 -36.4,-9.68 l -24.66,-16.56 19.11,-11.6 c 9.06,-5.5 19.45,-8.41 30.05,-8.41 h 36.2 c 3.12,0 6.23,0.25 9.31,0.75 l 20.68,3.37"
         style="fill:#ffffff;fill-opacity:1;fill-rule:nonzero;stroke:none"
         id="path200" /><path
         d="m 2700.8,3898.42 c 0.48,0 0.96,0.15 1.37,0.44 1.08,0.76 1.33,2.24 0.57,3.31 -17.47,24.67 -39.03,29.88 -54.05,29.91 -0.04,0 -0.08,0 -0.11,0 -12.89,0 -25.72,-4.03 -37.11,-11.66 l -22.31,-14.95 c -1.1,-0.73 -1.39,-2.21 -0.65,-3.3 0.72,-1.09 2.2,-1.39 3.29,-0.65 l 22.31,14.95 c 10.61,7.11 22.53,10.86 34.47,10.86 0.03,0 0.07,0 0.1,0 20.22,-0.04 37.1,-9.43 50.18,-27.9 0.46,-0.66 1.19,-1.01 1.94,-1.01"
         style="fill:#2d1616;fill-opacity:1;fill-rule:nonzero;stroke:none"
         id="path202" /><path
         d="m 2648.32,3904.19 c -0.16,-2.11 -0.05,-4.3 0.35,-6.53 1.77,-9.77 9.52,-17.8 19.25,-19.82 16.15,-3.34 30.36,8.9 30.36,24.46 0,1.55 -0.16,3.06 -0.43,4.53 -9.06,7.26 -20.2,11.74 -32.08,12.59 -0.04,0 -0.08,0.01 -0.12,0.01 -8.88,0.61 -16.66,-6.36 -17.33,-15.24"
         style="fill:#2d1616;fill-opacity:1;fill-rule:nonzero;stroke:none"
         id="path204" /><path
         d="m 2588.35,3895.05 c 1.21,-3.12 4.01,-4.76 7.45,-4.87 1.67,-0.02 3.24,0.44 4.57,1.1 l 0.96,0.53 0.52,0.34 0.96,0.63 c 2.6,1.66 5.03,3.55 7.41,5.54 4.73,4.01 9.22,8.35 14.27,11.89 9.28,6.63 20.72,10.16 32.24,9.91 11.54,-0.14 22.94,-4.43 32.02,-11.63 4.57,-3.58 8.51,-7.96 11.62,-12.86 3.22,-5.1 6.47,-10.44 9.63,-15.7 0.97,-1.6 3.05,-2.13 4.66,-1.16 1.61,0.97 2.13,3.05 1.17,4.66 -0.01,0.02 -0.04,0.06 -0.05,0.07 l -9.84,15.71 c -3.54,5.47 -7.92,10.38 -12.95,14.52 -10.06,8.33 -22.84,13.21 -35.94,14.03 -13.11,0.82 -26.54,-2.74 -37.65,-9.98 -5.18,-3.33 -10.9,-5.84 -16.41,-8.7 -2.73,-1.46 -5.41,-2.99 -7.92,-4.77 l -0.95,-0.65 -0.45,-0.3 c 0,0 -0.02,-0.04 -0.03,-0.06 -0.02,-0.08 0.11,-0.2 0.25,-0.44 0.38,-0.58 -0.02,-1.37 -1.28,-2.66 l -4.06,-4.14 c -0.27,-0.28 -0.33,-0.67 -0.2,-1.01"
         style="fill:#2d1616;fill-opacity:1;fill-rule:nonzero;stroke:none"
         id="path206" /><path
         d="m 2683.76,3902.22 c 0,-1.84 -1.49,-3.34 -3.34,-3.34 -1.84,0 -3.33,1.5 -3.33,3.34 0,1.84 1.49,3.33 3.33,3.33 1.85,0 3.34,-1.49 3.34,-3.33"
         style="fill:#ffffff;fill-opacity:1;fill-rule:nonzero;stroke:none"
         id="path208" /><path
         d="m 2896.03,3904.19 c -0.17,-2.11 -0.06,-4.3 0.34,-6.53 1.78,-9.77 9.52,-17.8 19.25,-19.82 16.15,-3.34 30.36,8.9 30.36,24.46 0,1.55 -0.16,3.06 -0.43,4.53 -9.06,7.26 -20.2,11.74 -32.08,12.59 -0.04,0 -0.08,0.01 -0.11,0.01 -8.89,0.61 -16.67,-6.36 -17.33,-15.24"
         style="fill:#2d1616;fill-opacity:1;fill-rule:nonzero;stroke:none"
         id="path210" /><path
         d="m 2931.46,3902.22 c 0,-1.84 -1.49,-3.34 -3.33,-3.34 -1.85,0 -3.34,1.5 -3.34,3.34 0,1.84 1.49,3.33 3.34,3.33 1.84,0 3.33,-1.49 3.33,-3.33"
         style="fill:#ffffff;fill-opacity:1;fill-rule:nonzero;stroke:none"
         id="path212" /><path
         d="m 3003.72,3807.79 72.75,89.78 c 59.51,73.44 45.96,181.64 -29.83,238.13 v 0 l -13.49,145.8 c -7.06,76.07 -61.32,139.42 -135.41,158.06 l -267.79,67.39 68.19,-75.77 -383.87,90.92 164.15,-154.06 -189.41,27.49 15.21,-26.84 c 32.32,-57.04 85.85,-99.02 148.94,-116.81 v 0 0 c -73.82,-69.4 -89.71,-180.7 -38.25,-267.98 l 103.84,-176.11 17.18,346.14 c 0,0 122.27,3.17 225.86,36.33 43.03,13.77 89.45,14.25 131.9,-1.21 53.58,-19.5 111.04,-63.53 122.65,-161.93 l -12.62,-219.33"
         style="fill:#271414;fill-opacity:1;fill-rule:nonzero;stroke:none"
         id="path214" /><path
         d="m 2883.17,3735.12 -206.57,10.64 c 0,0 103.56,-140.51 206.57,-10.64"
         style="fill:#ffffff;fill-opacity:1;fill-rule:nonzero;stroke:none"
         id="path216" /><path
         d="m 2792.3,3654.12 c 23.24,0 36.73,6.28 37.7,6.74 1.18,0.57 1.68,1.99 1.11,3.17 -0.57,1.18 -1.99,1.67 -3.17,1.12 -0.4,-0.2 -40.66,-18.76 -103.18,9.83 -1.18,0.54 -2.6,0.03 -3.15,-1.17 -0.54,-1.2 -0.02,-2.61 1.17,-3.15 28.09,-12.85 51.67,-16.54 69.52,-16.54"
         style="fill:#e15154;fill-opacity:1;fill-rule:nonzero;stroke:none"
         id="path218" /><path
         d="m 2327.14,3163.59 -141.86,-1253.2 h 899.31 l 116.36,1275.21 -873.81,-22.01"
         style="fill:#fcd13e;fill-opacity:1;fill-rule:nonzero;stroke:none"
         id="path220" /><path
         d="m 2341.94,3007.04 h 831.48 l 23.03,95.55 c 16.8,69.76 -14.15,141.58 -80.15,185.94 l -150.24,100.99 c -13.62,9.15 -25.25,19.98 -34.6,32.01 v 0 L 2783.82,3185.6 2577.6,3414.06 v 0 c -8.12,-9.06 -17.57,-17.33 -28.3,-24.54 l -150.24,-100.99 c -66,-44.36 -96.96,-116.18 -80.15,-185.94 l 23.03,-95.55"
         style="fill:#fcd13e;fill-opacity:1;fill-rule:nonzero;stroke:none"
         id="path222" /><path
         d="m 2400.38,3307.69 -52.49,-759.7 -95.5,-44.7 -67.11,-592.9 h 912.62 l 46.98,632.8 -106.77,56.27 81.65,694.41 -104.44,62.53 -93.18,-768.28 -445.47,-32.69 31.68,817.58 -107.97,-65.32"
         style="fill:#3259b1;fill-opacity:1;fill-rule:nonzero;stroke:none"
         id="path224" /><path
         d="m 2739.66,3081.72 c 22.47,25.89 44.77,54.56 66.18,85.49 112.89,163.16 158.23,327.38 101.27,366.79 -56.95,39.41 -194.64,-60.91 -307.53,-224.07 -21.41,-30.94 -40.37,-61.92 -56.68,-92.07 l 196.76,-136.14"
         style="fill:#271414;fill-opacity:1;fill-rule:nonzero;stroke:none"
         id="path226" /><path
         d="m 2527.06,2980.04 -4.36,3.02 c -6.61,4.57 -8.27,13.7 -3.7,20.3 l 192.4,278.08 c 4.57,6.6 13.7,8.26 20.3,3.69 l 4.37,-3.01 c 6.6,-4.57 8.26,-13.71 3.7,-20.31 l -192.41,-278.07 c -4.57,-6.6 -13.7,-8.26 -20.3,-3.7"
         style="fill:#100f0d;fill-opacity:1;fill-rule:nonzero;stroke:none"
         id="path228" /><path
         d="m 2288.68,2627.88 -11.51,7.96 c -17.4,12.04 -21.79,36.12 -9.75,53.52 l 253.74,366.73 c 12.04,17.39 36.12,21.78 53.52,9.74 l 11.51,-7.96 c 17.4,-12.04 21.78,-36.13 9.75,-53.52 L 2342.2,2637.62 c -12.04,-17.4 -36.13,-21.78 -53.52,-9.74"
         style="fill:#100f0d;fill-opacity:1;fill-rule:nonzero;stroke:none"
         id="path230" /><path
         d="m 2457.51,2484.64 c 0,-25.55 -20.72,-46.25 -46.26,-46.25 -25.55,0 -46.26,20.7 -46.26,46.25 0,25.54 20.71,46.26 46.26,46.26 25.54,0 46.26,-20.72 46.26,-46.26"
         style="fill:#271414;fill-opacity:1;fill-rule:nonzero;stroke:none"
         id="path232" /><path
         d="m 3014.66,2512.51 c 0,-25.55 -20.71,-46.26 -46.26,-46.26 -25.54,0 -46.26,20.71 -46.26,46.26 0,25.54 20.72,46.26 46.26,46.26 25.55,0 46.26,-20.72 46.26,-46.26"
         style="fill:#271414;fill-opacity:1;fill-rule:nonzero;stroke:none"
         id="path234" /><path
         d="m 2125.15,2781.63 135.74,66.55 c 18.44,9.04 34.23,22.69 45.86,39.62 l 54.89,79.91 c 20.25,29.48 49.8,51.32 83.92,62.04 l 41.53,16.19 c 33.88,10.64 70.16,11.01 104.25,1.08 l 30.23,-8.81 c 17.97,-5.24 28.26,-24.07 22.98,-42.03 l -19.65,-66.69 c -17.37,-59.01 -66.33,-103.31 -126.77,-114.73 v 0 c -44.95,-8.48 -35.25,-23.11 -59.5,-61.9 l -26.2,-41.93 c -9.61,-15.37 -26.46,-24.71 -44.6,-24.71 v 0 c -12.84,0 -25.25,-4.7 -34.87,-13.22 l -181.22,-160.49 -26.59,269.12"
         style="fill:#e6615e;fill-opacity:1;fill-rule:nonzero;stroke:none"
         id="path236" /><path
         d="m 3189.03,3098.74 -192.73,503.37 216.56,82.92 192.74,-503.37 -216.57,-82.92"
         style="fill:#ea8925;fill-opacity:1;fill-rule:nonzero;stroke:none"
         id="path238" /><path
         d="m 3688.72,3084.67 -103.49,110.2 c -14.06,14.97 -24.02,33.32 -28.91,53.26 l -23.14,94.15 c -8.53,34.72 -28.46,65.59 -56.6,87.67 l -74.7,58.61 c -27.94,21.92 -61.74,35.08 -97.15,37.82 l -31.39,2.44 c -18.66,1.44 -34.95,-12.54 -36.34,-31.21 l -5.17,-69.33 c -4.58,-61.34 25.57,-120.08 78.09,-152.1 v 0 c 39.06,-23.82 66.38,-62.87 75.35,-107.72 l 9.72,-48.48 c 3.56,-17.78 16.03,-32.47 32.99,-38.87 v 0 c 12.02,-4.54 21.96,-13.32 27.96,-24.68 l 112.87,-214.15 119.91,242.39"
         style="fill:#e6615e;fill-opacity:1;fill-rule:nonzero;stroke:none"
         id="path240" /><path
         d="M 5522.12,2670.88 H 3279.18 v -334.83 h 2242.94 v 334.83"
         style="fill:#ae631d;fill-opacity:1;fill-rule:nonzero;stroke:none"
         id="path242" /><path
         d="M 5522.12,3260.31 H 4565.6 v -692.24 h 956.52 v 692.24"
         style="fill:#ae631d;fill-opacity:1;fill-rule:nonzero;stroke:none"
         id="path244" /><path
         d="M 5522.12,3542.5 H 4850.6 v -692.24 h 671.52 v 692.24"
         style="fill:#ae631d;fill-opacity:1;fill-rule:nonzero;stroke:none"
         id="path246" /><path
         d="M 5522.12,2964.37 H 4260.78 v -692.24 h 1261.34 v 692.24"
         style="fill:#ae631d;fill-opacity:1;fill-rule:nonzero;stroke:none"
         id="path248" /><path
         d="M 5522.12,2386.21 H 1512.99 V 364.141 H 5522.12 V 2386.21"
         style="fill:#ae631d;fill-opacity:1;fill-rule:nonzero;stroke:none"
         id="path250" /><path
         d="m 3882.09,2386.21 h -539.34 v 232.04 h 539.34 v -232.04"
         style="fill:#cf7c1a;fill-opacity:1;fill-rule:nonzero;stroke:none"
         id="path252" /><path
         d="m 4493.51,2386.21 h -539.33 v 232.04 h 539.33 v -232.04"
         style="fill:#ea8925;fill-opacity:1;fill-rule:nonzero;stroke:none"
         id="path254" /><path
         d="M 5104.92,2386.21 H 4565.6 v 232.04 h 539.32 v -232.04"
         style="fill:#cf7c1a;fill-opacity:1;fill-rule:nonzero;stroke:none"
         id="path256" /><path
         d="m 5522.12,2618.25 h -345.11 v -232.04 h 345.11 v 232.04"
         style="fill:#ea8925;fill-opacity:1;fill-rule:nonzero;stroke:none"
         id="path258" /><path
         d="m 1512.99,2336.05 v -232.03 h 265.18 v 232.03 h -265.18"
         style="fill:#cf7c1a;fill-opacity:1;fill-rule:nonzero;stroke:none"
         id="path260" /><path
         d="m 2389.59,2104.02 h -539.33 v 232.03 h 539.33 v -232.03"
         style="fill:#ea8925;fill-opacity:1;fill-rule:nonzero;stroke:none"
         id="path262" /><path
         d="m 3001.01,2104.02 h -539.33 v 232.03 h 539.33 v -232.03"
         style="fill:#cf7c1a;fill-opacity:1;fill-rule:nonzero;stroke:none"
         id="path264" /><path
         d="M 3612.42,2104.02 H 3073.1 v 232.03 h 539.32 v -232.03"
         style="fill:#ea8925;fill-opacity:1;fill-rule:nonzero;stroke:none"
         id="path266" /><path
         d="m 4223.84,2104.02 h -539.33 v 232.03 h 539.33 v -232.03"
         style="fill:#cf7c1a;fill-opacity:1;fill-rule:nonzero;stroke:none"
         id="path268" /><path
         d="m 4835.25,2104.02 h -539.32 v 232.03 h 539.32 v -232.03"
         style="fill:#ea8925;fill-opacity:1;fill-rule:nonzero;stroke:none"
         id="path270" /><path
         d="m 5446.68,2104.02 h -539.34 v 232.03 h 539.34 v -232.03"
         style="fill:#cf7c1a;fill-opacity:1;fill-rule:nonzero;stroke:none"
         id="path272" /><path
         d="m 5522.12,2336.05 h -3.36 v -232.03 h 3.36 v 232.03"
         style="fill:#ea8925;fill-opacity:1;fill-rule:nonzero;stroke:none"
         id="path274" /><path
         d="M 5104.92,2965.3 H 4565.6 v 232.04 h 539.32 V 2965.3"
         style="fill:#cf7c1a;fill-opacity:1;fill-rule:nonzero;stroke:none"
         id="path276" /><path
         d="M 5522.12,3197.34 H 5177.01 V 2965.3 h 345.11 v 232.04"
         style="fill:#ea8925;fill-opacity:1;fill-rule:nonzero;stroke:none"
         id="path278" /><path
         d="m 4835.25,2683.1 h -539.32 v 232.04 h 539.32 V 2683.1"
         style="fill:#ea8925;fill-opacity:1;fill-rule:nonzero;stroke:none"
         id="path280" /><path
         d="m 5446.68,2683.1 h -539.34 v 232.04 h 539.34 V 2683.1"
         style="fill:#cf7c1a;fill-opacity:1;fill-rule:nonzero;stroke:none"
         id="path282" /><path
         d="m 5522.12,2915.14 h -3.36 V 2683.1 h 3.36 v 232.04"
         style="fill:#ea8925;fill-opacity:1;fill-rule:nonzero;stroke:none"
         id="path284" /><path
         d="m 5446.68,3255.19 h -539.34 v 232.03 h 539.34 v -232.03"
         style="fill:#cf7c1a;fill-opacity:1;fill-rule:nonzero;stroke:none"
         id="path286" /><path
         d="m 5522.12,3487.22 h -3.36 v -232.03 h 3.36 v 232.03"
         style="fill:#ea8925;fill-opacity:1;fill-rule:nonzero;stroke:none"
         id="path288" /><path
         d="m 1512.99,2053.86 v -232.04 h 534.84 v 232.04 h -534.84"
         style="fill:#ea8925;fill-opacity:1;fill-rule:nonzero;stroke:none"
         id="path290" /><path
         d="m 2659.25,1821.82 h -539.33 v 232.04 h 539.33 v -232.04"
         style="fill:#cf7c1a;fill-opacity:1;fill-rule:nonzero;stroke:none"
         id="path292" /><path
         d="m 3270.67,1821.82 h -539.33 v 232.04 h 539.33 v -232.04"
         style="fill:#ea8925;fill-opacity:1;fill-rule:nonzero;stroke:none"
         id="path294" /><path
         d="m 3882.09,1821.82 h -539.34 v 232.04 h 539.34 v -232.04"
         style="fill:#cf7c1a;fill-opacity:1;fill-rule:nonzero;stroke:none"
         id="path296" /><path
         d="m 4493.51,1821.82 h -539.33 v 232.04 h 539.33 v -232.04"
         style="fill:#ea8925;fill-opacity:1;fill-rule:nonzero;stroke:none"
         id="path298" /><path
         d="M 5104.92,1821.82 H 4565.6 v 232.04 h 539.32 v -232.04"
         style="fill:#cf7c1a;fill-opacity:1;fill-rule:nonzero;stroke:none"
         id="path300" /><path
         d="m 5522.12,2053.86 h -345.11 v -232.04 h 345.11 v 232.04"
         style="fill:#ea8925;fill-opacity:1;fill-rule:nonzero;stroke:none"
         id="path302" /><path
         d="m 1512.99,1771.67 v -232.03 h 265.18 v 232.03 h -265.18"
         style="fill:#cf7c1a;fill-opacity:1;fill-rule:nonzero;stroke:none"
         id="path304" /><path
         d="m 2389.59,1539.64 h -539.33 v 232.03 h 539.33 v -232.03"
         style="fill:#ea8925;fill-opacity:1;fill-rule:nonzero;stroke:none"
         id="path306" /><path
         d="m 3001.01,1539.64 h -539.33 v 232.03 h 539.33 v -232.03"
         style="fill:#cf7c1a;fill-opacity:1;fill-rule:nonzero;stroke:none"
         id="path308" /><path
         d="M 3612.42,1539.64 H 3073.1 v 232.03 h 539.32 v -232.03"
         style="fill:#ea8925;fill-opacity:1;fill-rule:nonzero;stroke:none"
         id="path310" /><path
         d="m 4223.84,1539.64 h -539.33 v 232.03 h 539.33 v -232.03"
         style="fill:#cf7c1a;fill-opacity:1;fill-rule:nonzero;stroke:none"
         id="path312" /><path
         d="m 4835.25,1539.64 h -539.32 v 232.03 h 539.32 v -232.03"
         style="fill:#ea8925;fill-opacity:1;fill-rule:nonzero;stroke:none"
         id="path314" /><path
         d="m 5446.68,1539.64 h -539.34 v 232.03 h 539.34 v -232.03"
         style="fill:#cf7c1a;fill-opacity:1;fill-rule:nonzero;stroke:none"
         id="path316" /><path
         d="m 5522.12,1771.67 h -3.36 v -232.03 h 3.36 v 232.03"
         style="fill:#ea8925;fill-opacity:1;fill-rule:nonzero;stroke:none"
         id="path318" /><path
         d="m 1512.99,1489.48 v -232.04 h 534.84 v 232.04 h -534.84"
         style="fill:#ea8925;fill-opacity:1;fill-rule:nonzero;stroke:none"
         id="path320" /><path
         d="m 2659.25,1257.44 h -539.33 v 232.04 h 539.33 v -232.04"
         style="fill:#cf7c1a;fill-opacity:1;fill-rule:nonzero;stroke:none"
         id="path322" /><path
         d="m 3270.67,1257.44 h -539.33 v 232.04 h 539.33 v -232.04"
         style="fill:#ea8925;fill-opacity:1;fill-rule:nonzero;stroke:none"
         id="path324" /><path
         d="m 3882.09,1257.44 h -539.34 v 232.04 h 539.34 v -232.04"
         style="fill:#cf7c1a;fill-opacity:1;fill-rule:nonzero;stroke:none"
         id="path326" /><path
         d="m 4493.51,1257.44 h -539.33 v 232.04 h 539.33 v -232.04"
         style="fill:#ea8925;fill-opacity:1;fill-rule:nonzero;stroke:none"
         id="path328" /><path
         d="M 5104.92,1257.44 H 4565.6 v 232.04 h 539.32 v -232.04"
         style="fill:#cf7c1a;fill-opacity:1;fill-rule:nonzero;stroke:none"
         id="path330" /><path
         d="m 5522.12,1489.48 h -345.11 v -232.04 h 345.11 v 232.04"
         style="fill:#ea8925;fill-opacity:1;fill-rule:nonzero;stroke:none"
         id="path332" /><path
         d="M 1512.99,1207.28 V 975.242 h 265.18 v 232.038 h -265.18"
         style="fill:#cf7c1a;fill-opacity:1;fill-rule:nonzero;stroke:none"
         id="path334" /><path
         d="m 2389.59,975.242 h -539.33 v 232.038 h 539.33 V 975.242"
         style="fill:#ea8925;fill-opacity:1;fill-rule:nonzero;stroke:none"
         id="path336" /><path
         d="m 3001.01,975.242 h -539.33 v 232.038 h 539.33 V 975.242"
         style="fill:#cf7c1a;fill-opacity:1;fill-rule:nonzero;stroke:none"
         id="path338" /><path
         d="M 3612.42,975.242 H 3073.1 v 232.038 h 539.32 V 975.242"
         style="fill:#ea8925;fill-opacity:1;fill-rule:nonzero;stroke:none"
         id="path340" /><path
         d="m 4223.84,975.242 h -539.33 v 232.038 h 539.33 V 975.242"
         style="fill:#cf7c1a;fill-opacity:1;fill-rule:nonzero;stroke:none"
         id="path342" /><path
         d="m 4835.25,975.242 h -539.32 v 232.038 h 539.32 V 975.242"
         style="fill:#ea8925;fill-opacity:1;fill-rule:nonzero;stroke:none"
         id="path344" /><path
         d="m 5446.68,975.242 h -539.34 v 232.038 h 539.34 V 975.242"
         style="fill:#cf7c1a;fill-opacity:1;fill-rule:nonzero;stroke:none"
         id="path346" /><path
         d="m 5522.12,1207.28 h -3.36 V 975.242 h 3.36 v 232.038"
         style="fill:#ea8925;fill-opacity:1;fill-rule:nonzero;stroke:none"
         id="path348" /><path
         d="M 1512.99,925.082 V 693.051 h 534.84 v 232.031 h -534.84"
         style="fill:#ea8925;fill-opacity:1;fill-rule:nonzero;stroke:none"
         id="path350" /><path
         d="M 2659.25,693.051 H 2119.92 V 925.09 h 539.33 V 693.051"
         style="fill:#cf7c1a;fill-opacity:1;fill-rule:nonzero;stroke:none"
         id="path352" /><path
         d="M 3270.67,693.051 H 2731.34 V 925.09 h 539.33 V 693.051"
         style="fill:#ea8925;fill-opacity:1;fill-rule:nonzero;stroke:none"
         id="path354" /><path
         d="M 3882.09,693.051 H 3342.75 V 925.09 h 539.34 V 693.051"
         style="fill:#cf7c1a;fill-opacity:1;fill-rule:nonzero;stroke:none"
         id="path356" /><path
         d="M 4493.51,693.051 H 3954.18 V 925.09 h 539.33 V 693.051"
         style="fill:#ea8925;fill-opacity:1;fill-rule:nonzero;stroke:none"
         id="path358" /><path
         d="M 5104.92,693.051 H 4565.6 V 925.09 h 539.32 V 693.051"
         style="fill:#cf7c1a;fill-opacity:1;fill-rule:nonzero;stroke:none"
         id="path360" /><path
         d="M 5522.12,925.082 H 5177.01 V 693.051 h 345.11 v 232.031"
         style="fill:#ea8925;fill-opacity:1;fill-rule:nonzero;stroke:none"
         id="path362" /><path
         d="M 1512.99,642.902 V 410.859 h 265.18 v 232.043 h -265.18"
         style="fill:#cf7c1a;fill-opacity:1;fill-rule:nonzero;stroke:none"
         id="path364" /><path
         d="m 2389.59,410.859 h -539.33 v 232.043 h 539.33 V 410.859"
         style="fill:#ea8925;fill-opacity:1;fill-rule:nonzero;stroke:none"
         id="path366" /><path
         d="m 3001.01,410.859 h -539.33 v 232.043 h 539.33 V 410.859"
         style="fill:#cf7c1a;fill-opacity:1;fill-rule:nonzero;stroke:none"
         id="path368" /><path
         d="M 3612.42,410.859 H 3073.1 v 232.043 h 539.32 V 410.859"
         style="fill:#ea8925;fill-opacity:1;fill-rule:nonzero;stroke:none"
         id="path370" /><path
         d="M 1164.7,1539.64 H 625.371 v 232.03 H 1164.7 v -232.03"
         style="fill:#ea8925;fill-opacity:1;fill-rule:nonzero;stroke:none"
         id="path372" /><path
         d="m 1776.12,1539.64 h -539.33 v 232.03 h 539.33 v -232.03"
         style="fill:#cf7c1a;fill-opacity:1;fill-rule:nonzero;stroke:none"
         id="path374" /><path
         d="m 616.086,1489.48 v -232.04 h 206.859 v 232.04 H 616.086"
         style="fill:#ea8925;fill-opacity:1;fill-rule:nonzero;stroke:none"
         id="path376" /><path
         d="M 1434.37,1257.44 H 895.035 v 232.04 h 539.335 v -232.04"
         style="fill:#cf7c1a;fill-opacity:1;fill-rule:nonzero;stroke:none"
         id="path378" /><path
         d="M 1164.7,975.242 H 625.371 V 1207.28 H 1164.7 V 975.242"
         style="fill:#ea8925;fill-opacity:1;fill-rule:nonzero;stroke:none"
         id="path380" /><path
         d="m 1776.12,975.242 h -539.33 v 232.038 h 539.33 V 975.242"
         style="fill:#cf7c1a;fill-opacity:1;fill-rule:nonzero;stroke:none"
         id="path382" /><path
         d="M 616.086,925.082 V 693.051 H 822.945 V 925.082 H 616.086"
         style="fill:#ea8925;fill-opacity:1;fill-rule:nonzero;stroke:none"
         id="path384" /><path
         d="M 1434.37,693.051 H 895.035 V 925.09 H 1434.37 V 693.051"
         style="fill:#cf7c1a;fill-opacity:1;fill-rule:nonzero;stroke:none"
         id="path386" /><path
         d="M 1164.7,410.859 H 625.371 V 642.902 H 1164.7 V 410.859"
         style="fill:#ea8925;fill-opacity:1;fill-rule:nonzero;stroke:none"
         id="path388" /><path
         d="m 1776.12,410.859 h -539.33 v 232.043 h 539.33 V 410.859"
         style="fill:#cf7c1a;fill-opacity:1;fill-rule:nonzero;stroke:none"
         id="path390" /><path
         d="m 4223.84,410.859 h -539.33 v 232.043 h 539.33 V 410.859"
         style="fill:#cf7c1a;fill-opacity:1;fill-rule:nonzero;stroke:none"
         id="path392" /><path
         d="m 4835.25,410.859 h -539.32 v 232.043 h 539.32 V 410.859"
         style="fill:#ea8925;fill-opacity:1;fill-rule:nonzero;stroke:none"
         id="path394" /><path
         d="m 5446.68,410.859 h -539.34 v 232.043 h 539.34 V 410.859"
         style="fill:#cf7c1a;fill-opacity:1;fill-rule:nonzero;stroke:none"
         id="path396" /><path
         d="m 5522.12,642.902 h -3.36 V 410.859 h 3.36 v 232.043"
         style="fill:#ea8925;fill-opacity:1;fill-rule:nonzero;stroke:none"
         id="path398" /><path
         d="m 3412.88,3256.75 c -0.99,0 -1.98,0.41 -2.68,1.22 l -56.09,64.09 -123.96,76.62 c -1.68,1.04 -2.2,3.24 -1.17,4.91 1.05,1.68 3.25,2.18 4.91,1.16 l 125.23,-77.59 56.45,-64.5 c 1.29,-1.48 1.14,-3.73 -0.34,-5.02 -0.68,-0.6 -1.52,-0.89 -2.35,-0.89"
         style="fill:#c64f76;fill-opacity:1;fill-rule:nonzero;stroke:none"
         id="path400" /><path
         d="m 3435.87,3333.73 c -0.94,0 -1.87,0.37 -2.57,1.09 l -40.98,42.6 -155.93,98.26 c -1.66,1.05 -2.16,3.25 -1.12,4.91 1.06,1.66 3.26,2.18 4.92,1.12 l 156.97,-99.04 41.28,-42.91 c 1.37,-1.42 1.33,-3.67 -0.1,-5.04 -0.69,-0.66 -1.57,-0.99 -2.47,-0.99"
         style="fill:#c64f76;fill-opacity:1;fill-rule:nonzero;stroke:none"
         id="path402" /><path
         d="m 3474.54,3374.55 c -0.96,0 -1.92,0.39 -2.63,1.16 l -39.42,43.12 -155.32,107.16 c -1.63,1.12 -2.03,3.33 -0.92,4.96 1.12,1.62 3.34,2.04 4.96,0.9 l 156.27,-107.91 39.7,-43.42 c 1.33,-1.45 1.22,-3.71 -0.23,-5.04 -0.69,-0.62 -1.55,-0.93 -2.41,-0.93"
         style="fill:#c64f76;fill-opacity:1;fill-rule:nonzero;stroke:none"
         id="path404" /><path
         d="m 2996.3,3602.11 -20.66,-73.19 169.24,-447.6 51.57,21.27 -200.15,499.52"
         style="fill:#ae631d;fill-opacity:1;fill-rule:nonzero;stroke:none"
         id="path406" /><path
         d="m 4113.17,2651.7 v -136.51 c 0,-13.8 11.29,-25.09 25.08,-25.09 13.8,0 25.09,11.29 25.09,25.09 v 136.51 h -50.17"
         style="fill:#ae631d;fill-opacity:1;fill-rule:nonzero;stroke:none"
         id="path408" /><path
         d="m 3610.11,2639.56 v -136.51 c 0,-13.8 11.28,-25.07 25.08,-25.07 13.79,0 25.08,11.27 25.08,25.07 v 136.51 h -50.16"
         style="fill:#ae631d;fill-opacity:1;fill-rule:nonzero;stroke:none"
         id="path410" /><path
         d="M 3117.39,3162.21 V 3025.7 c 0,-13.79 11.29,-25.08 25.08,-25.08 13.8,0 25.09,11.29 25.09,25.08 v 136.51 h -50.17"
         style="fill:#ae631d;fill-opacity:1;fill-rule:nonzero;stroke:none"
         id="path412" /><path
         d="m 2879.33,3392.93 v -136.5 c 0,-13.8 11.29,-25.09 25.09,-25.09 13.79,0 25.08,11.29 25.08,25.09 v 222.27 l -50.17,-85.77"
         style="fill:#ae631d;fill-opacity:1;fill-rule:nonzero;stroke:none"
         id="path414" /><path
         d="m 3994.06,2652.74 v -76.95 c 0,-13.8 11.29,-25.09 25.09,-25.09 13.8,0 25.09,11.29 25.09,25.09 v 76.95 h -50.18"
         style="fill:#ae631d;fill-opacity:1;fill-rule:nonzero;stroke:none"
         id="path416" /><path
         d="m 3683.91,2690.58 v -76.95 c 0,-13.8 11.29,-25.09 25.08,-25.09 13.8,0 25.09,11.29 25.09,25.09 v 76.95 h -50.17"
         style="fill:#ae631d;fill-opacity:1;fill-rule:nonzero;stroke:none"
         id="path418" /><path
         d="m 3013.03,3453.52 v -112.76 c 0,-13.8 11.28,-25.09 25.08,-25.09 13.79,0 25.08,11.29 25.08,25.09 v 76.95 l -50.16,35.81"
         style="fill:#ae631d;fill-opacity:1;fill-rule:nonzero;stroke:none"
         id="path420" /><path
         d="m 4260.78,2651.7 -44.73,73.95 c -6.76,11.19 -18.89,18.02 -31.96,18.02 h -49.61 c -13.2,0 -25.44,-6.97 -32.16,-18.35 v 0 c -9.38,-15.89 -28.98,-22.54 -46.11,-15.65 l -20.14,8.12 c -16.68,6.72 -34.64,9.69 -52.6,8.69 v 0 c -19.26,-1.06 -37.99,-6.66 -54.68,-16.33 l -46.7,-27.05 -28.54,16.37 c -32.61,18.69 -69.54,28.52 -107.11,28.52 v 0 c -14,0 -27.95,-1.36 -41.68,-4.07 l -268.89,-53.04 824.91,-19.18"
         style="fill:#ae631d;fill-opacity:1;fill-rule:nonzero;stroke:none"
         id="path422" /><path
         d="m 2923.9,3513.24 c -61.62,-10.51 -108.57,-64.03 -108.57,-128.64 0,-38.67 16.89,-73.3 43.59,-97.23 -10.48,-13 -16.78,-29.51 -16.78,-47.5 0,-4.81 0.5,-9.5 1.36,-14.06 72.43,121.72 104.19,235.45 80.4,287.43"
         style="fill:#ae631d;fill-opacity:1;fill-rule:nonzero;stroke:none"
         id="path424" /><path
         d="m 2420.97,2829.34 c -0.74,0 -1.5,0.24 -2.15,0.73 -1.56,1.19 -1.88,3.42 -0.68,4.99 l 20.05,26.48 c 6.77,8.94 16.49,15.33 27.36,18.02 l 153.02,37.77 c 1.92,0.45 3.84,-0.69 4.31,-2.6 0.48,-1.91 -0.69,-3.84 -2.61,-4.31 l -153.01,-37.78 c -9.3,-2.3 -17.6,-7.77 -23.39,-15.41 l -20.06,-26.47 c -0.69,-0.93 -1.76,-1.42 -2.84,-1.42"
         style="fill:#c64f76;fill-opacity:1;fill-rule:nonzero;stroke:none"
         id="path426" /><path
         d="m 2400.59,2890.33 c -0.87,0 -1.75,0.31 -2.43,0.96 -1.44,1.34 -1.51,3.59 -0.17,5.03 l 40.44,43.3 c 5.84,6.25 13.35,10.5 21.71,12.28 l 180.99,38.69 c 1.91,0.38 3.82,-0.82 4.23,-2.74 0.41,-1.93 -0.82,-3.83 -2.74,-4.24 l -180.99,-38.68 c -6.93,-1.48 -13.15,-5 -17.99,-10.18 l -40.45,-43.3 c -0.69,-0.74 -1.65,-1.12 -2.6,-1.12"
         style="fill:#c64f76;fill-opacity:1;fill-rule:nonzero;stroke:none"
         id="path428" /><path
         d="m 2385.54,2959.61 c -0.88,0 -1.76,0.31 -2.45,0.96 -1.42,1.36 -1.49,3.61 -0.14,5.05 l 26.12,27.6 c 6.58,6.96 15.02,11.72 24.39,13.76 l 175.42,38.19 c 1.95,0.43 3.82,-0.79 4.24,-2.72 0.42,-1.93 -0.8,-3.83 -2.72,-4.24 l -175.42,-38.19 c -7.97,-1.73 -15.14,-5.78 -20.73,-11.7 l -26.11,-27.6 c -0.71,-0.74 -1.66,-1.11 -2.6,-1.11"
         style="fill:#c64f76;fill-opacity:1;fill-rule:nonzero;stroke:none"
         id="path430" /><path
         d="m 4623.92,1518.91 c -79.82,0 -144.75,-196.39 -144.75,-437.8 0,-241.419 64.93,-437.809 144.75,-437.809 79.8,0 144.73,196.39 144.73,437.809 0,241.41 -64.93,437.8 -144.73,437.8 z m 0,-882.73 c -83.75,0 -151.88,199.59 -151.88,444.93 0,245.33 68.13,444.93 151.88,444.93 83.74,0 151.86,-199.6 151.86,-444.93 0,-245.34 -68.12,-444.93 -151.86,-444.93"
         style="fill:#100f0d;fill-opacity:1;fill-rule:nonzero;stroke:none"
         id="path432" /><path
         d="m 4821.54,1076.87 c 0,-142.159 -115.24,-257.401 -257.4,-257.401 -142.16,0 -257.4,115.242 -257.4,257.401 0,142.16 115.24,257.4 257.4,257.4 142.16,0 257.4,-115.24 257.4,-257.4"
         style="fill:#763c19;fill-opacity:1;fill-rule:nonzero;stroke:none"
         id="path434" /><path
         d="m 4898.99,1037.67 c 0,-124.51 -100.92,-225.451 -225.43,-225.451 -124.52,0 -225.45,100.941 -225.45,225.451 0,124.5 100.93,225.44 225.45,225.44 124.51,0 225.43,-100.94 225.43,-225.44"
         style="fill:#763c19;fill-opacity:1;fill-rule:nonzero;stroke:none"
         id="path436" /><path
         d="m 4939.73,1019.87 h -652.04 c -26.53,0 -48.23,21.71 -48.23,48.22 v 17.55 c 0,26.52 21.7,48.22 48.23,48.22 h 652.04 c 26.52,0 48.22,-21.7 48.22,-48.22 v -17.55 c 0,-26.51 -21.7,-48.22 -48.22,-48.22"
         style="fill:#3259b1;fill-opacity:1;fill-rule:nonzero;stroke:none"
         id="path438" /><path
         d="m 4613.71,1019.87 h -317.24 l 61.02,-655.729 h 512.43 l 61.04,655.729 h -317.25"
         style="fill:#3259b1;fill-opacity:1;fill-rule:nonzero;stroke:none"
         id="path440" /><path
         d="m 4302.52,954.789 628.44,65.081 h -634.49 z"
         style="fill:#100f0d;fill-opacity:1;fill-rule:nonzero;stroke:none"
         id="path442" /><path
         d="m 4493.75,877.32 h -8.95 c -13.54,0 -24.62,11.082 -24.62,24.621 v 8.961 c 0,13.539 11.08,24.61 24.62,24.61 h 8.95 c 13.55,0 24.62,-11.071 24.62,-24.61 v -8.961 c 0,-13.539 -11.07,-24.621 -24.62,-24.621"
         style="fill:#100f0d;fill-opacity:1;fill-rule:nonzero;stroke:none"
         id="path444" /><path
         d="m 4484.15,905.91 c -8.04,55.422 -12.11,114.37 -12.11,175.2 0,245.33 68.13,444.93 151.88,444.93 56.11,0 105.75,-85.17 132.77,-227.85 l -7,-1.32 c -25.94,136.96 -74.13,222.04 -125.77,222.04 -79.82,0 -144.75,-196.39 -144.75,-437.8 0,-60.5 4.04,-119.09 12.03,-174.18 l -7.05,-1.02"
         style="fill:#100f0d;fill-opacity:1;fill-rule:nonzero;stroke:none"
         id="path446" /><path
         d="m 3443.96,535.352 v -169.43 h 334.67 l 22.6,84.719 23.25,-84.719 h 149.56 v 169.43 h -530.08"
         style="fill:#ffffff;fill-opacity:1;fill-rule:nonzero;stroke:none"
         id="path448" /><path
         d="m 3700.53,937.73 c -5.27,0 -9.53,4.27 -9.53,9.532 0,5.269 4.26,9.527 9.53,9.527 5.26,0 9.53,-4.258 9.53,-9.527 0,-5.262 -4.27,-9.532 -9.53,-9.532 z M 3897.8,611.59 h -139.53 c -4.69,0 -8.29,3.89 -8.28,8.57 0,0.031 0,0.059 0,0.09 v 320.652 c 0,25.539 -20.9,46.43 -46.42,46.43 -25.54,0 -46.43,-20.891 -46.43,-46.43 V 620.25 c 0,-0.031 0,-0.059 0,-0.09 0.01,-4.68 -3.59,-8.57 -8.29,-8.57 H 3520.2 c -42.11,0 -76.24,-34.129 -76.24,-76.238 h 530.08 c 0,42.109 -34.14,76.238 -76.24,76.238"
         style="fill:#d21945;fill-opacity:1;fill-rule:nonzero;stroke:none"
         id="path450" /></g></g></svg>
