<?xml version="1.0" encoding="UTF-8" standalone="no"?>
<svg
   xmlns:dc="http://purl.org/dc/elements/1.1/"
   xmlns:cc="http://creativecommons.org/ns#"
   xmlns:rdf="http://www.w3.org/1999/02/22-rdf-syntax-ns#"
   xmlns:svg="http://www.w3.org/2000/svg"
   xmlns="http://www.w3.org/2000/svg"
   xmlns:sodipodi="http://sodipodi.sourceforge.net/DTD/sodipodi-0.dtd"
   xmlns:inkscape="http://www.inkscape.org/namespaces/inkscape"
   version="1.1"
   id="svg2"
   xml:space="preserve"
   width="1469.672"
   height="1111.5922"
   viewBox="0 0 1469.672 1111.5922"
   sodipodi:docname="brilliant_ideas_video.svg"
   inkscape:version="1.0.1 (3bc2e813f5, 2020-09-07)"><metadata
     id="metadata8"><rdf:RDF><cc:Work
         rdf:about=""><dc:format>image/svg+xml</dc:format><dc:type
           rdf:resource="http://purl.org/dc/dcmitype/StillImage" /><dc:title></dc:title></cc:Work></rdf:RDF></metadata><defs
     id="defs6"><clipPath
       clipPathUnits="userSpaceOnUse"
       id="clipPath66"><path
         d="m 9967.97,5676.56 c 0,0 -359,1235.25 -511.12,1545.57 -152.13,310.35 -736.29,292.09 -937.1,249.5 l -73.03,-547.66 -148.54,224.47 318.92,-1471.88 z"
         id="path64" /></clipPath><clipPath
       clipPathUnits="userSpaceOnUse"
       id="clipPath122"><path
         d="m 3116.57,5928.94 c 0,0 -296.17,-35.09 -465.1,-322.49 0,0 190.86,-43.89 245.71,-175.52 0,0 -195.26,-587.95 -103.11,-890.7 0,0 421.21,-157.94 684.47,-43.88 0,0 -17.51,451.94 48.29,583.57 65.82,131.64 176.6,273.14 87.75,434.39 -88.85,161.25 -207.85,329.07 -300.55,375.15 -92.69,46.06 -197.46,39.48 -197.46,39.48 z"
         id="path120" /></clipPath></defs><sodipodi:namedview
     pagecolor="#ffffff"
     bordercolor="#666666"
     borderopacity="1"
     objecttolerance="10"
     gridtolerance="10"
     guidetolerance="10"
     inkscape:pageopacity="0"
     inkscape:pageshadow="2"
     inkscape:window-width="1920"
     inkscape:window-height="1166"
     id="namedview4"
     showgrid="false"
     inkscape:zoom="0.62334437"
     inkscape:cx="515.72902"
     inkscape:cy="546.87636"
     inkscape:window-x="-11"
     inkscape:window-y="-11"
     inkscape:window-maximized="1"
     inkscape:current-layer="g12" /><g
     id="g10"
     inkscape:groupmode="layer"
     inkscape:label="ink_ext_XXXXXX"
     transform="matrix(1.3333333,0,0,-1.3333333,-45.381348,1141.5973)"><g
       id="g12"
       transform="scale(0.1)"><path
         d="m 7953.58,8077.32 c 0,0 -2080,200 -2240,-820 -160,-1020 -150,-1320 -670,-1750 -520,-430 -1150,-940 0,-1460 1150,-520 2830,180 3340,-380 510,-560 1200,-10 1760.02,1010 560,1020 -300.02,1150 -220.02,2090 80.02,940 -890,1150 -1970,1310"
         style="fill:#fbe170;fill-opacity:1;fill-rule:nonzero;stroke:none"
         id="path16" /><path
         d="m 7344.03,5577.22 c -23.7,92.62 -127.18,207.94 -205.09,160.93 156.5,266.03 -55.06,583.64 -286.42,386.73 -0.96,-0.44 -1.88,-0.92 -2.81,-1.35 41.64,52.39 76.69,135.9 59.16,217.18 -18.6,86.3 -154.27,212.69 -219.64,145.64 v -7.18 c -11.3,-2.23 -22.31,-5.19 -32.79,-8.71 -10.47,3.52 -21.48,6.48 -32.79,8.71 v 7.18 c -65.35,67.05 -201.04,-59.34 -219.64,-145.64 -17.53,-81.28 17.52,-164.79 59.17,-217.18 -0.96,0.43 -1.87,0.91 -2.82,1.35 -231.35,196.91 -442.91,-120.7 -286.41,-386.73 -77.93,47.01 -181.41,-68.31 -205.1,-160.93 -16.34,-63.85 -21.03,-135.96 -12.78,-204.55 h 339.84 721.06 339.84 c 8.24,68.59 3.56,140.7 -12.78,204.55"
         style="fill:#ffffff;fill-opacity:1;fill-rule:nonzero;stroke:none"
         id="path18" /><path
         d="m 6505.03,6545.26 332.04,4.48 -1.51,107.55 -332.01,-4.41 1.48,-107.62"
         style="fill:#74ceef;fill-opacity:1;fill-rule:nonzero;stroke:none"
         id="path20" /><path
         d="m 6653.85,7113.68 c -320.18,-4.31 -576.25,-262.69 -571.87,-577.22 1.01,-73.05 16.15,-142.67 42.57,-206.48 81.44,213.18 289.26,366.31 535.05,369.64 245.8,3.26 457.83,-144.19 545.04,-355.11 24.7,64.46 37.91,134.45 36.9,207.57 -4.4,314.45 -267.5,565.9 -587.69,561.6"
         style="fill:#f05d73;fill-opacity:1;fill-rule:nonzero;stroke:none"
         id="path22" /><path
         d="m 6293.06,7294.13 c 3.77,-268.43 65.01,-513.24 163.48,-702.4 64.21,20.98 132.77,32.91 204.1,33.8 71.31,1.01 140.17,-9.03 205,-28.27 93.1,191.7 147.52,438.06 143.77,706.45 -5.9,426.35 -156.69,793.56 -371.72,971.76 -210.03,-183.93 -350.54,-555.02 -344.63,-981.34"
         style="fill:#ffffff;fill-opacity:1;fill-rule:nonzero;stroke:none"
         id="path24" /><path
         d="m 6734.13,6792.76 c -22.01,-4.3 -44.63,-6.74 -67.74,-6.74 -2.61,0 -5.14,0.19 -7.74,0.26 -1.66,-0.03 -3.24,-0.26 -4.9,-0.26 -0.84,0 -1.68,0.13 -2.52,0.13 -0.85,0 -1.68,-0.13 -2.54,-0.13 -0.88,0 -1.71,0.13 -2.54,0.13 -0.86,0 -1.67,-0.13 -2.52,-0.13 -20.73,0 -40.97,2.2 -60.84,5.66 -0.43,-16.69 -0.87,-33.43 -0.63,-50.71 2.46,-177.3 35.84,-330.37 82.5,-405.14 44.51,75.99 73.69,229.91 71.21,407.2 -0.23,16.89 -0.95,33.35 -1.74,49.73"
         style="fill:#f05d73;fill-opacity:1;fill-rule:nonzero;stroke:none"
         id="path26" /><path
         d="m 6379.06,7859.59 c 85.99,6.73 174.18,11.05 264.24,12.28 90.02,1.2 178.3,-0.7 264.43,-5.22 -65.64,174.53 -159.2,316.94 -270.04,408.82 -108.28,-94.83 -197.86,-239.66 -258.63,-415.88"
         style="fill:#74ceef;fill-opacity:1;fill-rule:nonzero;stroke:none"
         id="path28" /><path
         d="m 6651.28,7766.48 h -2.53 c -49.57,-0.67 -95.97,-20.28 -130.61,-55.21 -34.67,-35.01 -53.41,-81.06 -52.72,-129.69 1.41,-99.27 84.77,-180.02 185.77,-180.02 h 2.61 c 102.43,1.37 184.63,84.38 183.27,184.95 -1.39,99.24 -84.74,179.97 -185.79,179.97"
         style="fill:#74ceef;fill-opacity:1;fill-rule:nonzero;stroke:none"
         id="path30" /><path
         d="m 6649.49,7711.88 c -71.86,-0.95 -129.46,-59.12 -128.49,-129.56 0.99,-70.56 60.21,-127.14 132.03,-126.16 71.83,0.95 129.42,59.08 128.43,129.65 -1,70.43 -60.18,127.07 -131.97,126.07"
         style="fill:#586e80;fill-opacity:1;fill-rule:nonzero;stroke:none"
         id="path32" /><path
         d="m 6651.34,7315.1 h -3.16 c -61.25,-0.83 -118.56,-25.03 -161.33,-68.2 -42.82,-43.23 -65.95,-100.1 -65.13,-160.15 1.77,-122.61 104.72,-222.38 229.47,-222.38 h 3.22 c 126.5,1.72 228.05,104.22 226.35,228.45 -1.71,122.58 -104.65,222.28 -229.42,222.28"
         style="fill:#74ceef;fill-opacity:1;fill-rule:nonzero;stroke:none"
         id="path34" /><path
         d="m 6649.19,7237.95 c -83.26,-1.09 -150.02,-68.51 -148.9,-150.17 1.16,-81.82 69.78,-147.36 153.06,-146.22 83.19,1.1 149.96,68.44 148.83,150.26 -1.15,81.66 -69.75,147.24 -152.99,146.13"
         style="fill:#586e80;fill-opacity:1;fill-rule:nonzero;stroke:none"
         id="path36" /><path
         d="m 3897.51,5508.99 c 0,0 -2080,200 -2240,-820 -160,-1020 -150,-1320 -669.994,-1750 -520,-430 -1150,-940 0,-1460 1149.994,-520.002 2829.994,180 3339.994,-380 510,-559.998 1200,-10 1760,1010 560,1020 -300,1150 -220,2090 80,940 -890,1150 -1970,1310"
         style="fill:#fbe170;fill-opacity:1;fill-rule:nonzero;stroke:none"
         id="path38" /><path
         d="m 10010.2,4897.11 c 0,-51.66 34.8,-93.54 77.8,-93.54 v 0 c 43,0 77.8,41.88 77.8,93.54 v 1414.22 c 0,51.67 -34.8,93.54 -77.8,93.54 v 0 c -43,0 -77.8,-41.87 -77.8,-93.54 V 4897.11"
         style="fill:#ca9c28;fill-opacity:1;fill-rule:nonzero;stroke:none"
         id="path40" /><path
         d="m 8751.79,4886.88 c 0,-46.01 37.32,-83.31 83.32,-83.31 h 1247.39 c 46,0 83.3,37.3 83.3,83.31 v 0 c 0,46.01 -37.3,83.32 -83.3,83.32 H 8835.11 c -46,0 -83.32,-37.31 -83.32,-83.32 v 0"
         style="fill:#ca9c28;fill-opacity:1;fill-rule:nonzero;stroke:none"
         id="path42" /><path
         d="m 9931.13,4857.64 c 0,-474.38 0,-948.75 0,-1423.1 0,-42.52 -65.88,-42.52 -65.88,0 0,474.35 0,948.72 0,1423.1 0,42.49 65.88,42.49 65.88,0 v 0"
         style="fill:#ca9c28;fill-opacity:1;fill-rule:nonzero;stroke:none"
         id="path44" /><path
         d="m 9160.29,4857.64 c 0,-474.38 0,-948.75 0,-1423.1 0,-42.52 -65.9,-42.52 -65.9,0 0,474.35 0,948.72 0,1423.1 0,42.49 65.9,42.49 65.9,0 v 0"
         style="fill:#ca9c28;fill-opacity:1;fill-rule:nonzero;stroke:none"
         id="path46" /><path
         d="m 8583.11,6873.35 c 0,0 -143.74,-255.04 -243.53,-241.95 -99.75,13.01 -290.76,603.62 -290.76,603.62 0,0 21.19,102.16 -3.36,109.35 -24.57,7.13 -56.71,-78.11 -52.29,-97.49 l -143.25,164.24 c 0,0 -23.8,-144.52 89.12,-215.74 0,0 69.14,-466.42 124.14,-628.2 55.03,-161.82 215.53,-422.52 374.21,-382.95 158.7,39.53 463.73,280.96 513.66,402.31 49.96,121.41 32.19,181.6 3.73,212.83 -28.48,31.25 -226.83,85.69 -233.05,86.32 -6.27,0.62 -138.62,-12.34 -138.62,-12.34"
         style="fill:#f25549;fill-opacity:1;fill-rule:nonzero;stroke:none"
         id="path48" /><path
         d="m 7962.49,7214.01 c -4.93,-3.2 -11.2,-1.56 -13.94,3.62 l -165.48,317.27 c -2.76,5.17 -0.86,12.04 4.08,15.16 l 164.78,103.57 c 4.97,3.12 11.31,1.42 14.11,-3.75 l 168.09,-312.25 c 2.8,-5.16 1.01,-12.01 -3.91,-15.24 l -167.73,-108.38"
         style="fill:#203041;fill-opacity:1;fill-rule:nonzero;stroke:none"
         id="path50" /><path
         d="m 8013.66,7983.92 c 237.98,93.27 282.28,-387.72 338.25,-446.37 55.94,-58.82 230.43,-74.72 230.43,-74.72 L 8533,7224.79 c 0,0 -3.18,-382.89 -29.98,-448.37 -45.54,14.01 -107.03,281.42 -156.68,281.42 -24.83,0 -13.92,58.86 -37.72,54.83 -9.27,43.17 -32.17,93.51 -63.82,112.22 -92.83,54.77 -135.09,-22.07 -211.07,-18.46 -76.04,3.54 -107.65,169.88 -107.65,169.88 l -54.54,-3.48 c 0,0 -36.98,52.4 -48.62,206.6 -11.48,154.18 -220.05,243.57 190.74,404.49"
         style="fill:#f25549;fill-opacity:1;fill-rule:nonzero;stroke:none"
         id="path52" /><path
         d="m 8225.61,5166.88 c 73.82,2.78 147.78,5.61 221.78,8.1 26.71,-29.45 80.87,-130.26 133.01,-475.23 39.29,-260.13 101.5,-1162.8 101.5,-1162.8 l -170.96,-34.64 c 0,0 -432.07,1049.88 -551.63,1652.58 88.69,4.44 177.44,8.64 266.3,11.99"
         style="fill:#4e70c0;fill-opacity:1;fill-rule:nonzero;stroke:none"
         id="path54" /><path
         d="m 8673.42,3568.46 28.33,-204.51 c 0,0 -591.86,-98.25 -525.08,-22.39 66.76,75.85 339.84,135.26 339.84,135.26 l -17.32,100.36 174.23,-8.72"
         style="fill:#4e70c0;fill-opacity:1;fill-rule:nonzero;stroke:none"
         id="path56" /><path
         d="m 9967.97,5676.56 c 0,0 -359,1235.25 -511.12,1545.57 -152.13,310.35 -736.29,292.09 -937.1,249.5 l -73.03,-547.66 -148.54,224.47 318.92,-1471.88 h 1350.87"
         style="fill:#fdfdfe;fill-opacity:1;fill-rule:nonzero;stroke:none"
         id="path58" /><g
         id="g60"><g
           id="g62"
           clip-path="url(#clipPath66)"><path
             d="m 7889.97,6628.86 c 0,-21.86 17.7,-39.56 39.54,-39.56 h 2482.69 c 21.8,0 39.5,17.7 39.5,39.56 v 0 c 0,21.83 -17.7,39.55 -39.5,39.55 H 7929.51 c -21.84,0 -39.54,-17.72 -39.54,-39.55 v 0"
             style="fill:#fcd9d5;fill-opacity:1;fill-rule:nonzero;stroke:none"
             id="path68" /><path
             d="m 7889.97,6391.54 c 0,-21.84 17.7,-39.56 39.54,-39.56 h 2482.69 c 21.8,0 39.5,17.72 39.5,39.56 v 0 c 0,21.83 -17.7,39.56 -39.5,39.56 H 7929.51 c -21.84,0 -39.54,-17.73 -39.54,-39.56 v 0"
             style="fill:#fcd9d5;fill-opacity:1;fill-rule:nonzero;stroke:none"
             id="path70" /><path
             d="m 7889.97,6154.23 c 0,-21.84 17.7,-39.56 39.54,-39.56 h 2482.69 c 21.8,0 39.5,17.72 39.5,39.56 v 0 c 0,21.85 -17.7,39.55 -39.5,39.55 H 7929.51 c -21.84,0 -39.54,-17.7 -39.54,-39.55 v 0"
             style="fill:#fcd9d5;fill-opacity:1;fill-rule:nonzero;stroke:none"
             id="path72" /><path
             d="m 7889.97,5916.9 c 0,-21.83 17.7,-39.55 39.54,-39.55 h 2482.69 c 21.8,0 39.5,17.72 39.5,39.55 v 0 c 0,21.86 -17.7,39.56 -39.5,39.56 H 7929.51 c -21.84,0 -39.54,-17.7 -39.54,-39.56 v 0"
             style="fill:#fcd9d5;fill-opacity:1;fill-rule:nonzero;stroke:none"
             id="path74" /></g></g><path
         d="m 9967.97,5676.56 c 0,0 161.23,-515.2 -109.52,-667.33 -270.78,-152.13 -2186.53,109.54 -2186.53,109.54 0,0 74.53,-19.94 50.18,-507.48 -13.12,-262.73 -131.31,-1159.82 -131.31,-1159.82 h -174.45 c 0,0 -356.99,1849.83 -146.03,2097.3 210.95,247.47 2697.66,127.79 2697.66,127.79"
         style="fill:#546cbd;fill-opacity:1;fill-rule:nonzero;stroke:none"
         id="path76" /><path
         d="m 7590.79,3451.47 38.54,-202.81 c 0,0 -586.19,-127.8 -523.31,-48.7 62.87,79.12 332.65,152.15 332.65,152.15 l -22.33,99.36 h 174.45"
         style="fill:#546cbd;fill-opacity:1;fill-rule:nonzero;stroke:none"
         id="path78" /><path
         d="m 7979.7,7657.65 c 0,0 48.15,-161.22 75.35,-151.82 27.15,9.21 -18.1,165.57 44.33,136.68 62.43,-28.86 67.67,-71.55 59.52,-102.28 -8.12,-30.78 96.97,-54.48 174.59,36.4 77.49,90.8 -34.78,227.67 -88.69,320.25 -53.89,92.55 -174.72,165.65 -260.44,122.23 -85.63,-43.28 -268.62,-143.39 -316.52,-106.08 -47.84,37.42 -11.91,-170.01 46.55,-214.24 58.35,-44.29 62.71,-152.6 265.31,-41.14"
         style="fill:#203041;fill-opacity:1;fill-rule:nonzero;stroke:none"
         id="path80" /><path
         d="m 8617.1,6899.62 -170.38,24.35 73.03,547.66 94.31,14.19 3.04,-586.2"
         style="fill:#fef9dd;fill-opacity:1;fill-rule:nonzero;stroke:none"
         id="path82" /><path
         d="m 8446.72,6923.97 -86.77,-120.17 -60.3,337.82 z"
         style="fill:#fef9dd;fill-opacity:1;fill-rule:nonzero;stroke:none"
         id="path84" /><path
         d="m 8435.91,5647.13 245.99,28.92 -187.18,73.85 -1263.44,-22.87 52.54,-79.9 h 1152.09"
         style="fill:#f9be33;fill-opacity:1;fill-rule:nonzero;stroke:none"
         id="path86" /><path
         d="m 8044.43,6227.25 c 18.96,0 42.74,-13.13 52.85,-29.21 l 328.36,-521.7 c 10.1,-16.07 2.85,-29.21 -16.13,-29.21 H 7318.28 c -18.97,0 -43,12.98 -53.42,28.85 l -343.44,522.44 c -10.43,15.85 -3.42,28.83 15.57,28.83 h 1107.44"
         style="fill:#f9be33;fill-opacity:1;fill-rule:nonzero;stroke:none"
         id="path88" /><path
         d="m 8653.63,6431.1 c 0,0 -112.58,-673.92 -1209.41,-416.84 0,0 -48.68,100.41 -106.47,76.07 -57.81,-24.33 -28.9,-152.12 51.73,-155.17 0,0 610.01,-362.05 1093.76,-310.32 483.78,51.72 687.6,690.65 687.6,690.65 l -76.05,246.43 -249.48,66.94 -191.68,-197.76"
         style="fill:#f25549;fill-opacity:1;fill-rule:nonzero;stroke:none"
         id="path90" /><path
         d="M 8915.27,7057.84 8653.63,6431.1 c 0,0 389.43,115.61 517.21,-115.61 l 276.88,538.5 -532.45,203.85"
         style="fill:#fdfdfe;fill-opacity:1;fill-rule:nonzero;stroke:none"
         id="path92" /><path
         d="m 4514.85,4010.04 c 42.6,-2.75 85.47,-4.2 128.54,-4.2 140.6,0 280.7,19.15 416.74,54.75 1.19,-8.12 2.38,-16.31 3.51,-24.65 98.05,-717.89 59.18,-1602.17 59.18,-1602.17 l -164.04,-93.98 c 0,0 -342.95,1489.59 -444.34,1508.34 -27.34,5.06 -56.19,1.07 -84.8,-8.36 16.37,28.77 32.01,57.93 46.7,87.46 13.57,27.31 26.4,54.94 38.51,82.81"
         style="fill:#5484cc;fill-opacity:1;fill-rule:nonzero;stroke:none"
         id="path94" /><path
         d="m 4955.24,2348.89 167.58,84.88 59.77,-118.01 c 0,0 385.64,-133.44 365.23,-169.55 -20.39,-36.09 -353.08,-19.84 -362.54,-18.18 -9.41,1.68 -21.72,81.09 -49.53,59.63 -27.81,-21.45 -25.96,-50.61 -25.96,-50.61 l -115.8,12.27 -38.75,199.57"
         style="fill:#5484cc;fill-opacity:1;fill-rule:nonzero;stroke:none"
         id="path96" /><path
         d="m 3453.66,5406.88 c 0,0 329.06,-385.02 365.28,-246.81 36.19,138.21 -23.05,526.53 -23.05,526.53 0,0 -110.24,172.77 1.66,202.38 111.87,29.62 106.95,-174.41 100.37,-176.06 -6.58,-1.64 365.29,-705.98 163.46,-900.37 -201.86,-194.37 -767.87,261.96 -767.87,261.96 l 160.15,332.37"
         style="fill:#f25549;fill-opacity:1;fill-rule:nonzero;stroke:none"
         id="path98" /><path
         d="m 3374.79,6713.03 c 0,0 443.17,11.97 430,-821.1 0,0 -702.05,-215.51 -1013.57,50.51 0,0 43.89,827.63 583.57,770.59"
         style="fill:#203041;fill-opacity:1;fill-rule:nonzero;stroke:none"
         id="path100" /><path
         d="m 2629.15,3697.71 c 0,-51.6 -34.82,-93.45 -77.75,-93.45 v 0 c -42.93,0 -77.76,41.85 -77.76,93.45 v 1412.76 c 0,51.61 34.83,93.46 77.76,93.46 v 0 c 42.93,0 77.75,-41.85 77.75,-93.46 V 3697.71"
         style="fill:#ca9c28;fill-opacity:1;fill-rule:nonzero;stroke:none"
         id="path102" /><path
         d="m 3886.22,3687.52 c 0,-45.98 -37.26,-83.26 -83.22,-83.26 H 2556.9 c -45.97,0 -83.26,37.28 -83.26,83.26 v 0 c 0,45.96 37.29,83.22 83.26,83.22 H 3803 c 45.96,0 83.22,-37.26 83.22,-83.22 v 0"
         style="fill:#ca9c28;fill-opacity:1;fill-rule:nonzero;stroke:none"
         id="path104" /><path
         d="m 2708.12,3658.28 c 0,-473.87 0,-947.75 0,-1421.62 0,-42.44 65.82,-42.44 65.82,0 0,473.87 0,947.75 0,1421.62 0,42.44 -65.82,42.44 -65.82,0 v 0"
         style="fill:#ca9c28;fill-opacity:1;fill-rule:nonzero;stroke:none"
         id="path106" /><path
         d="m 3478.17,3658.28 c 0,-473.87 0,-947.75 0,-1421.62 0,-42.44 65.8,-42.44 65.8,0 0,473.87 0,947.75 0,1421.62 0,42.44 -65.8,42.44 -65.8,0 v 0"
         style="fill:#ca9c28;fill-opacity:1;fill-rule:nonzero;stroke:none"
         id="path108" /><path
         d="m 4133.29,3758.52 c -460.7,-177.7 -1415.04,-154.67 -1494.02,200.74 -78.99,355.41 128.34,549.56 128.34,549.56 0,0 1860.39,100.91 2178.51,-98.4 0,0 350.51,-35.54 113.58,-720.28 -236.94,-684.75 -671.17,-1456.02 -671.17,-1456.02 l -188.83,-9.75 c 0,0 367.17,1483.83 285.17,1546.37 -109.68,83.68 -351.58,-12.22 -351.58,-12.22"
         style="fill:#8fa9dd;fill-opacity:1;fill-rule:nonzero;stroke:none"
         id="path110" /><path
         d="m 3491.34,6514.7 c 0,0 -23.05,-470.57 -200.74,-444.26 -177.72,26.33 -197.47,95.44 -197.47,95.44 0,0 -85.54,342.24 105.32,424.52 190.86,82.27 292.89,-75.7 292.89,-75.7"
         style="fill:#f25549;fill-opacity:1;fill-rule:nonzero;stroke:none"
         id="path112" /><path
         d="m 3116.57,5928.94 c 0,0 -296.17,-35.09 -465.1,-322.49 0,0 190.86,-43.89 245.71,-175.52 0,0 -195.26,-587.95 -103.11,-890.7 0,0 421.21,-157.94 684.47,-43.88 0,0 -17.51,451.94 48.29,583.57 65.82,131.64 176.6,273.14 87.75,434.39 -88.85,161.25 -207.85,329.07 -300.55,375.15 -92.69,46.06 -197.46,39.48 -197.46,39.48"
         style="fill:#ffffff;fill-opacity:1;fill-rule:nonzero;stroke:none"
         id="path114" /><g
         id="g116"><g
           id="g118"
           clip-path="url(#clipPath122)"><path
             d="m 2341.36,5808.45 c 0,-16.87 13.69,-30.56 30.56,-30.56 h 1661.96 c 16.89,0 30.58,13.69 30.58,30.56 v 0 c 0,16.9 -13.69,30.59 -30.58,30.59 H 2371.92 c -16.87,0 -30.56,-13.69 -30.56,-30.59 v 0"
             style="fill:#50c182;fill-opacity:1;fill-rule:nonzero;stroke:none"
             id="path124" /><path
             d="m 2341.36,5619.6 c 0,-16.87 13.69,-30.56 30.56,-30.56 h 1661.96 c 16.89,0 30.58,13.69 30.58,30.56 v 0 c 0,16.9 -13.69,30.59 -30.58,30.59 H 2371.92 c -16.87,0 -30.56,-13.69 -30.56,-30.59 v 0"
             style="fill:#50c182;fill-opacity:1;fill-rule:nonzero;stroke:none"
             id="path126" /><path
             d="m 2341.36,5430.76 c 0,-16.88 13.69,-30.58 30.56,-30.58 h 1661.96 c 16.89,0 30.58,13.7 30.58,30.58 v 0 c 0,16.89 -13.69,30.58 -30.58,30.58 H 2371.92 c -16.87,0 -30.56,-13.69 -30.56,-30.58 v 0"
             style="fill:#50c182;fill-opacity:1;fill-rule:nonzero;stroke:none"
             id="path128" /><path
             d="m 2341.36,5241.91 c 0,-16.88 13.69,-30.58 30.56,-30.58 h 1661.96 c 16.89,0 30.58,13.7 30.58,30.58 v 0 c 0,16.89 -13.69,30.59 -30.58,30.59 H 2371.92 c -16.87,0 -30.56,-13.7 -30.56,-30.59 v 0"
             style="fill:#50c182;fill-opacity:1;fill-rule:nonzero;stroke:none"
             id="path130" /><path
             d="m 2341.36,5053.07 c 0,-16.88 13.69,-30.58 30.56,-30.58 h 1661.96 c 16.89,0 30.58,13.7 30.58,30.58 v 0 c 0,16.89 -13.69,30.58 -30.58,30.58 H 2371.92 c -16.87,0 -30.56,-13.69 -30.56,-30.58 v 0"
             style="fill:#50c182;fill-opacity:1;fill-rule:nonzero;stroke:none"
             id="path132" /><path
             d="m 2341.36,4864.22 c 0,-16.88 13.69,-30.58 30.56,-30.58 h 1661.96 c 16.89,0 30.58,13.7 30.58,30.58 v 0 c 0,16.89 -13.69,30.58 -30.58,30.58 H 2371.92 c -16.87,0 -30.56,-13.69 -30.56,-30.58 v 0"
             style="fill:#50c182;fill-opacity:1;fill-rule:nonzero;stroke:none"
             id="path134" /><path
             d="m 2341.36,4675.38 c 0,-16.89 13.69,-30.59 30.56,-30.59 h 1661.96 c 16.89,0 30.58,13.7 30.58,30.59 v 0 c 0,16.88 -13.69,30.57 -30.58,30.57 H 2371.92 c -16.87,0 -30.56,-13.69 -30.56,-30.57 v 0"
             style="fill:#50c182;fill-opacity:1;fill-rule:nonzero;stroke:none"
             id="path136" /></g></g><path
         d="m 3309.25,6115.42 c 0,0 -19.75,-146.99 0,-212.8 0,0 -111.9,-41.67 -197.46,39.48 0,0 28.53,188.68 -10.96,291.78 -39.49,103.13 208.42,-118.46 208.42,-118.46"
         style="fill:#f25549;fill-opacity:1;fill-rule:nonzero;stroke:none"
         id="path138" /><path
         d="m 4200.67,2234.12 h 187.86 v -132.28 c 0,0 283.71,-293.3 249.21,-316.31 -34.51,-23.01 -323.96,141.83 -331.64,147.59 -7.65,5.77 17.25,82.17 -17.24,75.59 -34.53,-6.54 -46.04,-33.4 -46.04,-33.4 l -97.75,63.26 55.6,195.55"
         style="fill:#8fa9dd;fill-opacity:1;fill-rule:nonzero;stroke:none"
         id="path140" /><path
         d="m 3583.47,4478.79 -266.1,31.27 202.46,79.88 1366.57,-24.74 -56.8,-86.41 H 3583.47"
         style="fill:#50c182;fill-opacity:1;fill-rule:nonzero;stroke:none"
         id="path142" /><path
         d="m 2651.98,5608.92 c 0,0 -319.27,-690.48 14.2,-1006.4 333.44,-315.91 847.99,-121.26 847.99,-121.26 0,0 146.99,68.03 184.3,24.15 0,0 14.24,-24.15 32.89,-15.37 18.65,8.78 24.12,76.78 -76.78,98.73 -100.92,21.94 -116.02,-23.04 -116.02,-23.04 0,0 -513.67,-16.74 -649.7,226.78 -136.04,243.53 8.83,640.88 8.83,640.88 0,0 -32.91,160.18 -245.71,175.53"
         style="fill:#f25549;fill-opacity:1;fill-rule:nonzero;stroke:none"
         id="path144" /><path
         d="m 4006.9,5106.25 c -20.5,0 -46.25,-14.2 -57.16,-31.59 l -355.16,-564.28 c -10.92,-17.39 -3.09,-31.59 17.42,-31.59 h 1180.29 c 20.53,0 46.55,14.03 57.8,31.2 l 371.46,565.06 c 11.29,17.15 3.71,31.2 -16.81,31.2 H 4006.9"
         style="fill:#50c182;fill-opacity:1;fill-rule:nonzero;stroke:none"
         id="path146" /><path
         d="m 3329.83,6551.78 c 0,0 52.64,-118.46 177.7,-148.08 125.04,-29.62 138.2,171.12 0,236.94 -138.22,65.81 -444.26,29.61 -470.59,-69.11 -26.32,-98.72 0,-181 0,-181 0,0 254.22,40.74 292.89,161.25"
         style="fill:#203041;fill-opacity:1;fill-rule:nonzero;stroke:none"
         id="path148" /><path
         d="m 3607.2,5883.79 v -135.83 c 0,-52.3 42.4,-94.72 94.74,-94.72 52.33,0 94.75,42.42 94.75,94.72 v 135.83 H 3607.2"
         style="fill:#ffffff;fill-opacity:1;fill-rule:nonzero;stroke:none"
         id="path150" /><path
         d="m 3808.84,5769.27 c -21.64,0 -39.18,17.54 -39.18,39.18 0,21.66 17.54,39.19 39.18,39.19 21.64,0 39.18,-17.53 39.18,-39.19 0,-21.64 -17.54,-39.18 -39.18,-39.18 z m 0,99.28 c -33.19,0 -60.1,-26.9 -60.1,-60.1 0,-33.18 26.91,-60.08 60.1,-60.08 33.2,0 60.08,26.9 60.08,60.08 0,33.2 -26.88,60.1 -60.08,60.1"
         style="fill:#ffffff;fill-opacity:1;fill-rule:nonzero;stroke:none"
         id="path152" /><path
         d="m 2427.36,5811.17 c 0,-43.44 -35.21,-78.66 -78.65,-78.66 H 1511 c -43.44,0 -78.66,35.22 -78.66,78.66 v 511.28 c 0,43.44 35.22,78.65 78.66,78.65 h 837.71 c 43.44,0 78.65,-35.21 78.65,-78.65 v -511.28"
         style="fill:#fbe170;fill-opacity:1;fill-rule:nonzero;stroke:none"
         id="path154" /><path
         d="M 1792.26,6502.05 H 1511 c -43.44,0 -78.66,-35.22 -78.66,-78.66 v -146.83 c 0,-43.44 35.22,-78.65 78.66,-78.65 h 340.2 c 43.44,0 78.65,35.21 78.65,78.65 v 87.69 c -45.95,45.85 -91.81,91.78 -137.59,137.8"
         style="fill:#fbe170;fill-opacity:1;fill-rule:nonzero;stroke:none"
         id="path156" /><path
         d="m 1719.55,6166.49 c 179.09,0 358.19,0 537.28,0 16.76,0 16.76,26.01 0,26.01 -179.09,0 -358.19,0 -537.28,0 -16.76,0 -16.76,-26.01 0,-26.01 v 0"
         style="fill:#ffffff;fill-opacity:1;fill-rule:nonzero;stroke:none"
         id="path158" /><path
         d="m 1719.55,6000.12 c 179.09,0 358.19,0 537.28,0 16.76,0 16.76,25.99 0,25.99 -179.09,0 -358.19,0 -537.28,0 -16.76,0 -16.76,-25.99 0,-25.99 v 0"
         style="fill:#ffffff;fill-opacity:1;fill-rule:nonzero;stroke:none"
         id="path160" /><path
         d="m 8575.78,3236.91 c 0,-72.76 -59.51,-132.26 -132.28,-132.26 H 4602.13 c -72.76,0 -132.27,59.5 -132.27,132.26 v 2093.38 c 0,72.77 59.51,132.26 132.27,132.26 H 8443.5 c 72.77,0 132.28,-59.49 132.28,-132.26 V 3236.91"
         style="fill:#30445b;fill-opacity:1;fill-rule:nonzero;stroke:none"
         id="path162" /><path
         d="m 4602.13,3648.16 c -72.76,0 -132.27,-59.51 -132.27,-132.28 v -278.97 c 0,-72.76 59.51,-132.26 132.27,-132.26 H 8443.5 c 72.77,0 132.28,59.5 132.28,132.26 v 278.97 c 0,72.77 -59.51,132.28 -132.28,132.28 H 4602.13"
         style="fill:#ffffff;fill-opacity:1;fill-rule:nonzero;stroke:none"
         id="path164" /><path
         d="m 7091.84,4439.77 c 0,-299.46 -242.84,-542.35 -542.49,-542.35 -299.62,0 -542.38,242.89 -542.38,542.35 0,299.6 242.76,542.56 542.38,542.56 299.65,0 542.49,-242.96 542.49,-542.56"
         style="fill:#ffffff;fill-opacity:1;fill-rule:nonzero;stroke:none"
         id="path166" /><path
         d="m 6372.78,4155.89 486.73,283.75 -486.73,284.23 z"
         style="fill:#30445b;fill-opacity:1;fill-rule:nonzero;stroke:none"
         id="path168" /><path
         d="M 8179.72,3286.95 H 4816.78 v 159.22 h 3362.94 v -159.22"
         style="fill:#30445b;fill-opacity:1;fill-rule:nonzero;stroke:none"
         id="path170" /><path
         d="m 5810.24,3286.95 h -993.46 v 159.22 h 993.46 v -159.22"
         style="fill:#f57985;fill-opacity:1;fill-rule:nonzero;stroke:none"
         id="path172" /><path
         d="m 5826.86,3263.54 c 0,-9.17 -7.44,-16.61 -16.63,-16.61 v 0 c -9.17,0 -16.61,7.44 -16.61,16.61 v 206.75 c 0,9.19 7.44,16.63 16.61,16.63 v 0 c 9.19,0 16.63,-7.44 16.63,-16.63 v -206.75"
         style="fill:#f9ba17;fill-opacity:1;fill-rule:nonzero;stroke:none"
         id="path174" /><path
         d="m 9897.22,3798.34 c 0,-436.13 -353.65,-789.73 -789.72,-789.73 -436.29,0 -790,353.6 -790,789.73 0,436.3 353.71,789.95 790,789.95 436.07,0 789.72,-353.65 789.72,-789.95"
         style="fill:#51abc8;fill-opacity:1;fill-rule:nonzero;stroke:none"
         id="path176" /><path
         d="m 9691.48,3798.34 c 0,-322.46 -261.5,-583.97 -583.98,-583.97 -322.75,0 -584.13,261.51 -584.13,583.97 0,322.69 261.38,584.14 584.13,584.14 322.48,0 583.98,-261.45 583.98,-584.14"
         style="fill:#ffffff;fill-opacity:1;fill-rule:nonzero;stroke:none"
         id="path178" /><path
         d="m 9485.56,3798.34 c 0,-208.75 -169.34,-378.04 -378.06,-378.04 -208.97,0 -378.36,169.29 -378.36,378.04 0,208.93 169.39,378.27 378.36,378.27 208.72,0 378.06,-169.34 378.06,-378.27"
         style="fill:#74ceef;fill-opacity:1;fill-rule:nonzero;stroke:none"
         id="path180" /><path
         d="m 9279.8,3798.34 c 0,-95.15 -77.21,-172.24 -172.3,-172.24 -95.37,0 -172.56,77.09 -172.56,172.24 0,95.32 77.19,172.47 172.56,172.47 95.09,0 172.3,-77.15 172.3,-172.47"
         style="fill:#ffffff;fill-opacity:1;fill-rule:nonzero;stroke:none"
         id="path182" /><path
         d="m 9107.5,3970.81 c 95.09,0 172.3,-77.15 172.3,-172.47 0,-95.15 -77.21,-172.24 -172.3,-172.24 v 344.71"
         style="fill:#ffffff;fill-opacity:1;fill-rule:nonzero;stroke:none"
         id="path184" /><path
         d="m 9813.19,4312.45 123.99,124.22 -139.72,37.34 -37.29,139.85 -124.22,-124.23 30.35,-113.26 -421.34,-421.57 -59.69,119.43 -38.99,-145.17 -38.89,-145.17 145.18,38.96 145.11,38.75 -119.27,59.9 421.41,421.35 113.37,-30.4"
         style="fill:#30445b;fill-opacity:1;fill-rule:nonzero;stroke:none"
         id="path186" /><path
         d="m 4518.07,2078.61 2.45,-1.46 c 26.04,-15.51 56.21,-23.38 89.69,-23.38 79.11,0 163.38,45.08 200.36,107.19 32.47,54.47 37.38,115.21 42.59,179.53 3.16,39.18 6.43,79.71 16.64,118.16 28.7,105.61 100.78,180.35 170.5,252.62 75.59,78.38 146.98,152.4 169.49,263.09 29.99,149.57 -30.95,265.99 -95.48,389.27 -40.02,76.43 -81.39,155.47 -98.44,242.56 -6.13,30.2 -4.28,59.65 -2.5,88.14 1.31,20.98 2.56,40.77 0.76,60.44 -2.28,23.1 -9.86,50.69 -33.09,50.69 -18.08,0 -42.17,-15.99 -64.45,-42.76 -57.81,-73.64 -61.36,-191.9 -64.2,-286.94 -0.42,-14.28 -0.83,-28.1 -1.42,-41.31 -6.99,-116.7 -17.67,-229.84 -70.58,-332.32 -30.14,-54.65 -72.21,-88.83 -112.91,-121.88 -29.13,-23.67 -59.26,-48.14 -85.02,-80.04 -33.36,-42.83 -67.04,-92.07 -94.75,-138.59 -22.35,-37.52 -23.99,-74.06 -25.89,-116.39 -0.46,-10.27 -0.93,-20.8 -1.71,-31.58 -1.63,-54 -4.58,-99.51 -7.44,-143.53 -2.85,-43.91 -5.8,-89.34 -7.42,-143.36 -1.72,-23.09 -11.59,-50.61 -22.05,-79.75 -11.21,-31.17 -22.78,-63.44 -23.01,-88.28 2.63,-35.23 51.14,-84.9 95.31,-84.92 v 0 c 7,0 13.69,1.29 19.92,3.75 z m 92.14,-36.36 c -34.56,0 -65.9,7.91 -93.2,23.57 -6.83,-2.32 -14.05,-3.52 -21.51,-3.52 0,0 0,0 -0.01,0 -50.42,0 -103.78,54.99 -106.82,96.04 0.23,27.28 12.15,60.47 23.67,92.56 10.19,28.4 19.8,55.17 21.39,76.44 1.62,54.01 4.57,99.52 7.43,143.52 2.84,43.93 5.79,89.32 7.43,143.4 0.8,10.92 1.27,21.33 1.72,31.5 1.87,42.03 3.65,81.76 27.48,121.74 27.97,46.93 61.93,96.6 95.62,139.86 26.59,32.93 57.19,57.82 86.79,81.86 41.67,33.85 81.03,65.82 110,118.36 51.9,100.47 62.06,207.75 69.27,327.46 0.56,13.07 0.96,26.85 1.39,41.07 2.89,96.72 6.5,217.09 66.75,293.83 24.92,29.96 51.64,47.06 73.43,47.06 14.4,0 39.36,-7.93 44.58,-61.14 1.88,-20.59 0.57,-41.77 -0.74,-62.25 -1.73,-27.73 -3.54,-56.42 2.31,-85.15 16.74,-85.51 57.71,-163.77 97.35,-239.48 62.61,-119.62 127.37,-243.32 96.56,-396.89 -23.18,-114 -99.09,-192.72 -172.5,-268.83 -68.7,-71.23 -139.74,-144.88 -167.67,-247.6 -9.91,-37.44 -13.14,-77.44 -16.27,-116.13 -5.08,-62.79 -10.32,-127.71 -44.17,-184.49 -38.93,-65.37 -127.37,-112.79 -210.28,-112.79"
         style="fill:#2c3246;fill-opacity:1;fill-rule:nonzero;stroke:none"
         id="path188" /><path
         d="m 4934.21,3708.32 c -71.93,-125.49 -42.38,-284.12 -14.43,-417.52 13.89,-66.13 23.28,-133.1 23.63,-200.78 0.39,-74.04 -11.66,-149.22 -28.18,-221.23 -33.64,-146.74 -105.33,-279.79 -209.27,-388.56 -57.9,-60.58 -112.03,-122.52 -147.02,-199.55 -33.74,-74.2 -37.78,-158.3 -50.59,-237.73 -11.71,-72.79 -32.03,-140.68 -67.24,-205.59 -35.12,-64.74 -81.17,-123.2 -131.12,-177.01 -52.2,-56.23 -110.56,-106.48 -170.92,-153.63 -27.52,-21.51 -55.74,-42.17 -84.22,-62.44 -32.26,-22.99 -67.47,-44.87 -96.18,-72.23 -6.14,-5.86 -15.26,3.65 -9.1,9.49 22.99,21.92 50.41,40.24 76.38,58.42 35.26,24.61 70,49.92 104.03,76.27 63.16,48.89 123.04,102.07 177.43,160.63 55.75,60.09 103.63,127.26 139.81,200.89 35.72,72.78 46.8,154.22 58.17,233.64 11.08,77.34 25.17,149.25 63.53,218.22 38.52,69.2 94.9,123.48 147.74,181.33 108.94,119.26 171.65,268.71 198.98,426.6 12.07,69.9 17.42,140.21 12.34,211.03 -5,69.91 -21.83,137.25 -35.54,205.71 -23.03,114.98 -29.79,255.64 30.48,360.78 4.21,7.36 15.51,0.62 11.29,-6.74 v 0"
         style="fill:#f57649;fill-opacity:1;fill-rule:nonzero;stroke:none"
         id="path190" /><path
         d="m 4156.3,2456.33 c 166.69,63.69 236.88,295.9 180.91,442.36 -57.91,151.54 -210.29,232.21 -304.73,358.18 -203.6,275.26 -77.43,641.82 -299.31,904.34 -252.44,297.11 -642.35,211.78 -952.17,371.22 -71.76,36.23 -118.98,99.23 -180.6,139.34 -107.39,68.93 -137.85,-17.94 -116.33,-119.68 39.62,-164.29 216.38,-293.55 337.27,-397.84 131.72,-117.54 258.39,-236.96 332.17,-399.78 62.97,-149.57 20.77,-281.48 54.62,-430.59 20.75,-84.7 48.53,-172.47 77.49,-248.24 30.87,-80.8 92.51,-120.92 154.88,-178.12 127.88,-107.41 205.24,-184.92 333.12,-292.34 53.46,-49.02 101.83,-168.01 160.35,-215.11 54.65,-36.98 196.93,-18.68 222.33,66.26"
         style="fill:#2c3246;fill-opacity:1;fill-rule:nonzero;stroke:none"
         id="path192" /><path
         d="m 2575.39,4523.31 c 83.07,-206.91 303.15,-322.7 491.24,-416.33 93.23,-46.39 183.23,-99.02 265.41,-163.23 89.9,-70.29 169.36,-156.7 240.66,-245.44 145.38,-180.87 237.8,-394.7 270.07,-624.33 17.99,-127.91 41.15,-252.55 100.88,-368.44 57.54,-111.69 155.36,-196.93 239.24,-288.33 76.84,-83.68 139.58,-173.11 184.44,-277.73 44.72,-104.3 71.45,-215.85 88.82,-327.66 18.16,-116.85 23.16,-235.47 22.56,-353.52 -0.3,-53.84 -2.27,-107.71 -4.95,-161.49 -3,-60.99 -10.19,-124.49 -4.53,-185.35 1.22,-13.04 -18.98,-14.99 -20.18,-1.96 -4.52,48.76 -0.52,99.46 2.34,148.19 3.9,66.18 6.49,132.37 7.12,198.7 1.2,123.09 -5.91,246.32 -24.81,368.05 -19.38,124.84 -54.89,246.92 -109.41,361.03 -53.9,112.75 -141.84,203.96 -227,293.55 -82.95,87.27 -156.51,173.05 -203.28,285.34 -46.9,112.71 -58.64,232.69 -78.16,351.89 -40.19,245.69 -161.04,464.33 -325.93,648.22 -72.99,81.4 -152.95,155.05 -243.45,216.55 -89.33,60.71 -186.87,104.73 -282.75,153.54 -161.08,81.97 -337.68,208.16 -407.28,381.51 -4.86,12.12 14.07,19.36 18.95,7.24 v 0"
         style="fill:#f57649;fill-opacity:1;fill-rule:nonzero;stroke:none"
         id="path194" /><path
         d="m 3973.59,1653.55 c 108.33,41.39 153.93,192.31 117.55,287.5 -37.61,98.5 -136.63,150.91 -198.03,232.74 -132.32,178.94 -50.32,417.13 -194.52,587.73 -164.05,193.09 -417.44,137.63 -618.8,241.24 -46.62,23.57 -77.3,64.49 -117.38,90.6 -69.75,44.77 -89.56,-11.7 -75.58,-77.82 25.77,-106.75 140.61,-190.75 219.2,-258.55 85.59,-76.37 167.92,-154 215.87,-259.78 40.9,-97.23 13.48,-182.93 35.49,-279.87 13.5,-55.02 31.54,-112.09 50.34,-161.32 20.06,-52.48 71.55,-115.02 112.1,-152.21 83.1,-69.79 121.96,-83.73 205.05,-153.52 34.72,-31.86 66.19,-109.22 104.2,-139.81 35.53,-24.03 127.99,-12.12 144.51,43.07"
         style="fill:#1b2132;fill-opacity:1;fill-rule:nonzero;stroke:none"
         id="path196" /><path
         d="m 4145.27,1289.58 c -13.51,64.84 -33.93,128.12 -62.52,187.92 -35.02,73.3 -92.17,132.6 -147.52,190.81 -53.9,56.69 -101.72,112.44 -132.08,185.49 -30.5,73.17 -38.15,151.2 -50.82,228.6 -26.11,159.73 -104.65,301.76 -211.81,421.31 -47.43,52.87 -99.4,100.74 -158.19,140.73 -58.09,39.45 -121.49,68.06 -183.79,99.76 -104.66,53.28 -219.44,135.25 -264.67,247.93 -3.16,7.88 9.15,12.6 12.31,4.72 53.99,-134.49 197.02,-209.72 319.25,-270.56 60.59,-30.18 119.07,-64.33 172.47,-106.08 58.43,-45.68 110.07,-101.83 156.42,-159.53 94.46,-117.54 154.54,-256.48 175.5,-405.72 11.68,-83.14 26.74,-164.12 65.56,-239.45 37.4,-72.58 100.98,-127.95 155.48,-187.36 49.95,-54.42 90.7,-112.49 119.87,-180.47 21.4,-49.91 36.4,-102.34 47.38,-155.53 -4.29,-0.84 -8.58,-1.67 -12.84,-2.57"
         style="fill:#f57649;fill-opacity:1;fill-rule:nonzero;stroke:none"
         id="path198" /><path
         d="M 3496.66,1686.23 4756.5,1415.86 4681.72,225.039 H 3709.51 L 3496.66,1686.23"
         style="fill:#f57649;fill-opacity:1;fill-rule:nonzero;stroke:none"
         id="path200" /><path
         d="m 7323.26,2174.34 c 218.38,0.72 435.99,28.66 653.91,40.12 213.45,11.22 453.39,21.69 653.41,-66.71 1.99,15.23 3.99,30.46 5.97,45.7 -141.33,-50.3 -311.66,-42.11 -408.82,86.6 -96.56,127.89 -45.61,290.71 56.48,396.99 118.81,123.68 286.13,187.65 447.17,106.02 148.58,-75.31 221.12,-243.45 216.8,-403.73 -0.42,-15.56 16.4,-29.36 31.65,-24.12 256.16,88.21 504.99,204.97 770.96,261.8 280.31,59.9 546.61,4.1 784.71,-154.28 26.9,-17.92 51.9,25.4 25.2,43.17 -236.7,157.51 -498.8,215.54 -778.98,167.84 -282.34,-48.06 -546.1,-177.67 -815.19,-270.3 10.55,-8.04 21.1,-16.08 31.65,-24.11 4.98,184.44 -83.17,366.62 -251.51,451.94 -179.7,91.08 -364.37,12.68 -497.82,-118.88 -120.15,-118.46 -166.14,-302.6 -69.96,-449.53 102.53,-156.65 307.65,-175.74 470.96,-117.64 18.04,6.43 27.65,36.12 5.97,45.7 -195.99,86.62 -422.84,84.01 -632.83,75.67 -233.41,-9.27 -465.99,-41.48 -699.73,-42.25 -32.24,-0.11 -32.25,-50.11 0,-50 v 0"
         style="fill:#fbe170;fill-opacity:1;fill-rule:nonzero;stroke:none"
         id="path202" /><path
         d="m 4482.36,6825.9 c 747.94,-2.5 1495.86,-2.5 2243.78,0.4 27.98,0.11 27.98,43.49 0,43.38 -747.92,-2.87 -1495.84,-2.88 -2243.78,-0.38 -27.98,0.09 -27.98,-43.3 0,-43.4 v 0"
         style="fill:#4560b6;fill-opacity:1;fill-rule:nonzero;stroke:none"
         id="path204" /><path
         d="m 4006.72,6826.3 c 94.44,0 188.9,0 283.35,0 27.98,0 27.98,43.38 0,43.38 -94.45,0 -188.91,0 -283.35,0 -27.99,0 -27.99,-43.38 0,-43.38 v 0"
         style="fill:#4560b6;fill-opacity:1;fill-rule:nonzero;stroke:none"
         id="path206" /><path
         d="m 4583.1,6839.99 c -4.01,-9.55 6.93,12.9 8.97,16.47 10.14,17.66 22.7,33.47 36.82,48.08 49.49,51.29 117.4,63.3 185,46.92 9.75,-2.35 19.15,1.53 24.5,9.99 54.95,87.11 142.24,162.74 236.86,202.56 75.26,31.69 171.01,41.54 249.71,17.24 18.14,-5.59 35.12,-15.25 48.6,-28.63 3.82,-3.8 12.35,-20.11 9.54,-12.42 9.51,-26.07 51.47,-14.82 41.87,11.53 -40.72,111.84 -232.56,90.77 -316.98,69.11 -124.22,-31.84 -239.24,-130.01 -307.07,-237.5 8.16,3.32 16.33,6.65 24.5,9.98 -119.6,28.97 -236.15,-27.51 -284.18,-141.79 -10.82,-25.78 31.18,-36.92 41.86,-11.54 v 0"
         style="fill:#4560b6;fill-opacity:1;fill-rule:nonzero;stroke:none"
         id="path208" /><path
         d="m 5351.88,7046.79 c 116.7,169.76 304.32,314.16 505.62,361.04 114.31,26.64 218.35,-16.3 270.84,-121.89 28.61,-57.57 51.82,-159.77 10.59,-217.25 -15.23,-21.24 16.52,-41.38 34.06,-26.3 30.03,25.77 66.35,46.18 103.09,60.4 45.33,17.55 158.33,29.92 161.49,-42.88 2.03,-47.53 -40.04,-97.94 -68.15,-132.29 -18.53,-22.6 -38.63,-44.34 -60.02,-64.29 -20.52,-19.12 10.24,-49.74 30.68,-30.68 61.59,57.41 165.75,164.16 135.89,257.21 -22.9,71.31 -121.9,77.02 -181.84,63.86 -55.05,-12.1 -109.27,-44.12 -151.8,-80.64 11.35,-8.78 22.72,-17.53 34.07,-26.29 47.18,65.78 25.95,174.08 -2.35,242.52 -44.66,108.12 -141.22,172.7 -258.52,169.76 -157.07,-3.9 -310.15,-100.98 -425.72,-199.75 -64.99,-55.57 -126.79,-119.94 -175.39,-190.63 -15.91,-23.14 21.73,-44.8 37.46,-21.9 v 0"
         style="fill:#4560b6;fill-opacity:1;fill-rule:nonzero;stroke:none"
         id="path210" /><path
         d="m 6214.51,2480.29 c 450.6,-1.5 901.2,-1.5 1351.79,0.24 16.86,0.07 16.86,26.21 0,26.13 -450.59,-1.72 -901.19,-1.73 -1351.79,-0.22 -16.86,0.05 -16.86,-26.09 0,-26.15 v 0"
         style="fill:#4560b6;fill-opacity:1;fill-rule:nonzero;stroke:none"
         id="path212" /><path
         d="m 5927.95,2480.53 c 56.9,0 113.8,0 170.71,0 16.86,0 16.86,26.13 0,26.13 -56.91,0 -113.81,0 -170.71,0 -16.87,0 -16.87,-26.13 0,-26.13 v 0"
         style="fill:#4560b6;fill-opacity:1;fill-rule:nonzero;stroke:none"
         id="path214" /><path
         d="m 6275.2,2488.78 c -2.42,-5.75 4.18,7.77 5.4,9.93 6.11,10.64 13.68,20.16 22.18,28.96 29.82,30.9 70.74,38.13 111.46,28.27 5.88,-1.42 11.54,0.92 14.76,6.01 33.1,52.48 85.7,98.05 142.69,122.03 45.36,19.11 103.03,25.04 150.45,10.39 10.93,-3.35 21.16,-9.18 29.28,-17.24 2.31,-2.29 7.44,-12.11 5.74,-7.48 5.75,-15.7 31.02,-8.93 25.24,6.95 -24.53,67.37 -140.12,54.68 -190.98,41.63 -74.83,-19.19 -144.13,-78.33 -184.99,-143.08 4.91,2 9.83,4 14.75,6 -72.05,17.46 -142.26,-16.56 -171.2,-85.41 -6.52,-15.54 18.78,-22.24 25.22,-6.96 v 0"
         style="fill:#4560b6;fill-opacity:1;fill-rule:nonzero;stroke:none"
         id="path216" /><path
         d="m 6738.35,2613.37 c 70.32,102.27 183.35,189.27 304.63,217.51 68.87,16.05 131.55,-9.82 163.17,-73.43 17.24,-34.68 31.22,-96.26 6.38,-130.89 -9.18,-12.79 9.95,-24.92 20.52,-15.84 18.09,15.53 39.97,27.82 62.11,36.39 27.31,10.57 95.38,18.03 97.3,-25.84 1.22,-28.63 -24.13,-59 -41.07,-79.69 -11.16,-13.62 -23.27,-26.72 -36.16,-38.74 -12.36,-11.51 6.17,-29.97 18.49,-18.48 37.1,34.59 99.86,98.9 81.87,154.96 -13.8,42.97 -73.45,46.4 -109.56,38.47 -33.16,-7.28 -65.83,-26.58 -91.45,-48.58 6.84,-5.28 13.69,-10.56 20.52,-15.84 28.43,39.63 15.64,104.87 -1.41,146.1 -26.91,65.15 -85.08,104.06 -155.75,102.29 -94.63,-2.36 -186.85,-60.84 -256.48,-120.35 -39.16,-33.48 -76.39,-72.25 -105.66,-114.85 -9.59,-13.93 13.08,-26.99 22.55,-13.19 v 0"
         style="fill:#4560b6;fill-opacity:1;fill-rule:nonzero;stroke:none"
         id="path218" /><path
         d="m 10865.3,6088.5 c -265,0 -480.6,-215.59 -480.6,-480.59 0,-264.98 215.6,-480.57 480.6,-480.57 265,0 480.5,215.59 480.5,480.57 0,265 -215.5,480.59 -480.5,480.59 z m 0,-978.23 c -274.4,0 -497.7,223.24 -497.7,497.64 0,274.4 223.3,497.64 497.7,497.64 274.4,0 497.6,-223.24 497.6,-497.64 0,-274.4 -223.2,-497.64 -497.6,-497.64"
         style="fill:#ffffff;fill-opacity:1;fill-rule:nonzero;stroke:none"
         id="path220" /><path
         d="m 10861.7,5588.38 v 349.41 c 0,4.69 5.3,8.51 10,8.51 4.7,0 10,-3.82 10,-8.51 v -310.35 l 153.8,147.43 c 3.4,3.2 6.1,3 9.3,-0.46 3.2,-3.45 5.6,-8.86 2.1,-12.06 l -185.2,-173.97"
         style="fill:#ffffff;fill-opacity:1;fill-rule:nonzero;stroke:none"
         id="path222" /><path
         d="m 10962.7,7386.15 c 0,-328.64 -266.4,-595.04 -595.1,-595.04 -328.6,0 -595.01,266.4 -595.01,595.04 0,328.63 266.41,595.03 595.01,595.03 328.7,0 595.1,-266.4 595.1,-595.03"
         style="fill:#232633;fill-opacity:1;fill-rule:nonzero;stroke:none"
         id="path224" /><path
         d="m 10361.2,7941.67 c 0,-30.22 0,-60.43 0,-90.65 0,-11.24 17.5,-11.24 17.5,0 0,30.22 0,60.43 0,90.65 0,11.25 -17.5,11.25 -17.5,0 v 0"
         style="fill:#ffffff;fill-opacity:1;fill-rule:nonzero;stroke:none"
         id="path226" /><path
         d="m 10361.2,7713.88 c 0,-100.72 0,-201.44 0,-302.17 0,-11.24 17.5,-11.24 17.5,0 0,100.73 0,201.45 0,302.17 0,11.24 -17.5,11.24 -17.5,0 v 0"
         style="fill:#ffffff;fill-opacity:1;fill-rule:nonzero;stroke:none"
         id="path228" /><path
         d="m 9812.1,7379.75 c 30.24,0 60.43,0 90.65,0 11.25,0 11.25,17.43 0,17.43 -30.22,0 -60.41,0 -90.65,0 -11.23,0 -11.23,-17.43 0,-17.43 v 0"
         style="fill:#ffffff;fill-opacity:1;fill-rule:nonzero;stroke:none"
         id="path230" /><path
         d="m 10374,6830.61 c 0,30.22 0,60.43 0,90.65 0,11.24 -17.4,11.24 -17.4,0 0,-30.22 0,-60.43 0,-90.65 0,-11.24 17.4,-11.24 17.4,0 v 0"
         style="fill:#ffffff;fill-opacity:1;fill-rule:nonzero;stroke:none"
         id="path232" /><path
         d="m 10923.2,7392.53 c -30.2,0 -60.5,0 -90.7,0 -11.2,0 -11.2,-17.43 0,-17.43 30.2,0 60.5,0 90.7,0 11.2,0 11.2,17.43 0,17.43 v 0"
         style="fill:#ffffff;fill-opacity:1;fill-rule:nonzero;stroke:none"
         id="path234" /><path
         d="m 10672.1,7392.53 c -100.7,0 -201.4,0 -302.1,0 -11.3,0 -11.3,-17.43 0,-17.43 100.7,0 201.4,0 302.1,0 11.3,0 11.3,17.43 0,17.43 v 0"
         style="fill:#ffffff;fill-opacity:1;fill-rule:nonzero;stroke:none"
         id="path236" /><path
         d="m 10408.3,7386.15 c 0,-22.47 -18.2,-40.68 -40.7,-40.68 -22.4,0 -40.6,18.21 -40.6,40.68 0,22.46 18.2,40.67 40.6,40.67 22.5,0 40.7,-18.21 40.7,-40.67"
         style="fill:#ffffff;fill-opacity:1;fill-rule:nonzero;stroke:none"
         id="path238" /><path
         d="m 4681.73,7605.47 c 0,-33.14 -26.88,-60 -60,-60 H 3309.6 c -33.14,0 -60,26.86 -60,60 v 190.23 c 0,33.14 26.86,60 60,60 h 1312.13 c 33.12,0 60,-26.86 60,-60 v -190.23"
         style="fill:#4560b6;fill-opacity:1;fill-rule:nonzero;stroke:none"
         id="path240" /><path
         d="m 3358.39,7736.02 c 392.23,0 784.45,0 1176.67,0 16.12,0 16.12,25 0,25 -392.22,0 -784.44,0 -1176.67,0 -16.12,0 -16.12,-25 0,-25 v 0"
         style="fill:#ffffff;fill-opacity:1;fill-rule:nonzero;stroke:none"
         id="path242" /><path
         d="m 3358.39,7649.36 c 392.23,0 784.45,0 1176.67,0 16.12,0 16.12,25 0,25 -392.22,0 -784.44,0 -1176.67,0 -16.12,0 -16.12,-25 0,-25 v 0"
         style="fill:#ffffff;fill-opacity:1;fill-rule:nonzero;stroke:none"
         id="path244" /><path
         d="m 3334.98,7606.89 -121.67,-152.21 225,138.88 z"
         style="fill:#4560b6;fill-opacity:1;fill-rule:nonzero;stroke:none"
         id="path246" /><path
         d="m 10740.6,8204.43 c 0,-47.35 -38.4,-85.73 -85.8,-85.73 H 8779.99 c -47.36,0 -85.74,38.38 -85.74,85.73 v 271.82 c 0,47.34 38.38,85.73 85.74,85.73 h 1874.81 c 47.4,0 85.8,-38.39 85.8,-85.73 v -271.82"
         style="fill:#4560b6;fill-opacity:1;fill-rule:nonzero;stroke:none"
         id="path248" /><path
         d="m 8849.7,8390.97 c 560.43,0 1120.86,0 1681.3,0 23,0 23,35.72 0,35.72 -560.44,0 -1120.87,0 -1681.3,0 -23.04,0 -23.04,-35.72 0,-35.72 v 0"
         style="fill:#ffffff;fill-opacity:1;fill-rule:nonzero;stroke:none"
         id="path250" /><path
         d="m 8849.7,8267.13 c 560.43,0 1120.86,0 1681.3,0 23,0 23,35.73 0,35.73 -560.44,0 -1120.87,0 -1681.3,0 -23.04,0 -23.04,-35.73 0,-35.73 v 0"
         style="fill:#ffffff;fill-opacity:1;fill-rule:nonzero;stroke:none"
         id="path252" /><path
         d="m 8816.25,8206.46 -173.85,-217.49 321.49,198.44 z"
         style="fill:#4560b6;fill-opacity:1;fill-rule:nonzero;stroke:none"
         id="path254" /></g></g></svg>
