<?xml version="1.0" encoding="UTF-8" standalone="no"?>
<svg
   xmlns:dc="http://purl.org/dc/elements/1.1/"
   xmlns:cc="http://creativecommons.org/ns#"
   xmlns:rdf="http://www.w3.org/1999/02/22-rdf-syntax-ns#"
   xmlns:svg="http://www.w3.org/2000/svg"
   xmlns="http://www.w3.org/2000/svg"
   xmlns:sodipodi="http://sodipodi.sourceforge.net/DTD/sodipodi-0.dtd"
   xmlns:inkscape="http://www.inkscape.org/namespaces/inkscape"
   version="1.1"
   id="svg2"
   xml:space="preserve"
   width="729.05316"
   height="365.25732"
   viewBox="0 0 729.05317 365.25732"
   sodipodi:docname="brilliant_ideas_connection.svg"
   inkscape:version="1.0.1 (3bc2e813f5, 2020-09-07)"><metadata
     id="metadata8"><rdf:RDF><cc:Work
         rdf:about=""><dc:format>image/svg+xml</dc:format><dc:type
           rdf:resource="http://purl.org/dc/dcmitype/StillImage" /><dc:title></dc:title></cc:Work></rdf:RDF></metadata><defs
     id="defs6" /><sodipodi:namedview
     pagecolor="#ffffff"
     bordercolor="#666666"
     borderopacity="1"
     objecttolerance="10"
     gridtolerance="10"
     guidetolerance="10"
     inkscape:pageopacity="0"
     inkscape:pageshadow="2"
     inkscape:window-width="1920"
     inkscape:window-height="1166"
     id="namedview4"
     showgrid="false"
     inkscape:zoom="1.0681785"
     inkscape:cx="403.039"
     inkscape:cy="254.24822"
     inkscape:window-x="-11"
     inkscape:window-y="-11"
     inkscape:window-maximized="1"
     inkscape:current-layer="g12" /><g
     id="g10"
     inkscape:groupmode="layer"
     inkscape:label="ink_ext_XXXXXX"
     transform="matrix(1.3333333,0,0,-1.3333333,-32.326735,440.11199)"><g
       id="g12"
       transform="scale(0.1)"><path
         d="m 3410.32,2817.46 c 0,-236.09 -191.38,-427.48 -427.47,-427.48 -236.09,0 -427.48,191.39 -427.48,427.48 0,236.09 191.39,427.48 427.48,427.48 236.09,0 427.47,-191.39 427.47,-427.48"
         style="fill:#100f0d;fill-opacity:1;fill-rule:nonzero;stroke:none"
         id="path78" /><path
         d="m 3403.48,3088.03 c 0,-58.76 -47.64,-106.4 -106.41,-106.4 -58.76,0 -106.41,47.64 -106.41,106.4 0,58.76 47.65,106.41 106.41,106.41 58.77,0 106.41,-47.65 106.41,-106.41"
         style="fill:#100f0d;fill-opacity:1;fill-rule:nonzero;stroke:none"
         id="path80" /><path
         d="m 2711.9,2528.3 c 0,-106.78 -86.57,-193.35 -193.35,-193.35 -106.78,0 -193.34,86.57 -193.34,193.35 0,106.78 86.56,193.34 193.34,193.34 106.78,0 193.35,-86.56 193.35,-193.34"
         style="fill:#100f0d;fill-opacity:1;fill-rule:nonzero;stroke:none"
         id="path82" /><path
         d="m 3380.54,3265.4 c 0,-19.57 -15.87,-35.44 -35.44,-35.44 -19.57,0 -35.44,15.87 -35.44,35.44 0,19.57 15.87,35.44 35.44,35.44 19.57,0 35.44,-15.87 35.44,-35.44"
         style="fill:#100f0d;fill-opacity:1;fill-rule:nonzero;stroke:none"
         id="path84" /><path
         d="m 2375.01,2350.52 c 0,-9.64 -7.82,-17.44 -17.45,-17.44 -9.64,0 -17.45,7.8 -17.45,17.44 0,9.64 7.81,17.45 17.45,17.45 9.63,0 17.45,-7.81 17.45,-17.45"
         style="fill:#100f0d;fill-opacity:1;fill-rule:nonzero;stroke:none"
         id="path86" /><path
         d="M 5353,782.012 H 456.676 V 1696.97 H 5353 V 782.012"
         style="fill:#f9b01a;fill-opacity:1;fill-rule:nonzero;stroke:none"
         id="path88" /><path
         d="m 1985.11,1565.22 c 0,0 -119.72,-31.94 -167.95,-142.08 -48.22,-110.14 -27.9,-188.35 -11.56,-214.42 16.33,-26.05 20.69,-112.73 2.43,-161.61 0,0 20.87,65.17 19.55,161.61 -1.29,96.46 36.86,96.46 58.51,168.15 21.65,71.68 56.85,137.51 58.81,140.11 1.95,2.6 29.98,35.2 29.98,35.2 l 10.23,13.04"
         style="fill:#433397;fill-opacity:1;fill-rule:nonzero;stroke:none"
         id="path90" /><path
         d="m 1713.38,1251.75 c 0,0 3.92,252.2 201.38,351.9 0,0 -47.64,-90.9 -55.1,-155.42 -7.46,-64.53 -58.29,-118.29 -77.84,-141.74 -19.56,-23.46 -68.44,-54.74 -68.44,-54.74"
         style="fill:#433397;fill-opacity:1;fill-rule:nonzero;stroke:none"
         id="path92" /><path
         d="m 1824.94,1487.87 c -7.13,-13.03 -14.71,-28.66 -21.62,-45.89 -6.96,-17.21 -13.59,-35.88 -19.55,-54.75 -5.81,-18.93 -11.04,-38.01 -15.49,-56.01 -4.25,-17.08 -7.54,-33.16 -10.27,-47.2 0.97,0.77 1.91,1.55 2.84,2.33 2.96,13.29 6.63,28.16 10.72,44.04 4.61,17.9 9.97,36.89 15.94,55.67 11.54,37.67 25.85,74.51 39.38,100.77 6.79,13.1 13.09,23.7 18.1,30.74 4.94,7.08 8.18,10.82 8.18,10.82 0,0 -3.41,-3.58 -8.71,-10.43 -5.28,-6.84 -12.37,-17.05 -19.52,-30.09"
         style="fill:#100f0d;fill-opacity:1;fill-rule:nonzero;stroke:none"
         id="path94" /><path
         d="m 1647.81,1468.46 c 17.25,0 17.75,-26.78 0.47,-26.78 -17.26,0 -17.75,26.78 -0.47,26.78 z m -39.65,51.85 c 1.69,-4.67 3.35,-9.39 4.93,-14.16 1.05,0.26 2.2,0.43 3.44,0.43 15.91,0 17.53,-22.69 4.16,-26.26 2.85,-11.04 5.03,-21.9 6.2,-32.09 7.48,-64.53 58.32,-118.29 77.85,-141.74 19.57,-23.46 68.44,-54.74 68.44,-54.74 0,0 -3.91,252.2 -201.37,351.9 0,0 13.88,-26.51 27.84,-61.07 11.44,-1.27 14.42,-15.05 8.51,-22.27"
         style="fill:#433397;fill-opacity:1;fill-rule:nonzero;stroke:none"
         id="path96" /><path
         d="m 1661.61,1487.87 c 7.15,-13.03 14.71,-28.66 21.65,-45.89 6.94,-17.21 13.56,-35.88 19.54,-54.75 5.8,-18.93 11.01,-38.01 15.49,-56.01 4.23,-17.08 7.53,-33.16 10.25,-47.2 -0.96,0.77 -1.89,1.55 -2.85,2.33 -2.94,13.29 -6.61,28.16 -10.7,44.04 -4.61,17.9 -9.96,36.89 -15.93,55.67 -11.54,37.67 -25.87,74.51 -39.39,100.77 -6.8,13.1 -13.1,23.7 -18.1,30.74 -4.94,7.08 -8.18,10.82 -8.18,10.82 0,0 3.41,-3.58 8.71,-10.43 5.28,-6.84 12.37,-17.05 19.51,-30.09"
         style="fill:#100f0d;fill-opacity:1;fill-rule:nonzero;stroke:none"
         id="path98" /><path
         d="m 1800.22,722.559 c 0,0 -27.37,131.652 -31.28,152.5 -3.91,20.863 -7.17,101.671 -37.8,108.843 -30.63,7.157 -61.58,-25.91 -61.58,-25.91 0,0 74.29,-21.512 94.32,-81.633 20.06,-60.117 32.27,-153.8 32.27,-153.8 h 4.07"
         style="fill:#100f0d;fill-opacity:1;fill-rule:nonzero;stroke:none"
         id="path100" /><path
         d="m 1509.72,925.242 c 10.2,16.488 21.7,28.969 33.16,38.438 2.48,-2.438 5.89,-3.918 9.6,-3.918 h 0.98 c 7.3,0 13.28,6.418 13.14,13.609 -0.03,1.949 -0.5,3.75 -1.27,5.391 19.8,10.398 36.54,12.238 41.98,10.187 10.42,-3.918 47.26,-7.488 75.93,-2.437 28.67,5.047 47.9,-2.61 47.9,-2.61 0,0 -51.55,-24.203 -61.58,-25.91 -10.02,-1.703 -42.03,-15.16 -82.61,-49.851 -40.56,-34.711 -112.42,-124.641 -121.21,-126.11 -8.8,-1.461 8.31,85.528 43.98,143.211"
         style="fill:#433397;fill-opacity:1;fill-rule:nonzero;stroke:none"
         id="path102" /><path
         d="m 1632.53,984.762 c 4.11,-0.43 3,-0.262 7.72,-0.473 -45.82,-13.117 -141.62,-56.18 -172.06,-190.527 0,0 16.85,138.32 164.34,191"
         style="fill:#100f0d;fill-opacity:1;fill-rule:nonzero;stroke:none"
         id="path104" /><path
         d="m 1814.08,722.559 c 0,0 27.37,131.652 31.27,152.5 3.92,20.863 7.17,101.671 37.8,108.843 30.63,7.157 61.58,-25.91 61.58,-25.91 0,0 -74.29,-21.512 -94.32,-81.633 -20.04,-60.117 -32.27,-153.8 -32.27,-153.8 h -4.06"
         style="fill:#100f0d;fill-opacity:1;fill-rule:nonzero;stroke:none"
         id="path106" /><path
         d="m 1883.15,983.902 c 0,0 19.23,7.657 47.9,2.61 28.67,-5.051 65.5,-1.481 75.93,2.437 10.42,3.903 61.9,-6.039 97.59,-63.707 35.68,-57.683 52.78,-144.672 43.99,-143.211 -8.81,1.469 -80.65,91.399 -121.22,126.11 -40.57,34.691 -72.58,48.148 -82.61,49.851 -10.02,1.707 -61.58,25.91 -61.58,25.91"
         style="fill:#433397;fill-opacity:1;fill-rule:nonzero;stroke:none"
         id="path108" /><path
         d="m 1981.76,984.762 c -4.11,-0.43 -2.99,-0.262 -7.72,-0.473 45.82,-13.117 141.61,-56.18 172.07,-190.527 0,0 -16.86,138.32 -164.35,191"
         style="fill:#100f0d;fill-opacity:1;fill-rule:nonzero;stroke:none"
         id="path110" /><path
         d="m 1652.7,1200.62 c 17.25,0 17.75,-26.77 0.47,-26.77 -17.26,0 -17.75,26.77 -0.47,26.77 z m -256.53,30.27 c 0,0 70.38,52.14 145.97,3.25 10,-6.46 18.88,-12.68 26.99,-18.73 1.88,3.84 5.59,6.71 11.23,6.71 13.28,0 16.6,-15.85 9.55,-23.14 3.55,-2.98 7,-5.94 10.32,-8.84 1.78,1.02 3.93,1.67 6.53,1.67 10.97,0 15.13,-10.79 12.29,-18.69 23.77,-21.88 45.74,-42.33 84.72,-64.1 72.34,-40.39 77.55,-121.86 77.55,-158.348 0,-36.524 16.29,-65.832 14.34,-89.953 -1.95,-24.11 4.56,-138.16 4.56,-138.16 h 7.81 c 0,0 1.32,278.201 -7.81,296.821 -9.13,18.61 -44.97,118.97 -52.13,150.24 -7.17,31.29 -4.57,49.54 -4.57,49.54 0,0 -20.85,46.26 -80.8,58 -59.97,11.73 -80.82,18.25 -101.03,31.28 -20.19,13.04 -128.38,21.5 -165.52,-77.55"
         style="fill:#433397;fill-opacity:1;fill-rule:nonzero;stroke:none"
         id="path112" /><path
         d="m 1535.67,1269.62 c 6.4,-0.45 13.52,-1.43 21.28,-2.8 7.72,-1.51 16.04,-3.36 24.72,-5.83 8.67,-2.44 17.69,-5.45 26.89,-8.92 9.19,-3.5 18.53,-7.52 27.89,-11.89 9.28,-4.46 18.65,-9.2 27.79,-14.35 31.83,-17.99 61.36,-39.58 84.33,-58.21 0.14,-0.61 0.3,-1.21 0.45,-1.86 -23.23,18.66 -53.33,40.39 -85.74,58.35 -9.06,5.21 -18.34,9.99 -27.57,14.53 -9.29,4.43 -18.56,8.5 -27.68,12.06 -9.13,3.51 -18.09,6.58 -26.71,9.09 -8.61,2.54 -16.9,4.43 -24.56,5.99 -7.72,1.37 -14.81,2.53 -21.13,3.14 -6.34,0.88 -11.91,0.79 -16.47,1.15 -9.14,0.04 -14.38,-0.11 -14.38,-0.11 0,0 5.22,0.27 14.38,0.44 4.58,-0.25 10.17,-0.05 16.51,-0.78"
         style="fill:#100f0d;fill-opacity:1;fill-rule:nonzero;stroke:none"
         id="path114" /><path
         d="m 1934.24,1291.2 c 17.24,0 17.75,-26.77 0.46,-26.77 -17.25,0 -17.76,26.77 -0.46,26.77 z M 1779.21,735.352 h 7.83 c 0,0 6.51,114.046 4.56,138.16 -1.96,24.109 14.33,53.437 14.33,89.929 0,36.5 5.22,117.959 77.56,158.369 72.34,40.41 86.02,76.25 161.63,125.14 75.6,48.86 145.97,-3.28 145.97,-3.28 -26.49,70.63 -89.05,86.58 -130.11,85.2 3.22,-7.89 -0.53,-18.83 -11.59,-18.83 -9.52,0 -13.92,8.18 -13.04,15.49 -4.66,-1.26 -8.37,-2.73 -10.78,-4.3 -20.22,-13.03 -41.05,-19.56 -101.02,-31.29 -59.96,-11.72 -80.81,-57.98 -80.81,-57.98 0,0 2.6,-18.27 -4.56,-49.54 -7.18,-31.28 -43.02,-131.65 -52.14,-150.26 -9.13,-18.61 -7.83,-296.808 -7.83,-296.808"
         style="fill:#433397;fill-opacity:1;fill-rule:nonzero;stroke:none"
         id="path116" /><path
         d="m 2051.59,1282.41 c -6.39,-0.44 -13.53,-1.44 -21.28,-2.8 -7.73,-1.52 -16.04,-3.36 -24.71,-5.83 -8.67,-2.45 -17.7,-5.47 -26.9,-8.92 -9.19,-3.5 -18.53,-7.51 -27.87,-11.89 -9.31,-4.47 -18.67,-9.2 -27.81,-14.35 -31.84,-17.99 -61.37,-39.57 -84.34,-58.22 -0.12,-0.59 -0.28,-1.2 -0.45,-1.84 23.23,18.65 53.33,40.38 85.75,58.35 9.06,5.2 18.35,9.99 27.58,14.52 9.28,4.42 18.54,8.48 27.66,12.05 9.14,3.51 18.1,6.59 26.72,9.1 8.61,2.53 16.89,4.42 24.57,5.99 7.7,1.37 14.78,2.54 21.13,3.13 6.32,0.89 11.9,0.8 16.45,1.16 9.15,0.04 14.38,-0.1 14.38,-0.1 0,0 -5.22,0.26 -14.38,0.44 -4.57,-0.28 -10.15,-0.05 -16.5,-0.79"
         style="fill:#100f0d;fill-opacity:1;fill-rule:nonzero;stroke:none"
         id="path118" /><path
         d="m 1664.14,1383.72 c 0,0 -29.77,14.66 -63.99,14.33 -34.21,-0.33 -44.97,10.11 -56.05,14.67 -11.08,4.55 -108.51,-8.81 -165.85,-83.75 0,0 71.03,38.44 163.89,47.9 92.87,9.45 80.5,3.9 80.5,3.9 l 29.32,-7.15 12.18,10.1"
         style="fill:#433397;fill-opacity:1;fill-rule:nonzero;stroke:none"
         id="path120" /><path
         d="m 1808.03,722.559 c 0,0 -1.3,250.25 0,324.551 1.32,74.3 -27.37,224.19 -44.31,267.19 -16.94,43.01 -124.46,104.92 -221.58,62.57 0,0 59.96,-0.66 75.61,-18.89 15.64,-18.26 54.08,-65.18 76.25,-81.47 22.14,-16.29 31.93,-123.82 59.3,-178.57 27.36,-54.74 44.31,-78.86 46.92,-123.819 2.6,-44.973 4.48,-251.562 4.48,-251.562 h 3.33"
         style="fill:#100f0d;fill-opacity:1;fill-rule:nonzero;stroke:none"
         id="path122" /><path
         d="m 2060.07,1569.45 c 0,0 -90.41,14.65 -134.4,-41.06 -43.98,-55.72 -150.08,-193.55 -117.55,-276.64 32.51,-83.1 -0.09,-204.64 -0.09,-204.64 0,0 33.57,65.97 29.67,170.98 -3.91,105.01 54.74,117.72 98.73,227.21 43.99,109.48 74.27,119.25 123.64,124.15"
         style="fill:#100f0d;fill-opacity:1;fill-rule:nonzero;stroke:none"
         id="path124" /><path
         d="m 1814.08,1074.96 -1.8,-352.401 h -4.25 l 0.42,326.151 5.63,26.25"
         style="fill:#100f0d;fill-opacity:1;fill-rule:nonzero;stroke:none"
         id="path126" /><path
         d="m 1773.18,975.43 c 0,0 -5.47,-32.598 13.89,-97.11 V 722.559 h 4.68 v 151.863 c 0,0 21.97,50.168 49.75,61.258 0,0 -51.7,37.129 -68.32,39.75"
         style="fill:#100f0d;fill-opacity:1;fill-rule:nonzero;stroke:none"
         id="path128" /><path
         d="m 1835.37,942.199 c 0,0 -5.45,70.781 18.5,96.021 23.97,25.25 88.53,32.55 113.95,92.01 25.41,59.46 54.26,96.51 54.26,96.51 0,0 -130.84,-29.76 -168.21,-96.51 -37.35,-66.76 -28.24,-188.031 -28.24,-188.031 h 9.74"
         style="fill:#100f0d;fill-opacity:1;fill-rule:nonzero;stroke:none"
         id="path130" /><path
         d="m 1938.79,1197.66 c 0,0 78.78,31.69 138.29,11.86 59.5,-19.83 68.51,17.22 68.51,17.22 0,0 -3.61,-10 -65.8,4.41 -62.22,14.43 -108.89,-7.5 -141,-33.49"
         style="fill:#433397;fill-opacity:1;fill-rule:nonzero;stroke:none"
         id="path132" /><path
         d="m 1707.83,786.391 c 0.03,0 0.08,-0.012 0.09,-0.032 -8.66,-100.41 61.3,-170.929 146.96,-203.839 -7.08,-4.079 -14.57,-7.391 -22.38,-9.821 h -64.41 c -50.37,15.742 -87.35,67.461 -87.35,128.86 0,32.211 10.18,61.742 27.09,84.832"
         style="fill:#100f0d;fill-opacity:1;fill-rule:nonzero;stroke:none"
         id="path134" /><path
         d="m 1707.76,786.359 c 7.57,-3.23 46.48,-5.687 93.38,-5.687 44.3,0 81.49,2.187 91.86,5.16 16.68,-23.023 26.69,-52.332 26.69,-84.273 0,-51.879 -26.4,-96.84 -64.97,-119.039 -85.66,32.91 -155.61,103.429 -146.96,203.839"
         style="fill:#100f0d;fill-opacity:1;fill-rule:nonzero;stroke:none"
         id="path136" /><path
         d="m 1864.13,989.629 c 0,0 -44,-19.477 -90.93,-14.27 0,0 113.43,-44.308 112.92,-314.117 0,0 65.99,168.008 -21.99,328.387"
         style="fill:#433397;fill-opacity:1;fill-rule:nonzero;stroke:none"
         id="path138" /><path
         d="m 1833.05,979.789 c 0.89,-1.289 1.76,-2.488 2.68,-3.84 3.8,-5.41 7.34,-11.629 11.33,-18.09 3.54,-6.687 7.76,-13.507 11.05,-21.097 1.75,-3.75 3.54,-7.563 5.34,-11.41 1.59,-3.95 3.2,-7.95 4.81,-11.993 3.45,-7.968 5.89,-16.468 8.75,-24.82 2.71,-8.387 4.47,-17.059 6.7,-25.457 1.85,-8.48 3.14,-16.941 4.68,-25.051 1.27,-8.16 1.79,-16.16 2.6,-23.679 1.01,-7.52 0.66,-14.723 0.97,-21.313 0.1,-6.598 0.56,-12.648 0.01,-18.008 -0.32,-5.34 -0.6,-10.011 -0.83,-13.851 -0.47,-7.66 -0.74,-12.051 -0.74,-12.051 0,0 0.04,4.391 0.08,12.082 0.02,3.84 0.05,8.5 0.08,13.84 0.24,5.34 -0.55,11.351 -0.79,17.898 -0.52,6.551 -0.39,13.692 -1.62,21.121 -1.05,7.461 -1.83,15.34 -3.12,23.41 -1.59,8.051 -2.96,16.411 -4.88,24.782 -2.3,8.289 -4.11,16.847 -6.86,25.129 -2.77,8.3 -5.09,16.73 -8.43,24.668 -1.56,4 -3.11,7.98 -4.64,11.902 -1.74,3.84 -3.47,7.621 -5.16,11.348 -3.27,7.523 -7.16,14.421 -10.48,21.171 -3.75,6.5 -7.08,12.801 -10.7,18.282 -0.99,1.578 -1.94,3.047 -2.9,4.547 0.7,0.152 1.38,0.32 2.07,0.48"
         style="fill:#100f0d;fill-opacity:1;fill-rule:nonzero;stroke:none"
         id="path140" /><path
         d="m 1589.89,2764.11 c 0,-24.16 -19.57,-43.73 -43.72,-43.73 -24.15,0 -43.73,19.57 -43.73,43.73 0,24.14 19.58,43.73 43.73,43.73 24.15,0 43.72,-19.59 43.72,-43.73"
         style="fill:#f9b01a;fill-opacity:1;fill-rule:nonzero;stroke:none"
         id="path142" /><path
         d="m 1803.43,2885.55 c 0,-55.64 -45.11,-100.76 -100.76,-100.76 -55.65,0 -100.77,45.12 -100.77,100.76 0,55.65 45.12,100.77 100.77,100.77 55.65,0 100.76,-45.12 100.76,-100.77"
         style="fill:#f9b01a;fill-opacity:1;fill-rule:nonzero;stroke:none"
         id="path144" /><path
         d="m 2616.48,919.609 c -1.07,0 -2.14,0.411 -2.96,1.231 l -70.71,70.719 c -1.63,1.632 -1.63,4.281 0,5.91 1.64,1.64 4.29,1.64 5.93,0 l 70.7,-70.699 c 1.64,-1.641 1.64,-4.29 0,-5.93 -0.82,-0.82 -1.89,-1.231 -2.96,-1.231"
         style="fill:#e3dccf;fill-opacity:1;fill-rule:nonzero;stroke:none"
         id="path146" /><path
         d="m 2545.77,919.609 c -1.07,0 -2.14,0.411 -2.96,1.231 -1.63,1.64 -1.63,4.289 0,5.93 l 70.71,70.699 c 1.64,1.64 4.29,1.64 5.92,0 1.64,-1.629 1.64,-4.278 0,-5.91 l -70.7,-70.719 c -0.82,-0.82 -1.89,-1.231 -2.97,-1.231"
         style="fill:#e3dccf;fill-opacity:1;fill-rule:nonzero;stroke:none"
         id="path148" /><path
         d="m 2824.14,1121.62 c 0,-46.62 -37.8,-84.42 -84.43,-84.42 -46.62,0 -84.43,37.8 -84.43,84.42 0,46.63 37.81,84.44 84.43,84.44 46.63,0 84.43,-37.81 84.43,-84.44"
         style="fill:#e3dccf;fill-opacity:1;fill-rule:nonzero;stroke:none"
         id="path150" /><path
         d="m 2641.34,1297.97 c -51.94,0 -94.19,-42.25 -94.19,-94.19 0,-51.93 42.25,-94.19 94.19,-94.19 51.93,0 94.18,42.26 94.18,94.19 0,51.94 -42.25,94.19 -94.18,94.19 z m 0,-196.76 c -56.56,0 -102.57,46.02 -102.57,102.57 0,56.55 46.01,102.57 102.57,102.57 56.56,0 102.56,-46.02 102.56,-102.57 0,-56.55 -46,-102.57 -102.56,-102.57"
         style="fill:#e3dccf;fill-opacity:1;fill-rule:nonzero;stroke:none"
         id="path152" /><path
         d="m 5150.58,1413.12 c -19.99,0 -36.25,-16.26 -36.25,-36.24 0,-19.98 16.26,-36.24 36.25,-36.24 19.98,0 36.24,16.26 36.24,36.24 0,19.98 -16.26,36.24 -36.24,36.24 z m 0,-81.84 c -25.15,0 -45.61,20.45 -45.61,45.6 0,25.14 20.46,45.6 45.61,45.6 25.13,0 45.59,-20.46 45.59,-45.6 0,-25.15 -20.46,-45.6 -45.59,-45.6"
         style="fill:#e3dccf;fill-opacity:1;fill-rule:nonzero;stroke:none"
         id="path154" /><path
         d="m 5316.99,1616.45 3.52,-98.12 3.51,-98.11 -86.72,46.01 -86.73,46.02 83.21,52.1 83.21,52.1"
         style="fill:#e3dccf;fill-opacity:1;fill-rule:nonzero;stroke:none"
         id="path156" /><path
         d="m 3823.24,3083.93 -66.58,-60.72 -66.59,-60.72 -19.29,88.02 -19.3,88.03 85.88,-27.31 85.88,-27.3"
         style="fill:#6bc3ef;fill-opacity:1;fill-rule:nonzero;stroke:none"
         id="path158" /><path
         d="m 735.668,1889.76 c -1.277,0 -2.559,0.49 -3.535,1.46 l -84.395,84.4 c -1.953,1.95 -1.953,5.11 0,7.07 1.953,1.95 5.117,1.95 7.071,0 l 84.394,-84.4 c 1.953,-1.95 1.953,-5.11 0,-7.07 -0.976,-0.97 -2.254,-1.46 -3.535,-1.46"
         style="fill:#100f0d;fill-opacity:1;fill-rule:nonzero;stroke:none"
         id="path160" /><path
         d="m 651.273,1889.76 c -1.277,0 -2.558,0.49 -3.535,1.46 -1.953,1.96 -1.953,5.12 0,7.07 l 84.395,84.4 c 1.953,1.95 5.117,1.95 7.07,0 1.953,-1.96 1.953,-5.12 0,-7.07 l -84.394,-84.4 c -0.977,-0.97 -2.254,-1.46 -3.536,-1.46"
         style="fill:#100f0d;fill-opacity:1;fill-rule:nonzero;stroke:none"
         id="path162" /><path
         d="M 877.523,2210.1 H 773.82 v 103.7 h 103.703 v -103.7"
         style="fill:#100f0d;fill-opacity:1;fill-rule:nonzero;stroke:none"
         id="path164" /><path
         d="m 4144,768.539 c 0.68,0.93 -0.7,-0.91 0,0 10.28,2.621 45.87,7.293 85.66,7.293 37.26,0 71.87,-5.441 84.2,-7.812 0.96,-1.219 -0.93,1.269 0,0 -9.5,-2.719 -43.59,-4.731 -84.2,-4.731 -43.12,0 -78.88,2.27 -85.66,5.25"
         style="fill:#423734;fill-opacity:1;fill-rule:nonzero;stroke:none"
         id="path166" /><path
         d="m 4132.82,983.41 c 3.67,-2.691 59.45,-141.668 67.63,-185 6.76,-35.808 18.61,-121.531 18.61,-121.531 l -10.08,0.473 c 0,0 -22.56,132.8 -29.82,168.14 -10.39,50.559 -53.47,141.11 -53.47,141.11 l 7.13,-3.192"
         style="fill:#100f0d;fill-opacity:1;fill-rule:nonzero;stroke:none"
         id="path168" /><path
         d="m 4132.82,983.41 c 0,0 28.28,10.738 32.05,24.48 3.77,13.73 -38.15,8.66 -50.91,19.95 -12.79,11.32 -24.12,12.45 -50.57,14.25 -26.46,1.81 -50.11,4.76 -64.88,-0.91 -2.38,-0.9 7.71,1.45 17.07,-6.74 26.23,-22.99 59.71,-21.68 78.73,-32.93 17.95,-10.608 30.48,-13.951 38.51,-18.1"
         style="fill:#100f0d;fill-opacity:1;fill-rule:nonzero;stroke:none"
         id="path170" /><path
         d="m 4318.72,886.02 c -3.67,-2.711 -59.44,-141.668 -67.63,-185.008 -6.76,-35.813 -18.62,-121.532 -18.62,-121.532 l 10.09,0.45 c 0,0 22.57,132.82 29.82,168.16 10.4,50.562 53.48,141.109 53.48,141.109 l -7.14,-3.179"
         style="fill:#100f0d;fill-opacity:1;fill-rule:nonzero;stroke:none"
         id="path172" /><path
         d="m 4318.72,886.02 c 0,0 -28.28,10.742 -32.06,24.472 -3.77,13.738 38.16,8.649 50.93,19.957 12.78,11.321 24.1,12.442 50.56,14.25 26.46,1.813 50.1,4.762 64.89,-0.918 2.37,-0.91 -7.73,1.449 -17.08,-6.742 -26.23,-22.98 -59.71,-21.687 -78.71,-32.937 -17.95,-10.602 -30.49,-13.942 -38.53,-18.082"
         style="fill:#100f0d;fill-opacity:1;fill-rule:nonzero;stroke:none"
         id="path174" /><path
         d="m 4258.63,699.121 c -3.05,32.969 -19.57,138.211 -15.24,231.84 2.26,49.461 33.47,214.719 50.02,251.219 9.72,21.4 18.17,37.65 23.6,46.22 1.04,3.26 15.6,11.65 6.77,-3.62 -8.85,-15.27 -44.56,-69.48 -68.33,-272.62 -11.49,-98.109 21.75,-320.148 24,-324.801 2.24,-4.66 -10.42,-8.609 -10.42,-8.609 -6.98,53.949 -7.66,50.801 -10.4,80.371"
         style="fill:#100f0d;fill-opacity:1;fill-rule:nonzero;stroke:none"
         id="path176" /><path
         d="m 4328.59,1228.4 c 0,0 60.84,80.12 121.69,114.59 60.85,34.48 123.73,49.91 141.99,87.83 18.25,37.92 -40.57,9.71 -62.87,3.54 -22.32,-6.18 -50.22,-8.69 -83.16,-12.56 -33.47,-3.93 -130.06,-43.57 -141.98,-91.5 -10.27,-41.25 -4.05,-82.63 24.33,-101.9"
         style="fill:#433397;fill-opacity:1;fill-rule:nonzero;stroke:none"
         id="path178" /><path
         d="m 4301.49,1316.81 c 0,0 -30.2,-56.33 -15.74,-83.02 14.46,-26.69 34.61,-15.45 34.61,-15.45 l 8.23,10.06 c 0,0 -32.82,21.15 -27.1,88.41"
         style="fill:#100f0d;fill-opacity:1;fill-rule:nonzero;stroke:none"
         id="path180" /><path
         d="m 4284.24,1404.5 -23.39,-38.6 c 0,0 -50.99,16.38 -50.99,38.6 0,22.23 -6.31,15.2 -14.51,19.88 -8.18,4.68 -7.02,19.89 0,31.58 7.01,11.7 -5.55,13.75 -11.4,19.59 -5.85,5.85 -24.56,48.24 49.41,71.64 31.46,9.95 29.83,2.34 39.19,0 9.35,-2.34 -29.25,-76.03 11.69,-142.69"
         style="fill:#100f0d;fill-opacity:1;fill-rule:nonzero;stroke:none"
         id="path182" /><path
         d="m 4290.09,1404.5 c 0,0 -32.75,7.02 -28.07,26.89 4.68,19.89 5.85,36.27 -7.02,49.13 -12.86,12.87 8.19,83.05 35.09,109.94 26.9,26.91 94.73,60.69 118.12,79.47 23.39,18.78 51.47,23.84 81.88,38.28 30.4,14.42 91.23,62.37 92.4,89.27 1.16,26.9 19.88,-42.89 -25.73,-89.27 -45.63,-46.4 -161.41,-137.62 -178.95,-166.86 -17.55,-29.25 -77.19,-102.94 -87.72,-136.85"
         style="fill:#433397;fill-opacity:1;fill-rule:nonzero;stroke:none"
         id="path184" /><path
         d="m 4293.04,1412.25 c 0,0 -42.63,-74.42 -62.17,-341.1 -5.73,-78.158 16.12,-305.529 16.12,-305.529 l -12.78,0.07 c 0,0 -18.6,230.571 -11.58,309.549 7.02,78.96 32.73,274.25 38.22,290.66 9.91,29.67 32.19,46.35 32.19,46.35"
         style="fill:#100f0d;fill-opacity:1;fill-rule:nonzero;stroke:none"
         id="path186" /><path
         d="m 4137.33,1100.72 22.08,-26.31 c 0,0 36.44,18.24 33.85,34.95 -2.58,16.72 2.99,12.17 8.61,16.64 5.61,4.47 2.96,15.77 -3.67,23.75 -6.64,7.99 2.58,10.98 6.29,16.06 3.72,5.09 12.86,39.15 -45.5,48.14 -24.82,3.82 -22.7,-1.72 -29.47,-4.56 -6.76,-2.86 30.84,-53.77 7.81,-108.67"
         style="fill:#100f0d;fill-opacity:1;fill-rule:nonzero;stroke:none"
         id="path188" /><path
         d="m 4132.93,1100.03 c 0,0 23.81,9.08 17.99,23.5 -5.84,14.4 -8.61,26.58 -0.44,37.75 8.17,11.17 -15.82,61.52 -39.17,78.62 -23.37,17.09 -78.32,34.61 -98.1,46.02 -19.77,11.4 -41.48,11.93 -66.03,19.25 -24.54,7.31 -75.87,36.31 -79.87,56.39 -4.02,20.11 -9.97,-34.56 29.73,-64.14 39.71,-29.59 137.4,-84.73 154,-104.68 16.59,-19.95 70.03,-68.43 81.89,-92.71"
         style="fill:#433397;fill-opacity:1;fill-rule:nonzero;stroke:none"
         id="path190" /><path
         d="m 4129.82,1105.52 c 0,0 40.71,-51.01 86.43,-249.301 13.41,-58.117 23.42,-231.668 23.42,-231.668 l 9.61,1.539 c 0,0 -12.84,175.57 -27.32,234.152 -14.46,58.578 -56.51,202.468 -62.55,214.168 -10.9,21.15 -29.59,31.11 -29.59,31.11"
         style="fill:#100f0d;fill-opacity:1;fill-rule:nonzero;stroke:none"
         id="path192" /><path
         d="m 4108.61,1288.85 c 0,0 55.45,-109.79 72.38,-208.46 16.93,-98.691 50.88,-385.488 50.07,-406.519 -0.8,-21.062 13.9,1.699 13.9,1.699 0,0 -43.72,377.53 -64.65,454.55 -21.96,80.83 -62.49,159.87 -62.49,159.87 l -9.21,-1.14"
         style="fill:#100f0d;fill-opacity:1;fill-rule:nonzero;stroke:none"
         id="path194" /><path
         d="m 3969.55,1505.57 c 0,0 87.84,-31.67 98.03,-46.05 10.17,-14.38 40.15,-52.72 46.51,-70.4 6.38,-17.67 28.51,-16.22 35.48,-20.61 6.95,-4.4 11.37,-44.29 18.12,-58.75 6.75,-14.45 11.63,-26.92 9.16,-38.18 -2.46,-11.25 -23.39,-25.77 -31.43,-19.42 -8.03,6.36 -91.17,126.12 -125.36,141.06 -34.19,14.93 -66.01,16.9 -77.54,44.39 -7.29,17.37 15.4,57.62 27.03,67.96"
         style="fill:#100f0d;fill-opacity:1;fill-rule:nonzero;stroke:none"
         id="path196" /><path
         d="m 3970.13,1500.78 c 0,0 68.52,-93.72 101.61,-132.97 33.09,-39.25 66.6,-91.67 66.6,-91.67 0,0 -96.44,126.34 -103.79,134.7 -7.35,8.38 -57.22,80.49 -64.42,89.94"
         style="fill:#100f0d;fill-opacity:1;fill-rule:nonzero;stroke:none"
         id="path198" /><path
         d="m 4125.97,1247.4 c 0,0 16.59,-3.12 22.13,8.65 5.52,11.76 -13.09,42.26 -22.64,50.55 -9.55,8.29 -9.38,28.05 -12.09,31.71 -5.53,7.46 -77.52,36.84 -76.5,51.01 1,14.17 -46.29,18.9 -70.88,24.56 -11.1,2.55 46.04,-19.71 80.96,-55.93 26.13,-27.08 62.3,-54.84 79.02,-110.55"
         style="fill:#433397;fill-opacity:1;fill-rule:nonzero;stroke:none"
         id="path200" /><path
         d="m 4321.73,1080.43 c -22.12,-56.74 -93.19,-357.52 -93.6,-376.871 -0.41,-19.379 -20.79,-8.707 -20.79,-8.707 0,0 93.75,371.438 111.35,395.678 32.33,44.53 12.01,12.92 3.04,-10.1"
         style="fill:#100f0d;fill-opacity:1;fill-rule:nonzero;stroke:none"
         id="path202" /><path
         d="m 4372.58,1058.6 c 0,0 -34.92,-6.19 -49.22,20.58 -14.29,26.76 -13.03,35.84 -9.9,42.87 3.13,7.01 -11.12,20.8 -11.12,20.8 0,0 -3.42,26.46 14.12,46.55 17.56,20.07 22.8,15.98 33.39,26.23 10.59,10.23 25.16,49.79 60.96,56.16 6.56,1.16 12.7,-2.31 12.7,-2.31 0,0 12.59,13.63 44.08,20.5 31.49,6.88 34.61,13.91 45.23,22.64 10.64,8.73 25.27,9.81 30.36,21.72 5.11,11.9 7.65,-44.22 -3.96,-61.12 -11.61,-16.91 -26.82,-34.21 -30.3,-50.59 -3.86,-18.15 -12.82,-37.73 -22.84,-45.97 -2.65,-2.18 -40.78,-22.41 -52.78,-47.17 -11.6,-23.93 -22.23,-55.15 -60.72,-70.89"
         style="fill:#433397;fill-opacity:1;fill-rule:nonzero;stroke:none"
         id="path204" /><path
         d="m 4531.13,1306.35 c 0,0 -200.73,-168.19 -212.52,-217.74 l 4.75,-9.43 c 0,0 9.55,28.94 33.46,54.9 57.85,62.89 140.47,137.88 174.31,172.27"
         style="fill:#100f0d;fill-opacity:1;fill-rule:nonzero;stroke:none"
         id="path206" /><path
         d="m 4146.26,767.719 c 11.01,-2.547 43.82,-4.41 82.72,-4.418 40.53,0.008 74.57,2.019 84.05,4.75 15.29,-21.09 -6.96,-55.301 -6.96,-84.582 0,-47.528 7.22,-81.387 -28.06,-101.727 0.03,-0.012 0.06,-0.023 0.09,-0.043 -5.73,-3.289 -11.76,-6 -18.02,-8.14 -66.1,36.332 -97.12,118.773 -113.82,194.16"
         style="fill:#100f0d;fill-opacity:1;fill-rule:nonzero;stroke:none"
         id="path208" /><path
         d="m 4144.89,768.051 c 0.4,-0.121 0.89,-0.231 1.37,-0.332 16.7,-75.387 47.72,-157.828 113.82,-194.16 -0.83,-0.289 -1.65,-0.598 -2.49,-0.86 h -28.61 -28.63 c -7.17,2.231 -14.03,5.27 -20.52,9 0.03,0.02 0.06,0.031 0.09,0.043 -35.27,20.34 -28.05,54.199 -28.05,101.727 0,29.281 -22.25,63.492 -6.98,84.582"
         style="fill:#100f0d;fill-opacity:1;fill-rule:nonzero;stroke:none"
         id="path210" /><path
         d="m 4486.19,1895.96 -76.77,-17.87 -52.2,10.92 c -3.16,0.66 -5.2,-3.25 -2.84,-5.45 l 23,-21.63 -49.44,-25.1 c -11.91,-6.05 -18.1,-19.49 -14.92,-32.47 v 0 c 3.67,-15.06 18.63,-24.5 33.81,-21.34 l 166.28,42.67 -26.92,70.27"
         style="fill:#f03c7a;fill-opacity:1;fill-rule:nonzero;stroke:none"
         id="path212" /><path
         d="m 4486.02,841.551 45.33,-119.582 c 12.05,-31.758 -2.16,-67.477 -32.74,-82.278 l -131.31,-63.609 8.26,-2.062 c 50.49,-12.629 103.43,-11.54 153.36,3.14 l 82.5,24.27 v -40.02 h 29.34 l 18.33,57.5 c 4.67,14.672 4.65,30.43 -0.08,45.082 l -66.28,205.567 -106.71,-28.008"
         style="fill:#f03c7a;fill-opacity:1;fill-rule:nonzero;stroke:none"
         id="path214" /><path
         d="m 5075.99,858.582 100.49,-79.102 c 26.69,-21 32.92,-58.929 14.36,-87.378 l -79.73,-122.211 8.15,2.5 c 49.77,15.211 94.58,43.429 129.78,81.75 l 58.19,63.32 20.62,-34.281 25.15,15.121 -13.94,58.719 c -3.55,14.98 -11.7,28.472 -23.3,38.589 l -162.77,141.981 -77,-79.008"
         style="fill:#f03c7a;fill-opacity:1;fill-rule:nonzero;stroke:none"
         id="path216" /><path
         d="m 4530.04,1607.26 -156.28,-259.77 c -26.16,-43.48 -32.39,-96.11 -17.1,-144.5 l 122.69,-388.119 128.06,24.008 -62.91,332.491 c -7.56,39.98 0.85,81.33 23.42,115.19 l 188.9,283.34 -226.78,37.36"
         style="fill:#6bc3ef;fill-opacity:1;fill-rule:nonzero;stroke:none"
         id="path218" /><path
         d="m 4786.16,1567.24 18.72,-435.07 c 1.68,-39.2 18.72,-76.17 47.43,-102.93 l 230.01,-214.369 106.71,109.379 -147.69,196.92 c -23.58,31.44 -35.88,69.91 -34.92,109.19 l 9.2,376.9 -229.46,-40.02"
         style="fill:#6bc3ef;fill-opacity:1;fill-rule:nonzero;stroke:none"
         id="path220" /><path
         d="m 4794.15,1381.57 218.51,-40.63 -217.21,10.4 z"
         style="fill:#100f0d;fill-opacity:1;fill-rule:nonzero;stroke:none"
         id="path222" /><path
         d="m 4529.78,671.84 v 0 c -6.12,-13.61 -16.81,-25.199 -31.17,-32.149 l -131.31,-63.609 8.26,-2.062 c 50.49,-12.629 103.43,-11.54 153.36,3.14 l 82.5,24.27 v -40.02 h 29.34 l 18.33,57.5 c 4.67,14.672 4.65,30.43 -0.08,45.082 -77.17,-56.773 -129.23,7.848 -129.23,7.848"
         style="fill:#433397;fill-opacity:1;fill-rule:nonzero;stroke:none"
         id="path224" /><path
         d="m 5249.04,654.141 58.19,63.32 20.62,-34.281 25.15,15.121 -13.94,58.719 c -3.55,14.98 -11.7,28.472 -23.3,38.589 l -0.74,0.653 c -37.38,-76.41 -114.11,-59.981 -114.11,-59.981 1.92,-14.98 -1.23,-30.64 -10.07,-44.179 l -79.73,-122.211 8.15,2.5 c 49.77,15.211 94.58,43.429 129.78,81.75"
         style="fill:#433397;fill-opacity:1;fill-rule:nonzero;stroke:none"
         id="path226" /><path
         d="m 3575.94,1631.6 223.9,171.55 -111.95,105.79 -172.08,-226.91 60.13,-50.43"
         style="fill:#433397;fill-opacity:1;fill-rule:nonzero;stroke:none"
         id="path228" /><path
         d="m 3782.26,2147.08 c 0,-43.75 -35.47,-79.22 -79.22,-79.22 -43.75,0 -79.21,35.47 -79.21,79.22 0,43.75 35.46,79.21 79.21,79.21 43.75,0 79.22,-35.46 79.22,-79.21"
         style="fill:#433397;fill-opacity:1;fill-rule:nonzero;stroke:none"
         id="path230" /><path
         d="m 3634.25,2451.5 9.28,-89.49 c 2.58,-25.01 22.86,-44.48 47.95,-46.07 l 51.59,-3.28 45.24,-110.38 98.53,79.38 -50.82,120.23 -6.56,67.32 -97.42,22.36 -97.79,-40.07"
         style="fill:#f03c7a;fill-opacity:1;fill-rule:nonzero;stroke:none"
         id="path232" /><path
         d="m 3641.65,2526.35 -2.15,0.59 c -16.53,4.58 -34.07,-2.65 -42.59,-17.54 v 0 c -8.87,-15.52 -5.57,-35.14 7.89,-46.9 l 3.48,-3.05 c 7.15,-6.24 16.39,-9.55 25.87,-9.25 l 97.17,3.02 v 0 c -6.45,-21.68 0.13,-45.14 16.9,-60.31 l 4.17,-3.77 23.86,26.24 13.51,-32.96 c 0.04,-0.09 0.07,-0.19 0.11,-0.28 5.41,-12.89 18.7,-20.68 32.66,-20.47 l 30.28,0.47 -13.13,48.31 c 0.27,7.42 -2.22,-1.17 1.52,5.24 l 22.63,38.78 -63.32,54.79 -158.86,17.09"
         style="fill:#433397;fill-opacity:1;fill-rule:nonzero;stroke:none"
         id="path234" /><path
         d="m 3703.58,2533.56 c 7.05,-17.18 -1.18,-36.82 -18.35,-43.87 -17.19,-7.04 -36.83,1.18 -43.87,18.37 -7.04,17.18 1.17,36.82 18.36,43.87 17.18,7.04 36.82,-1.19 43.86,-18.37"
         style="fill:#433397;fill-opacity:1;fill-rule:nonzero;stroke:none"
         id="path236" /><path
         d="m 3759.83,2533.25 c 7.05,-17.18 -1.18,-36.82 -18.36,-43.86 -17.18,-7.05 -36.83,1.17 -43.87,18.36 -7.04,17.18 1.18,36.82 18.37,43.86 17.18,7.04 36.81,-1.18 43.86,-18.36"
         style="fill:#433397;fill-opacity:1;fill-rule:nonzero;stroke:none"
         id="path238" /><path
         d="m 3816.4,2520.09 c 7.04,-17.18 -1.18,-36.83 -18.36,-43.87 -17.19,-7.04 -36.83,1.18 -43.87,18.37 -7.05,17.18 1.17,36.82 18.36,43.87 17.19,7.04 36.83,-1.18 43.87,-18.37"
         style="fill:#433397;fill-opacity:1;fill-rule:nonzero;stroke:none"
         id="path240" /><path
         d="m 3862.2,2486.51 c 10.14,-24.76 -1.7,-53.06 -26.46,-63.21 -24.76,-10.14 -53.05,1.7 -63.2,26.46 -10.15,24.75 1.7,53.05 26.45,63.2 24.76,10.15 53.06,-1.7 63.21,-26.45"
         style="fill:#433397;fill-opacity:1;fill-rule:nonzero;stroke:none"
         id="path242" /><path
         d="m 3776.14,2366.89 v 0 c -12.13,2.43 -20.07,14.33 -17.63,26.47 l 1.35,6.79 c 2.44,12.13 14.35,20.07 26.48,17.64 v 0 c 12.13,-2.44 20.07,-14.34 17.64,-26.48 l -1.36,-6.79 c -2.43,-12.12 -14.34,-20.06 -26.48,-17.63"
         style="fill:#f03c7a;fill-opacity:1;fill-rule:nonzero;stroke:none"
         id="path244" /><path
         d="m 3790.98,2314.98 -47.91,-2.32 6.07,-14.82 z"
         style="fill:#100f0d;fill-opacity:1;fill-rule:nonzero;stroke:none"
         id="path246" /><path
         d="m 3698.53,2237.12 250.59,82.99 c 64.79,21.45 134.28,-15.99 151.98,-81.89 l 196.82,-732.34 h -501.58 l -130.56,675.36 c -4.68,24.21 9.34,48.13 32.75,55.88"
         style="fill:#6bc3ef;fill-opacity:1;fill-rule:nonzero;stroke:none"
         id="path248" /><path
         d="m 1374.95,1889.94 -92.38,353.69 -0.04,-0.02 c -7.94,29.94 -35.16,52.87 -69.19,52.62 -30.18,-0.22 -57.54,-20.38 -66.51,-49.19 -6.03,-19.38 -3.51,-38.6 4.86,-54.46 l -0.03,-0.01 97.58,-285.87 c 14.69,-43.01 42.35,-80.4 79.17,-107.02 l 237.66,-171.82 37.15,58.89 -228.27,203.19"
         style="fill:#100f0d;fill-opacity:1;fill-rule:nonzero;stroke:none"
         id="path250" /><path
         d="m 1569.67,1716.61 61.86,-48.84 51.88,-12.36 c 3.14,-0.74 3.32,-5.14 0.25,-6.14 l -30.02,-9.78 34.05,-43.75 c 8.2,-10.54 8.07,-25.34 -0.32,-35.73 v 0 c -9.74,-12.07 -27.29,-14.24 -39.68,-4.91 l -132.28,109.39 54.26,52.12"
         style="fill:#100f0d;fill-opacity:1;fill-rule:nonzero;stroke:none"
         id="path252" /><path
         d="M 728.145,1425.83 399.98,591.559 h 48.024 l 21.191,53.703 94.868,-53.703 h 116.054 l -15.203,15.203 C 648.43,623.242 626.066,632.5 602.75,632.5 v 0 l -45.375,87.191 c -6.637,12.75 -6.301,28.008 0.898,40.45 l 412.661,713.719 -242.789,-48.03"
         style="fill:#f03c7a;fill-opacity:1;fill-rule:nonzero;stroke:none"
         id="path254" /><path
         d="m 602.75,632.5 -45.375,87.191 c -6.637,12.75 -6.301,28.008 0.898,40.45 L 649.551,918.02 H 528.395 L 399.98,591.559 h 48.024 l 21.187,53.711 94.872,-53.711 h 116.054 l -15.203,15.203 C 648.43,623.242 626.066,632.5 602.75,632.5"
         style="fill:#433397;fill-opacity:1;fill-rule:nonzero;stroke:none"
         id="path256" /><path
         d="m 1009.62,1432.5 217.44,-300.14 -162.75,-526.649 h 46.02 l 20.68,53.711 85.38,-53.711 h 144.07 l -7.19,11.129 c -17.14,26.539 -46.58,42.582 -78.19,42.582 v 0 l -61.06,58.379 c -17.25,16.48 -21.82,42.258 -11.28,63.679 l 164.76,334.73 c 17.53,35.63 18.53,77.16 2.72,113.6 l -124.49,286.74 -236.11,-84.05"
         style="fill:#f03c7a;fill-opacity:1;fill-rule:nonzero;stroke:none"
         id="path258" /><path
         d="m 1275.08,659.422 -61.06,58.379 c -17.25,16.48 -21.81,42.258 -11.28,63.679 l 67.21,136.54 h -109.13 l -96.51,-312.309 h 46.02 l 20.68,53.711 85.38,-53.711 h 144.07 l -7.19,11.129 c -17.14,26.539 -46.58,42.582 -78.19,42.582"
         style="fill:#433397;fill-opacity:1;fill-rule:nonzero;stroke:none"
         id="path260" /><path
         d="m 1319.52,2564.57 c -7.51,1.86 -14.94,1.81 -21.85,0.19 -5.86,-1.38 -11.9,0.71 -15.39,5.62 -8.67,12.19 -22.16,20.88 -38.17,22.96 -19.22,2.49 -37.4,-5.14 -49.21,-18.77 -6.35,-7.33 -16.33,-10.09 -25.74,-7.78 -5.1,1.25 -10.5,1.8 -16.15,1.52 -23.19,-1.16 -43.58,-17.18 -50.34,-39.4 -1.96,-6.43 -2.66,-12.79 -2.34,-18.96 0.28,-5.35 -3.64,-10.18 -8.94,-11.03 -25.24,-4.06 -44.26,-29.97 -33.86,-60.03 5.21,-15.06 19.35,-25.24 35.23,-26.49 l 0.09,-0.01 c 10.12,-10.35 24.3,-16.91 40.5,-16.77 24.4,0.21 46.31,16.97 52.87,40.48 2.88,10.33 2.7,20.57 0.14,29.94 9.16,5.98 16.5,14.62 20.87,24.99 6.65,-4.2 14.25,-7.1 22.56,-8.18 14.89,-1.93 29.15,2.24 40.33,10.53 7.19,-10.43 18.58,-17.91 32.14,-19.68 27.08,-3.5 51.72,17.13 52.28,45.22 0.42,21.27 -14.37,40.55 -35.02,45.65"
         style="fill:#6bc3ef;fill-opacity:1;fill-rule:nonzero;stroke:none"
         id="path262" /><path
         d="m 1152.82,2446.17 -34.66,-132.78 c -7.48,-28.65 10.17,-57.82 39.01,-64.51 v 0 c 28.21,-6.53 56.39,10.96 63.05,39.13 l 27.74,117.29 -95.14,40.87"
         style="fill:#f03c7a;fill-opacity:1;fill-rule:nonzero;stroke:none"
         id="path264" /><path
         d="m 1184.64,2395.96 c 10.47,-33.35 53.03,-34.19 53.03,-34.19 v 0 l 9.51,40.25 c -29,7.99 -69.36,15.65 -62.54,-6.06"
         style="fill:#100f0d;fill-opacity:1;fill-rule:nonzero;stroke:none"
         id="path266" /><path
         d="m 1214.39,2374.76 v 0 c -38.31,4.97 -65.59,40.38 -60.62,78.69 l 2.43,18.72 c 4.96,38.31 40.38,65.6 78.69,60.63 v 0 c 38.31,-4.98 65.6,-40.39 60.63,-78.7 l -2.43,-18.72 c -4.96,-38.31 -40.38,-65.59 -78.7,-60.62"
         style="fill:#f03c7a;fill-opacity:1;fill-rule:nonzero;stroke:none"
         id="path268" /><path
         d="m 1154.71,2460.73 c 0.8,0.07 2.02,0.41 3.5,0.93 12.94,4.55 23.43,14.25 29.52,26.55 l 3.65,7.38 c 6.76,13.63 22.12,20.68 36.86,16.92 l 99.64,-25.42 -4.15,78.59 -54.65,-21.99 -103.51,0.74 -22.06,-50 11.2,-33.7"
         style="fill:#6bc3ef;fill-opacity:1;fill-rule:nonzero;stroke:none"
         id="path270" /><path
         d="m 1149.54,2441.09 c -11.22,-4.68 -24.74,2.14 -30.2,15.24 -5.45,13.1 -0.78,27.5 10.45,32.18 11.23,4.68 24.75,-2.15 30.2,-15.25 5.45,-13.09 0.78,-27.5 -10.45,-32.17"
         style="fill:#f03c7a;fill-opacity:1;fill-rule:nonzero;stroke:none"
         id="path272" /><path
         d="m 1245,2289.56 -142.06,31.59 c -67.74,15.07 -132.006,-36.47 -132.006,-105.85 v -322.87 0 c -95.411,-67.45 -167.188,-163.2 -205.192,-273.69 l -85.625,-248.93 h 453.563 v 66.7 l 48.02,-66.7 h 144.08 l -130.74,373.52 109.39,257.52 37.58,20.99 c 22.6,12.63 30.48,41.33 17.48,63.72 l -63.06,108.66 v 0 c 15.47,40.81 -8.83,85.86 -51.43,95.34"
         style="fill:#433397;fill-opacity:1;fill-rule:nonzero;stroke:none"
         id="path274" /><path
         d="m 2333.61,1755.6 61.95,-40.66 53.33,0.8 c 3.22,0.05 4.48,-4.17 1.75,-5.89 l -26.69,-16.87 43.77,-34.02 c 10.54,-8.21 14.06,-22.58 8.48,-34.72 v 0 c -6.47,-14.09 -22.95,-20.52 -37.25,-14.52 l -152.72,63.95 47.38,81.93"
         style="fill:#f03c7a;fill-opacity:1;fill-rule:nonzero;stroke:none"
         id="path276" /><path
         d="m 2132.56,1899.85 -179.03,369.22 -0.04,-0.01 c -10.45,25.99 -35.85,44.36 -65.58,44.36 -39.05,0 -70.7,-31.65 -70.7,-70.7 0,-15.01 4.71,-28.91 12.69,-40.36 l -0.03,-0.02 221.97,-396.19 245.58,-141.09 42.69,90.71 -207.55,144.08"
         style="fill:#100f0d;fill-opacity:1;fill-rule:nonzero;stroke:none"
         id="path278" /><path
         d="m 2300.96,1782.95 -45.33,-93.88 41.79,-24.01 42.69,90.71 -39.15,27.18"
         style="fill:#e3dccf;fill-opacity:1;fill-rule:nonzero;stroke:none"
         id="path280" /><path
         d="m 263.891,916.129 c -11.309,0 -20.77,8.84 -21.407,20.281 -0.656,11.82 8.407,21.949 20.243,22.621 2.097,0.11 211,12.59 296.406,89.609 22.051,19.89 47.371,43.42 76.691,70.67 62.344,57.94 139.934,130.04 239.219,216.63 149.387,130.29 328.987,228.51 519.357,284.02 l 39.67,11.58 c 133.36,38.89 271.42,57.33 410.31,54.82 l 251.38,-4.55 c 56.24,-1.01 113.16,1.57 169.1,7.68 11.82,1.26 22.38,-7.21 23.67,-19 1.29,-11.78 -7.22,-22.38 -19,-23.67 -57.74,-6.31 -116.46,-8.97 -174.54,-7.93 l -251.4,4.55 c -134.52,2.42 -268.3,-15.44 -397.5,-53.12 l -39.67,-11.57 c -184.44,-53.79 -358.43,-148.93 -503.162,-275.16 -98.774,-86.15 -176.09,-157.99 -238.215,-215.73 -29.441,-27.36 -54.871,-50.99 -77.16,-71.09 -96.668,-87.18 -313.602,-100.098 -322.789,-100.61 -0.403,-0.019 -0.805,-0.031 -1.203,-0.031"
         style="fill:#100f0d;fill-opacity:1;fill-rule:nonzero;stroke:none"
         id="path282" /><path
         d="m 2651.27,2035.34 -177.01,-37.63 c -148.5,-35.19 -241.68,-183.49 -207.07,-329.55 v 0 c 34.62,-146.07 184.43,-236.79 332.93,-201.6 l 177,37.63 -125.85,531.15"
         style="fill:#100f0d;fill-opacity:1;fill-rule:nonzero;stroke:none"
         id="path284" /><path
         d="m 2777.31,1514.73 c 22.97,42.73 25.29,147.48 2.65,265.9 -23.58,123.32 -66.85,222.87 -105.15,249.69 l -2.72,13.7 -21.02,-6.9 c -42.55,-8.13 -53.82,-136.16 -25.18,-285.96 28.65,-149.79 86.36,-264.62 128.9,-256.49 1.64,0.31 3.21,0.87 4.76,1.53 l 20.15,6.48 -2.39,12.05"
         style="fill:#433397;fill-opacity:1;fill-rule:nonzero;stroke:none"
         id="path286" /><path
         d="m 1538.47,607.109 c -23.24,27.852 -58.73,44.391 -96.35,47.371 -0.58,0.051 -1.15,0.102 -1.72,0.161 -20.68,1.941 -37.49,10.179 -49.82,21.961 -9.21,8.796 -10.54,23.078 -3.63,33.777 l 82.89,128.5 -112.05,16.012 -141.4,-263.332 h 333.5 c -3.48,5.41 -7.29,10.601 -11.42,15.55"
         style="fill:#f03c7a;fill-opacity:1;fill-rule:nonzero;stroke:none"
         id="path288" /><path
         d="M 2242.6,840.719 V 772.32 c 0,-54.05 41.38,-99.101 95.22,-103.679 v 0 c 35.22,-2.993 68.44,-19.52 90.19,-47.379 3.87,-4.942 7.43,-10.133 10.68,-15.551 h -312.15 v 235.008 h 116.06"
         style="fill:#f03c7a;fill-opacity:1;fill-rule:nonzero;stroke:none"
         id="path290" /><path
         d="m 2126.54,678.539 18.48,-3.48 c 42.69,-8.047 86.53,6.32 116.17,38.082 v 0 c 17.04,-24.559 44.34,-41.582 76.11,-44.45 35.56,-3.199 69.01,-19.511 90.92,-47.691 3.78,-4.859 7.28,-9.969 10.47,-15.289 h -312.15 v 72.828"
         style="fill:#100f0d;fill-opacity:1;fill-rule:nonzero;stroke:none"
         id="path292" /><path
         d="M 3329.98,840.719 V 772.32 c 0,-54.05 -41.38,-99.101 -95.22,-103.679 v 0 c -35.22,-2.993 -68.44,-19.52 -90.19,-47.379 -3.87,-4.942 -7.43,-10.133 -10.68,-15.551 h 312.15 v 235.008 h -116.06"
         style="fill:#f03c7a;fill-opacity:1;fill-rule:nonzero;stroke:none"
         id="path294" /><path
         d="m 3446.04,678.539 -18.48,-3.48 c -42.7,-8.047 -86.52,6.32 -116.17,38.082 v 0 c -17.03,-24.559 -44.34,-41.582 -76.12,-44.45 -35.55,-3.199 -69,-19.511 -90.91,-47.691 -3.78,-4.859 -7.28,-9.969 -10.47,-15.289 h 312.15 v 72.828"
         style="fill:#100f0d;fill-opacity:1;fill-rule:nonzero;stroke:none"
         id="path296" /><path
         d="M 3743.06,840.719 V 772.32 c 0,-54.05 -41.38,-99.101 -95.23,-103.679 v 0 c -35.21,-2.993 -68.43,-19.52 -90.18,-47.379 -3.87,-4.942 -7.43,-10.133 -10.69,-15.551 h 312.16 v 235.008 h -116.06"
         style="fill:#f03c7a;fill-opacity:1;fill-rule:nonzero;stroke:none"
         id="path298" /><path
         d="m 3859.12,678.539 -18.48,-3.48 c -42.7,-8.047 -86.53,6.32 -116.18,38.082 v 0 c -17.03,-24.559 -44.33,-41.582 -76.11,-44.45 -35.56,-3.199 -69,-19.511 -90.92,-47.691 -3.78,-4.859 -7.27,-9.969 -10.47,-15.289 h 312.16 v 72.828"
         style="fill:#100f0d;fill-opacity:1;fill-rule:nonzero;stroke:none"
         id="path300" /><path
         d="m 1832.65,2448.2 -17.3,-136.14 c -3.73,-29.37 17.52,-56.04 46.99,-58.95 v 0 c 28.81,-2.86 54.5,18.11 57.48,46.9 l 12.43,119.88 -99.6,28.31"
         style="fill:#f03c7a;fill-opacity:1;fill-rule:nonzero;stroke:none"
         id="path302" /><path
         d="m 1870.66,2402.49 c 14.68,-31.73 56.98,-27.08 56.98,-27.08 v 0 l 4.26,41.14 c -29.79,4.19 -70.8,6.6 -61.24,-14.06"
         style="fill:#100f0d;fill-opacity:1;fill-rule:nonzero;stroke:none"
         id="path304" /><path
         d="m 1954.83,2575.45 c -7.25,-3.02 -15.13,-4.23 -22.96,-3.53 l -62.26,5.49 c -35.84,3.16 -66.07,-26.37 -63.76,-62.28 1.46,-22.63 23.3,-88.02 23.3,-94.46 l 157.62,168.01 -31.94,-13.23"
         style="fill:#100f0d;fill-opacity:1;fill-rule:nonzero;stroke:none"
         id="path306" /><path
         d="m 1902.9,2385.3 v 0 c -38.64,0 -70.25,31.61 -70.25,70.24 v 18.87 c 0,38.63 31.61,70.24 70.25,70.24 v 0 c 38.63,0 70.24,-31.61 70.24,-70.24 v -18.87 c 0,-38.63 -31.61,-70.24 -70.24,-70.24"
         style="fill:#f03c7a;fill-opacity:1;fill-rule:nonzero;stroke:none"
         id="path308" /><path
         d="m 2041.35,2551.65 c 0,-22.29 -18.07,-40.37 -40.36,-40.37 -22.29,0 -40.36,18.08 -40.36,40.37 0,22.3 18.07,40.36 40.36,40.36 22.29,0 40.36,-18.06 40.36,-40.36"
         style="fill:#100f0d;fill-opacity:1;fill-rule:nonzero;stroke:none"
         id="path310" /><path
         d="m 1832.65,2462.87 c 0.79,0.18 1.95,0.68 3.35,1.38 12.25,6.17 21.4,17.15 25.86,30.12 l 2.68,7.79 c 4.94,14.39 19.27,23.36 34.37,21.52 l 102.08,-12.4 -14.22,77.4 -51.37,-28.82 -102.75,-12.58 -15.44,-52.42 15.44,-31.99"
         style="fill:#100f0d;fill-opacity:1;fill-rule:nonzero;stroke:none"
         id="path312" /><path
         d="m 1830.05,2442.73 c -10.53,-6.09 -24.82,-1.05 -31.91,11.24 -7.09,12.28 -4.31,27.17 6.23,33.25 10.53,6.07 24.82,1.04 31.9,-11.24 7.1,-12.29 4.31,-27.17 -6.22,-33.25"
         style="fill:#f03c7a;fill-opacity:1;fill-rule:nonzero;stroke:none"
         id="path314" /><path
         d="m 4762.02,2380.19 -207.55,-56.64 c -38.66,-10.56 -78.64,11.85 -89.82,50.34 v 0 c -7.81,26.89 0.36,55.9 21.07,74.76 v 0 c 5.28,4.8 7.39,12.17 5.44,19.04 l -2.86,10.1 c -10.13,35.76 2.53,74.08 31.96,96.77 l 3.77,2.89 c 22.19,17.11 50.04,25.15 77.92,22.51 v 0 c 39.45,-3.73 73.88,-28.27 90.27,-64.34 l 10.56,-23.23 42.27,-0.43 c 34.37,-0.36 62.92,-26.65 66.09,-60.88 v 0 c 3.01,-32.43 -17.71,-62.33 -49.12,-70.89"
         style="fill:#100f0d;fill-opacity:1;fill-rule:nonzero;stroke:none"
         id="path316" /><path
         d="m 4574.59,2392.72 19.9,-106.36 c 5.82,-31.09 35.53,-51.74 66.69,-46.36 v 0 c 31.75,5.48 52.9,35.86 47.02,67.54 l -27.85,150.14"
         style="fill:#f03c7a;fill-opacity:1;fill-rule:nonzero;stroke:none"
         id="path318" /><path
         d="m 4578.97,2369.34 c 20.14,2.59 52.68,9.81 67.3,30.02 10.3,14.22 -11.93,15.94 -38.47,13.76 l -33.21,-20.4 4.38,-23.38"
         style="fill:#100f0d;fill-opacity:1;fill-rule:nonzero;stroke:none"
         id="path320" /><path
         d="m 4620.07,2387.26 v 0 c 39.58,8.38 65.12,47.62 56.74,87.2 l -4.09,19.33 c -8.38,39.58 -47.62,65.12 -87.2,56.74 v 0 c -39.58,-8.38 -65.12,-47.62 -56.74,-87.2 l 4.09,-19.33 c 8.38,-39.58 47.62,-65.11 87.2,-56.74"
         style="fill:#f03c7a;fill-opacity:1;fill-rule:nonzero;stroke:none"
         id="path322" /><path
         d="m 4503.73,2495.13 c 0,0 65,-8.34 77.34,48.48 0,0 24.51,-39.82 69.43,-27.42 0,0 -0.1,-49.97 42.79,-54.25 l -17.24,76.29 -54.15,39.84 -66.26,-6.13 -47.91,-43.39 -4,-33.42"
         style="fill:#100f0d;fill-opacity:1;fill-rule:nonzero;stroke:none"
         id="path324" /><path
         d="m 4672.47,2453.18 c 12.96,-4.22 27.45,4.61 32.38,19.73 4.94,15.12 -1.58,30.8 -14.54,35.02 -12.96,4.23 -27.46,-4.61 -32.39,-19.72 -4.92,-15.12 1.58,-30.81 14.55,-35.03"
         style="fill:#f03c7a;fill-opacity:1;fill-rule:nonzero;stroke:none"
         id="path326" /><path
         d="m 862.102,2809.48 h -263.7 c -40.472,0 -73.593,-33.12 -73.593,-73.59 v -120.6 c 0,-40.48 33.121,-73.6 73.593,-73.6 h 263.7 c 0.046,0 0.089,0 0.136,0 8.051,0.02 15.43,-4.44 18.559,-11.86 l 54.898,-130.21 v 215.67 50.07 70.53 c 0,40.47 -33.117,73.59 -73.593,73.59"
         style="fill:#e3dccf;fill-opacity:1;fill-rule:nonzero;stroke:none"
         id="path328" /><path
         d="M 850.414,2722.97 H 605.512 c -7.309,0 -13.289,5.98 -13.289,13.29 v 0 c 0,7.31 5.98,13.28 13.289,13.28 h 244.902 c 7.313,0 13.293,-5.97 13.293,-13.28 v 0 c 0,-7.31 -5.98,-13.29 -13.293,-13.29"
         style="fill:#433397;fill-opacity:1;fill-rule:nonzero;stroke:none"
         id="path330" /><path
         d="m 636.543,2698.44 h -30.566 c -6.051,0 -11.704,-3.84 -13.27,-9.68 -2.371,-8.84 4.32,-16.89 12.805,-16.89 h 31.031 c 7.34,0 13.293,5.94 13.293,13.29 v 0 c 0,7.33 -5.953,13.28 -13.293,13.28"
         style="fill:#433397;fill-opacity:1;fill-rule:nonzero;stroke:none"
         id="path332" /><path
         d="M 849.953,2698.44 H 673.379 c -7.34,0 -13.285,-5.95 -13.285,-13.28 v 0 c 0,-7.35 5.945,-13.29 13.285,-13.29 h 177.043 c 8.476,0 15.168,8.05 12.801,16.89 -1.571,5.84 -7.223,9.68 -13.27,9.68"
         style="fill:#433397;fill-opacity:1;fill-rule:nonzero;stroke:none"
         id="path334" /><path
         d="M 727.965,2620.76 H 605.512 c -7.309,0 -13.289,5.98 -13.289,13.29 v 0 c 0,7.31 5.98,13.29 13.289,13.29 h 122.453 c 7.308,0 13.285,-5.98 13.285,-13.29 v 0 c 0,-7.31 -5.977,-13.29 -13.285,-13.29"
         style="fill:#433397;fill-opacity:1;fill-rule:nonzero;stroke:none"
         id="path336" /><path
         d="M 850.414,2620.76 H 763.98 c -7.304,0 -13.285,5.98 -13.285,13.29 v 0 c 0,7.31 5.981,13.29 13.285,13.29 h 86.434 c 7.313,0 13.293,-5.98 13.293,-13.29 v 0 c 0,-7.31 -5.98,-13.29 -13.293,-13.29"
         style="fill:#433397;fill-opacity:1;fill-rule:nonzero;stroke:none"
         id="path338" /><path
         d="m 5186.92,2808.12 h -211.57 c -40.47,0 -73.58,-33.12 -73.58,-73.6 v -57.08 c 0,-34.46 -23.13,-64.64 -56.41,-73.62 l -80.55,-21.73 h 210.54 71.55 140.02 c 40.48,0 73.6,33.12 73.6,73.59 v 78.84 c 0,40.48 -33.12,73.6 -73.6,73.6"
         style="fill:#e3dccf;fill-opacity:1;fill-rule:nonzero;stroke:none"
         id="path340" /><path
         d="m 4964.06,2657.29 h 244.92 c 7.3,0 13.28,-5.98 13.28,-13.29 v 0 c 0,-7.31 -5.98,-13.28 -13.28,-13.28 h -244.92 c -7.3,0 -13.28,5.97 -13.28,13.28 v 0 c 0,7.31 5.98,13.29 13.28,13.29"
         style="fill:#100f0d;fill-opacity:1;fill-rule:nonzero;stroke:none"
         id="path342" /><path
         d="m 5177.94,2681.82 h 30.57 c 6.05,0 11.7,3.83 13.27,9.68 2.37,8.83 -4.33,16.89 -12.8,16.89 h -31.04 c -7.34,0 -13.29,-5.95 -13.29,-13.29 v 0 c 0,-7.33 5.95,-13.28 13.29,-13.28"
         style="fill:#100f0d;fill-opacity:1;fill-rule:nonzero;stroke:none"
         id="path344" /><path
         d="m 4964.53,2681.82 h 176.57 c 7.34,0 13.29,5.95 13.29,13.28 v 0 c 0,7.34 -5.95,13.29 -13.29,13.29 h -177.04 c -8.47,0 -15.17,-8.06 -12.8,-16.89 1.57,-5.85 7.22,-9.68 13.27,-9.68"
         style="fill:#100f0d;fill-opacity:1;fill-rule:nonzero;stroke:none"
         id="path346" /><path
         d="m 5086.51,2759.5 h 122.47 c 7.3,0 13.28,-5.98 13.28,-13.3 v 0 c 0,-7.3 -5.98,-13.28 -13.28,-13.28 h -122.47 c -7.3,0 -13.28,5.98 -13.28,13.28 v 0 c 0,7.32 5.98,13.3 13.28,13.3"
         style="fill:#100f0d;fill-opacity:1;fill-rule:nonzero;stroke:none"
         id="path348" /><path
         d="m 4964.06,2759.5 h 86.44 c 7.31,0 13.29,-5.98 13.29,-13.3 v 0 c 0,-7.3 -5.98,-13.28 -13.29,-13.28 h -86.44 c -7.3,0 -13.28,5.98 -13.28,13.28 v 0 c 0,7.32 5.98,13.3 13.28,13.3"
         style="fill:#100f0d;fill-opacity:1;fill-rule:nonzero;stroke:none"
         id="path350" /><path
         d="m 4356.12,2600.5 v 142.73 c 0,40.47 -33.11,73.6 -73.58,73.6 h -120.62 c -40.46,0 -73.58,-33.13 -73.58,-73.6 V 2600.5 c 0,-0.05 0,-0.09 0,-0.14 0.02,-8.04 -4.44,-15.43 -11.86,-18.55 l -130.21,-54.9 h 215.65 50.09 70.53 c 40.47,0 73.58,33.11 73.58,73.59"
         style="fill:#e3dccf;fill-opacity:1;fill-rule:nonzero;stroke:none"
         id="path352" /><path
         d="M 4318.91,2644 H 4131.9 c -7.3,0 -13.29,-5.98 -13.29,-13.28 v 0 c 0,-7.32 5.99,-13.3 13.29,-13.3 h 187.01 c 7.3,0 13.29,5.98 13.29,13.3 v 0 c 0,7.3 -5.99,13.28 -13.29,13.28"
         style="fill:#6bc3ef;fill-opacity:1;fill-rule:nonzero;stroke:none"
         id="path354" /><path
         d="m 4162.94,2668.53 h -30.57 c -6.05,0 -11.71,3.84 -13.27,9.68 -2.37,8.83 4.32,16.89 12.8,16.89 h 31.04 c 7.33,0 13.28,-5.95 13.28,-13.28 v 0 c 0,-7.34 -5.95,-13.29 -13.28,-13.29"
         style="fill:#6bc3ef;fill-opacity:1;fill-rule:nonzero;stroke:none"
         id="path356" /><path
         d="m 4318.44,2668.53 h -118.66 c -7.35,0 -13.3,5.95 -13.3,13.29 v 0 c 0,7.33 5.95,13.28 13.3,13.28 h 119.13 c 8.48,0 15.17,-8.06 12.8,-16.89 -1.56,-5.84 -7.22,-9.68 -13.27,-9.68"
         style="fill:#6bc3ef;fill-opacity:1;fill-rule:nonzero;stroke:none"
         id="path358" /><path
         d="m 4196.46,2746.2 h -64.56 c -7.3,0 -13.29,-5.97 -13.29,-13.28 v 0 c 0,-7.31 5.99,-13.29 13.29,-13.29 h 64.56 c 7.3,0 13.28,5.98 13.28,13.29 v 0 c 0,7.31 -5.98,13.28 -13.28,13.28"
         style="fill:#6bc3ef;fill-opacity:1;fill-rule:nonzero;stroke:none"
         id="path360" /><path
         d="m 4318.91,2746.2 h -86.44 c -7.3,0 -13.29,-5.97 -13.29,-13.28 v 0 c 0,-7.31 5.99,-13.29 13.29,-13.29 h 86.44 c 7.3,0 13.29,5.98 13.29,13.29 v 0 c 0,7.31 -5.99,13.28 -13.29,13.28"
         style="fill:#6bc3ef;fill-opacity:1;fill-rule:nonzero;stroke:none"
         id="path362" /><path
         d="m 1946.16,2311.08 -136.56,20.83 c -52.89,8.07 -102.86,-26.62 -113.78,-79 L 1573.9,1668.63 h 370.85 l 73.96,545.47 c 6.33,46.71 -25.96,89.88 -72.55,96.98"
         style="fill:#e3dccf;fill-opacity:1;fill-rule:nonzero;stroke:none"
         id="path364" /><path
         d="m 1595.24,1668.63 -53.36,-408.21 -216.1,-416.209 146.74,-24.012 237.5,383.671 c 3.51,5.66 6.3,11.74 8.32,18.1 l 66.33,209.2 328.16,-264.13 V 804.191 h 160.09 v 375.039 c 0,37.1 -12.15,73.17 -34.58,102.73 l -293.59,386.67 h -349.51"
         style="fill:#433397;fill-opacity:1;fill-rule:nonzero;stroke:none"
         id="path366" /><path
         d="m 2242.4,1735.15 61.95,-40.66 53.33,0.81 c 3.22,0.04 4.48,-4.17 1.75,-5.9 l -26.7,-16.87 43.78,-34.02 c 10.54,-8.2 14.06,-22.58 8.48,-34.72 v 0 c -6.47,-14.09 -22.94,-20.52 -37.25,-14.52 l -152.72,63.96 47.38,81.92"
         style="fill:#f03c7a;fill-opacity:1;fill-rule:nonzero;stroke:none"
         id="path368" /><path
         d="m 2041.35,1879.4 -179.03,369.23 -0.04,-0.02 c -10.45,25.99 -35.85,44.36 -65.58,44.36 -39.05,0 -70.7,-31.66 -70.7,-70.7 0,-15.02 4.71,-28.92 12.7,-40.36 l -0.04,-0.02 221.97,-396.19 245.58,-141.09 42.69,90.71 -207.55,144.08"
         style="fill:#100f0d;fill-opacity:1;fill-rule:nonzero;stroke:none"
         id="path370" /><path
         d="m 2209.75,1762.5 -45.34,-93.87 41.8,-24.02 42.69,90.71 -39.15,27.18"
         style="fill:#e3dccf;fill-opacity:1;fill-rule:nonzero;stroke:none"
         id="path372" /><path
         d="m 4750.95,1882.17 -268.24,-74.01 -31.74,94.74 284.48,80.85"
         style="fill:#100f0d;fill-opacity:1;fill-rule:nonzero;stroke:none"
         id="path374" /><path
         d="m 2804.87,1788.63 c 28.65,-149.79 17.38,-277.82 -25.17,-285.95 -42.54,-8.14 -100.25,106.7 -128.89,256.49 -28.64,149.8 -17.37,277.81 25.17,285.95 42.55,8.13 100.25,-106.7 128.89,-256.49"
         style="fill:#6bc3ef;fill-opacity:1;fill-rule:nonzero;stroke:none"
         id="path376" /><path
         d="m 3369.19,1634.55 176.98,37.75 c 148.48,35.27 241.57,183.63 206.87,329.68 v 0 c -34.7,146.04 -184.57,236.67 -333.05,201.39 l -176.98,-37.74 126.18,-531.08"
         style="fill:#100f0d;fill-opacity:1;fill-rule:nonzero;stroke:none"
         id="path378" /><path
         d="m 3767.24,2092.1 -66.81,41.83 -29.08,44.71 c -1.76,2.7 -5.97,1.39 -5.87,-1.84 l 0.89,-31.56 -52.66,17.35 c -12.68,4.18 -26.58,-0.92 -33.54,-12.31 v 0 c -8.09,-13.24 -4.23,-30.5 8.72,-39.03 l 147.52,-87.78 30.83,68.63"
         style="fill:#f03c7a;fill-opacity:1;fill-rule:nonzero;stroke:none"
         id="path380" /><path
         d="m 3242.83,2155.1 c -22.95,-42.75 -25.2,-147.5 -2.49,-265.9 23.66,-123.31 66.99,-222.83 105.31,-249.64 l 2.73,-13.69 21.02,6.92 c 42.53,8.15 53.73,136.19 25,285.96 -28.75,149.78 -86.52,264.57 -129.06,256.42 -1.64,-0.31 -3.21,-0.87 -4.76,-1.53 l -20.15,-6.49 2.4,-12.05"
         style="fill:#433397;fill-opacity:1;fill-rule:nonzero;stroke:none"
         id="path382" /><path
         d="m 3215.43,1881.17 c -28.73,149.78 -17.54,277.82 25,285.98 42.54,8.16 100.32,-106.64 129.05,-256.42 28.73,-149.77 17.54,-277.81 -25,-285.97 -42.54,-8.16 -100.31,106.64 -129.05,256.41"
         style="fill:#6bc3ef;fill-opacity:1;fill-rule:nonzero;stroke:none"
         id="path384" /><path
         d="m 3297.07,1999.47 c 0,-16.95 -10.75,-30.68 -24.01,-30.68 -13.26,0 -24.01,13.73 -24.01,30.68 0,16.94 10.75,30.67 24.01,30.67 13.26,0 24.01,-13.73 24.01,-30.67"
         style="fill:#100f0d;fill-opacity:1;fill-rule:nonzero;stroke:none"
         id="path386" /><path
         d="m 3345.1,1781.12 c 0,-16.95 -10.75,-30.68 -24.02,-30.68 -13.26,0 -24.01,13.73 -24.01,30.68 0,16.94 10.75,30.67 24.01,30.67 13.27,0 24.02,-13.73 24.02,-30.67"
         style="fill:#100f0d;fill-opacity:1;fill-rule:nonzero;stroke:none"
         id="path388" /><path
         d="m 3796.34,1505.88 -407.29,-164.09 c -58.37,-23.52 -96.59,-80.13 -96.59,-143.06 V 790.852 h 181.06 l 13.34,402.868 658.87,120.64 c 56.17,10.29 95.51,61.34 91.13,118.28 l -5.64,73.24 h -434.88"
         style="fill:#100f0d;fill-opacity:1;fill-rule:nonzero;stroke:none"
         id="path390" /><path
         d="m 3719.21,790.852 h 175.8 l 0.05,424.208 232.06,53.05 c 83.83,19.16 136,102.95 116.2,186.63 l -12.1,51.14 -528.18,-272.58 16.17,-442.448"
         style="fill:#100f0d;fill-opacity:1;fill-rule:nonzero;stroke:none"
         id="path392" /><path
         d="m 3746.74,2253.09 43.69,-50.86 8.14,68.03 57.8,-59.27 57.12,97.32 -166.75,-55.22"
         style="fill:#e3dccf;fill-opacity:1;fill-rule:nonzero;stroke:none"
         id="path394" /><path
         d="m 4575.34,2325.65 112,40.5 c 67.27,24.31 142.45,-0.86 181.49,-60.8 v 0 c 31.54,-48.41 50.44,-103.96 54.97,-161.56 l 19.77,-251.36 v 0 c 74.24,-91.87 114.73,-206.42 114.73,-324.54 v -235.44 l -645.65,120.07 248.12,417.54 -69.36,188.1 -34.55,11.87 c -27.7,9.52 -41.85,40.23 -31.1,67.46 l 6.83,17.31 c 8.81,22.31 11.5,46.59 7.79,70.29 l -5.13,32.82 c -4.58,29.27 12.23,57.67 40.09,67.74"
         style="fill:#433397;fill-opacity:1;fill-rule:nonzero;stroke:none"
         id="path396" /><path
         d="m 4715.85,2373.37 c -9.58,-1.5 -19.12,-3.84 -28.51,-7.22 l -112.01,-40.49 c -4.91,-1.79 -9.46,-4.16 -13.64,-6.99 16.23,-23.67 40.17,-38.71 66.92,-38.71 43.95,0 80.32,40.44 87.24,93.41"
         style="fill:#f03c7a;fill-opacity:1;fill-rule:nonzero;stroke:none"
         id="path398" /><path
         d="m 5691.93,694.73 c -3.51,0 -7.06,1 -10.19,3.102 l -172.86,115.387 c -176.58,117.863 -329.05,264.971 -453.13,437.241 -203.17,282.07 -483.09,494.36 -809.52,613.9 l -313.39,114.76 c -55.72,20.4 -117.69,22.27 -174.52,5.23 -9.73,-2.93 -19.98,2.61 -22.9,12.34 -2.92,9.74 2.61,19.99 12.34,22.9 64.39,19.3 134.61,17.19 197.73,-5.92 l 313.39,-114.76 c 333.37,-122.08 619.25,-338.87 826.73,-626.93 121.5,-168.7 270.79,-312.75 443.7,-428.171 L 5702.17,728.43 c 8.45,-5.629 10.72,-17.059 5.08,-25.508 -3.55,-5.313 -9.38,-8.192 -15.32,-8.192"
         style="fill:#100f0d;fill-opacity:1;fill-rule:nonzero;stroke:none"
         id="path400" /><path
         d="m 1856.94,2074.2 38.17,244.67 -85.51,13.04 c -52.89,8.07 -102.86,-26.62 -113.78,-79 l -112.88,-540.97 v 0 c 146.3,67.17 249.19,203.2 274,362.26"
         style="fill:#100f0d;fill-opacity:1;fill-rule:nonzero;stroke:none"
         id="path402" /><path
         d="m 1784.67,1431.17 30.26,85.38 17.72,-124 z"
         style="fill:#100f0d;fill-opacity:1;fill-rule:nonzero;stroke:none"
         id="path404" /><path
         d="m 1549.89,591.559 c -3.48,5.41 -7.29,10.601 -11.42,15.55 -23.24,27.852 -58.72,44.391 -96.35,47.371 -0.58,0.051 -1.15,0.102 -1.72,0.161 -17.75,1.668 -32.63,7.988 -44.29,17.199 -58.56,-34.438 -117.12,-26.649 -146.77,-18.93 l -32.95,-61.351 h 333.5"
         style="fill:#100f0d;fill-opacity:1;fill-rule:nonzero;stroke:none"
         id="path406" /><path
         d="m 1340.09,821.93 h 118.82 l -108.72,18.789 z"
         style="fill:#100f0d;fill-opacity:1;fill-rule:nonzero;stroke:none"
         id="path408" /><path
         d="M 2126.54,804.191 H 2242.6 L 2126.54,787.512 Z"
         style="fill:#100f0d;fill-opacity:1;fill-rule:nonzero;stroke:none"
         id="path410" /><path
         d="m 2702.91,1870.96 c -9.88,0 -18.76,6.85 -20.96,16.89 -2.52,11.59 4.81,23.03 16.4,25.55 l 349.71,76.36 c 11.56,2.51 23.01,-4.81 25.54,-16.39 2.53,-11.58 -4.8,-23.03 -16.38,-25.55 l -349.71,-76.35 c -1.55,-0.34 -3.09,-0.51 -4.6,-0.51"
         style="fill:#433397;fill-opacity:1;fill-rule:nonzero;stroke:none"
         id="path412" /><path
         d="m 2758.14,1637.33 c -9.87,0 -18.76,6.84 -20.95,16.88 -2.53,11.58 4.81,23.03 16.39,25.55 l 349.71,76.36 c 11.56,2.52 23.02,-4.81 25.55,-16.39 2.53,-11.58 -4.81,-23.02 -16.39,-25.55 l -349.71,-76.36 c -1.54,-0.34 -3.08,-0.49 -4.6,-0.49"
         style="fill:#433397;fill-opacity:1;fill-rule:nonzero;stroke:none"
         id="path414" /><path
         d="m 1262.2,1888.34 -92.38,353.67 -0.04,-0.01 c -7.94,29.95 -35.16,52.88 -69.19,52.63 -30.17,-0.22 -57.55,-20.39 -66.51,-49.19 -6.03,-19.38 -3.51,-38.6 4.86,-54.46 l -0.04,-0.02 97.59,-285.86 c 14.69,-43.01 42.35,-80.4 79.17,-107.02 l 237.66,-171.82 37.15,58.89 -228.27,203.19"
         style="fill:#f03c7a;fill-opacity:1;fill-rule:nonzero;stroke:none"
         id="path416" /><path
         d="m 1456.92,1715.01 61.86,-48.85 51.88,-12.35 c 3.14,-0.74 3.32,-5.15 0.25,-6.14 l -30.02,-9.78 34.05,-43.75 c 8.2,-10.54 8.07,-25.34 -0.32,-35.74 v 0 c -9.74,-12.06 -27.29,-14.23 -39.68,-4.91 l -132.29,109.4 54.27,52.12"
         style="fill:#f03c7a;fill-opacity:1;fill-rule:nonzero;stroke:none"
         id="path418" /><path
         d="m 696.367,1345.05 214.406,24.76 H 706.105 Z"
         style="fill:#100f0d;fill-opacity:1;fill-rule:nonzero;stroke:none"
         id="path420" /><path
         d="m 1072.97,1345.05 236.46,24.76 H 1181.7 l -48.02,66.7 v -66.7 h -78.64 l 17.93,-24.76"
         style="fill:#100f0d;fill-opacity:1;fill-rule:nonzero;stroke:none"
         id="path422" /><path
         d="m 3927.07,2220.9 58.03,-221.43 -188.1,105.38 -64.02,-124.07 297.01,-173.37 c 70.82,-41.32 156.53,22.71 136.97,102.34 l -87.28,352.37"
         style="fill:#433397;fill-opacity:1;fill-rule:nonzero;stroke:none"
         id="path424" /><path
         d="m 3742.62,1999.47 -39.58,30.67 43.7,86.71 43.69,-24.75 -47.81,-92.63"
         style="fill:#e3dccf;fill-opacity:1;fill-rule:nonzero;stroke:none"
         id="path426" /><path
         d="m 4083.58,2237.53 c 0,-43.74 -35.46,-79.21 -79.2,-79.21 -43.75,0 -79.22,35.47 -79.22,79.21 0,43.75 35.47,79.22 79.22,79.22 43.74,0 79.2,-35.47 79.2,-79.22"
         style="fill:#433397;fill-opacity:1;fill-rule:nonzero;stroke:none"
         id="path428" /><path
         d="m 3505.53,1642.22 -36.59,13.6 37.7,10.92 7.34,68.58 c 1.37,12.72 11.44,22.75 24.16,24.07 v 0 c 13.12,1.35 25.31,-6.94 28.87,-19.63 l 19.34,-68.88 c 5.45,-19.42 -4.4,-39.86 -22.98,-47.7 l -5.4,-2.28 c -20.37,-8.59 -43.85,0.95 -52.44,21.32 v 0"
         style="fill:#f03c7a;fill-opacity:1;fill-rule:nonzero;stroke:none"
         id="path430" /><path
         d="m 3985.1,1999.47 34.61,-25.63 -44.15,62.02 z"
         style="fill:#100f0d;fill-opacity:1;fill-rule:nonzero;stroke:none"
         id="path432" /><path
         d="m 2112.83,1167.04 27.76,-23.14 -27.76,5.36 z"
         style="fill:#100f0d;fill-opacity:1;fill-rule:nonzero;stroke:none"
         id="path434" /><path
         d="m 1541.88,1260.42 v -46.77 l -12.14,23.39 z"
         style="fill:#100f0d;fill-opacity:1;fill-rule:nonzero;stroke:none"
         id="path436" /><path
         d="m 4729.95,1807.69 -58.55,-52.78 -50.98,-15.7 c -3.08,-0.95 -2.97,-5.35 0.16,-6.14 l 30.59,-7.8 -31.13,-45.88 c -7.5,-11.06 -6.41,-25.81 2.65,-35.64 v 0 c 10.49,-11.4 28.15,-12.43 39.91,-2.32 l 124.89,117.77 -57.54,48.49"
         style="fill:#f03c7a;fill-opacity:1;fill-rule:nonzero;stroke:none"
         id="path438" /><path
         d="m 4875.68,2010.73 -127.61,247.15 0.04,0.02 c -17.22,22.1 -20.34,53.29 -5.39,79 19.62,33.76 62.9,45.21 96.66,25.58 12.97,-7.55 22.61,-18.6 28.5,-31.26 l 0.04,0.02 144.74,-342.26 -226.5,-253.83 -74.41,76.64 163.93,198.94"
         style="fill:#100f0d;fill-opacity:1;fill-rule:nonzero;stroke:none"
         id="path440" /><path
         d="m 4412.65,1412.14 243.63,-4.93 -221.79,41.24 z"
         style="fill:#100f0d;fill-opacity:1;fill-rule:nonzero;stroke:none"
         id="path442" /><path
         d="m 4591.41,2058.16 30.31,-9.71 -23.2,-9.57 z"
         style="fill:#100f0d;fill-opacity:1;fill-rule:nonzero;stroke:none"
         id="path444" /><path
         d="m 4495.02,817.809 107.88,20.222 -99.72,-41.769 z"
         style="fill:#100f0d;fill-opacity:1;fill-rule:nonzero;stroke:none"
         id="path446" /><path
         d="m 5103.68,836.77 75.81,77.699 -54.29,-94.617 z"
         style="fill:#100f0d;fill-opacity:1;fill-rule:nonzero;stroke:none"
         id="path448" /><path
         d="m 3292.46,2740.58 c 0,-251.27 -203.7,-454.97 -454.97,-454.97 -251.27,0 -454.96,203.7 -454.96,454.97 0,251.27 203.69,454.96 454.96,454.96 251.27,0 454.97,-203.69 454.97,-454.96"
         style="fill:#e3dccf;fill-opacity:1;fill-rule:nonzero;stroke:none"
         id="path450" /><path
         d="m 2478.83,2698.44 c 0,-50.37 -40.84,-91.21 -91.21,-91.21 -50.37,0 -91.21,40.84 -91.21,91.21 0,50.37 40.84,91.21 91.21,91.21 50.37,0 91.21,-40.84 91.21,-91.21"
         style="fill:#e3dccf;fill-opacity:1;fill-rule:nonzero;stroke:none"
         id="path452" /><path
         d="m 3404.29,2544.65 c 0,-89.06 -72.21,-161.27 -161.28,-161.27 -89.07,0 -161.28,72.21 -161.28,161.27 0,89.07 72.21,161.28 161.28,161.28 89.07,0 161.28,-72.21 161.28,-161.28"
         style="fill:#e3dccf;fill-opacity:1;fill-rule:nonzero;stroke:none"
         id="path454" /><path
         d="m 2188.54,2617.42 c 0,-13.32 -10.81,-24.12 -24.13,-24.12 -13.32,0 -24.11,10.8 -24.11,24.12 0,13.32 10.79,24.13 24.11,24.13 13.32,0 24.13,-10.81 24.13,-24.13"
         style="fill:#e3dccf;fill-opacity:1;fill-rule:nonzero;stroke:none"
         id="path456" /><path
         d="m 3545.44,2540.98 c 0,-9.42 -7.64,-17.06 -17.05,-17.06 -9.42,0 -17.05,7.64 -17.05,17.06 0,9.41 7.63,17.05 17.05,17.05 9.41,0 17.05,-7.64 17.05,-17.05"
         style="fill:#e3dccf;fill-opacity:1;fill-rule:nonzero;stroke:none"
         id="path458" /><path
         d="m 3002.78,2735.84 c 0,-91.29 -74,-165.29 -165.29,-165.29 -91.28,0 -165.29,74 -165.29,165.29 0,91.29 74.01,165.3 165.29,165.3 91.29,0 165.29,-74.01 165.29,-165.3"
         style="fill:#f9b01a;fill-opacity:1;fill-rule:nonzero;stroke:none"
         id="path460" /><path
         d="m 2900.05,2692.59 h -26.26 v 21.62 c 0,11.93 9.71,21.63 21.63,21.63 h 4.63 c 11.93,0 21.64,-9.7 21.64,-21.63 0,-11.92 -9.71,-21.62 -21.64,-21.62 z m -98.86,0 h -26.26 c -11.93,0 -21.63,9.7 -21.63,21.62 0,11.93 9.7,21.63 21.63,21.63 h 4.64 c 11.92,0 21.62,-9.7 21.62,-21.63 z m 98.86,55.61 h -4.63 c -18.74,0 -33.98,-15.25 -33.98,-33.99 v -21.62 h -12.36 -23.17 -12.36 v 21.62 c 0,18.74 -15.24,33.99 -33.98,33.99 h -4.64 c -18.74,0 -33.99,-15.25 -33.99,-33.99 0,-18.74 15.25,-33.98 33.99,-33.98 h 26.26 v -115.86 h 12.36 v 115.86 h 12.36 23.17 12.36 v -115.86 h 12.35 v 115.86 h 26.26 c 18.75,0 33.99,15.24 33.99,33.98 0,18.74 -15.24,33.99 -33.99,33.99"
         style="fill:#100f0d;fill-opacity:1;fill-rule:nonzero;stroke:none"
         id="path462" /><path
         d="m 2766.59,2586 c -0.04,-1.04 -0.16,-2.05 -0.16,-3.1 v -81.86 c 0,-39.08 31.98,-71.07 71.06,-71.07 h 0.01 c 39.08,0 71.05,31.99 71.05,71.07 v 81.86 c 0,1.05 -0.11,2.06 -0.16,3.1 h -141.8"
         style="fill:#100f0d;fill-opacity:1;fill-rule:nonzero;stroke:none"
         id="path464" /><path
         d="m 2840.74,2392.9 h -6.49 c -7.56,0 -13.75,6.18 -13.75,13.75 v 46.65 c 0,7.56 6.19,13.75 13.75,13.75 h 6.49 c 7.56,0 13.75,-6.19 13.75,-13.75 v -46.65 c 0,-7.57 -6.19,-13.75 -13.75,-13.75"
         style="fill:#100f0d;fill-opacity:1;fill-rule:nonzero;stroke:none"
         id="path466" /><path
         d="m 2837.81,2980.17 v 0 c -4.22,0 -7.67,3.46 -7.67,7.67 v 92.52 c 0,4.22 3.45,7.67 7.67,7.67 v 0 c 4.22,0 7.67,-3.45 7.67,-7.67 v -92.52 c 0,-4.21 -3.45,-7.67 -7.67,-7.67"
         style="fill:#f9b01a;fill-opacity:1;fill-rule:nonzero;stroke:none"
         id="path468" /><path
         d="m 2498.67,2795.09 v 0 c 0,4.22 3.45,7.67 7.67,7.67 h 92.51 c 4.22,0 7.67,-3.45 7.67,-7.67 v 0 c 0,-4.22 -3.45,-7.68 -7.67,-7.68 h -92.51 c -4.22,0 -7.67,3.46 -7.67,7.68"
         style="fill:#f9b01a;fill-opacity:1;fill-rule:nonzero;stroke:none"
         id="path470" /><path
         d="m 3068.46,2795.09 v 0 c 0,4.22 3.45,7.67 7.67,7.67 h 92.51 c 4.22,0 7.68,-3.45 7.68,-7.67 v 0 c 0,-4.22 -3.46,-7.68 -7.68,-7.68 h -92.51 c -4.22,0 -7.67,3.46 -7.67,7.68"
         style="fill:#f9b01a;fill-opacity:1;fill-rule:nonzero;stroke:none"
         id="path472" /><path
         d="m 3003.95,2908.91 v 0 c -2.99,2.99 -2.99,7.86 0,10.85 l 65.41,65.41 c 2.98,2.99 7.87,2.99 10.85,0 v 0 c 2.98,-2.98 2.98,-7.86 0,-10.85 l -65.41,-65.41 c -2.99,-2.98 -7.88,-2.98 -10.85,0"
         style="fill:#f9b01a;fill-opacity:1;fill-rule:nonzero;stroke:none"
         id="path474" /><path
         d="m 2680.8,2908.91 v 0 c 2.98,2.99 2.98,7.86 0,10.85 l -65.41,65.41 c -2.99,2.99 -7.87,2.99 -10.85,0 v 0 c -2.99,-2.98 -2.99,-7.86 0,-10.85 l 65.41,-65.41 c 2.99,-2.98 7.87,-2.98 10.85,0"
         style="fill:#f9b01a;fill-opacity:1;fill-rule:nonzero;stroke:none"
         id="path476" /></g></g></svg>
