<?xml version="1.0" encoding="UTF-8" standalone="no"?>
<svg
   xmlns:dc="http://purl.org/dc/elements/1.1/"
   xmlns:cc="http://creativecommons.org/ns#"
   xmlns:rdf="http://www.w3.org/1999/02/22-rdf-syntax-ns#"
   xmlns:svg="http://www.w3.org/2000/svg"
   xmlns="http://www.w3.org/2000/svg"
   xmlns:sodipodi="http://sodipodi.sourceforge.net/DTD/sodipodi-0.dtd"
   xmlns:inkscape="http://www.inkscape.org/namespaces/inkscape"
   version="1.1"
   id="svg2"
   xml:space="preserve"
   width="742.17816"
   height="417.0708"
   viewBox="0 0 742.17817 417.0708"
   sodipodi:docname="brilliant_ideas_communication.svg"
   inkscape:version="1.0.1 (3bc2e813f5, 2020-09-07)"><metadata
     id="metadata8"><rdf:RDF><cc:Work
         rdf:about=""><dc:format>image/svg+xml</dc:format><dc:type
           rdf:resource="http://purl.org/dc/dcmitype/StillImage" /><dc:title></dc:title></cc:Work></rdf:RDF></metadata><defs
     id="defs6"><clipPath
       clipPathUnits="userSpaceOnUse"
       id="clipPath250"><path
         d="m 1720.27,1845.94 v 487.02 c 0,91.56 -74.22,165.79 -165.79,165.79 h -266.82 c -77.26,0 -139.89,-62.63 -139.89,-139.89 v -686.48 c 0,-40.06 32.47,-72.54 72.54,-72.54 h 427.43 c 35.77,0 64.77,28.99 64.77,64.77 v 0 h 270.05 v 119.16 z"
         id="path248" /></clipPath><clipPath
       clipPathUnits="userSpaceOnUse"
       id="clipPath538"><path
         d="M 4828.64,2980.58 H 4660.5 c -109.45,0 -198.18,-88.72 -198.18,-198.17 v -695.55 h 427.44 v 147.66 l 151.84,174.42 c 33.56,38.56 44.42,91.91 28.6,140.51 l -111.14,341.39 c -20.67,54.05 -72.55,89.74 -130.42,89.74 z"
         id="path536" /></clipPath></defs><sodipodi:namedview
     pagecolor="#ffffff"
     bordercolor="#666666"
     borderopacity="1"
     objecttolerance="10"
     gridtolerance="10"
     guidetolerance="10"
     inkscape:pageopacity="0"
     inkscape:pageshadow="2"
     inkscape:window-width="1920"
     inkscape:window-height="1166"
     id="namedview4"
     showgrid="false"
     inkscape:zoom="0.93242405"
     inkscape:cx="209.21355"
     inkscape:cy="43.874946"
     inkscape:window-x="-11"
     inkscape:window-y="-11"
     inkscape:window-maximized="1"
     inkscape:current-layer="g12" /><g
     id="g10"
     inkscape:groupmode="layer"
     inkscape:label="ink_ext_XXXXXX"
     transform="matrix(1.3333333,0,0,-1.3333333,-25.764533,485.48799)"><g
       id="g12"
       transform="scale(0.1)"><path
         d="M 4888.15,2086.86 H 3826.52 v 1554.3 h 1061.63 v -1554.3"
         style="fill:#f9b01a;fill-opacity:1;fill-rule:nonzero;stroke:none"
         id="path78" /><path
         d="m 1251.13,2350.86 c 0,0 -208.71,-55.68 -292.771,-247.68 -84.07,-191.99 -48.636,-328.34 -20.16,-373.77 28.465,-45.42 36.071,-196.51 4.246,-281.72 0,0 36.364,113.61 34.082,281.72 -2.257,168.14 64.243,168.15 101.993,293.11 37.74,124.96 99.1,239.7 102.51,244.24 3.39,4.56 52.26,61.36 52.26,61.36 l 17.84,22.74"
         style="fill:#f9b01a;fill-opacity:1;fill-rule:nonzero;stroke:none"
         id="path80" /><path
         d="m 777.453,1804.42 c 0,0 6.817,439.63 351.047,613.45 0,0 -83.06,-158.49 -96.06,-270.94 -13.01,-112.49 -101.616,-206.2 -135.69,-247.1 -34.109,-40.89 -119.297,-95.41 -119.297,-95.41"
         style="fill:#f9b01a;fill-opacity:1;fill-rule:nonzero;stroke:none"
         id="path82" /><path
         d="m 971.906,2216.02 c -12.422,-22.72 -25.625,-49.96 -37.687,-79.99 -12.125,-30.01 -23.68,-62.56 -34.071,-95.45 -10.132,-32.99 -19.238,-66.26 -27.007,-97.62 -7.399,-29.77 -13.141,-57.82 -17.891,-82.3 1.668,1.35 3.324,2.72 4.941,4.07 5.172,23.17 11.547,49.09 18.692,76.77 8.027,31.21 17.379,64.3 27.773,97.05 20.133,65.68 45.074,129.89 68.653,175.67 11.836,22.84 22.82,41.31 31.561,53.58 8.6,12.33 14.26,18.87 14.26,18.87 0,0 -5.95,-6.25 -15.18,-18.2 -9.208,-11.93 -21.575,-29.71 -34.044,-52.45"
         style="fill:#100f0d;fill-opacity:1;fill-rule:nonzero;stroke:none"
         id="path84" /><path
         d="m 663.141,2182.19 c 30.082,0 30.945,-46.69 0.82,-46.69 -30.094,0 -30.941,46.69 -0.82,46.69 z m -69.106,90.38 c 2.942,-8.15 5.832,-16.37 8.582,-24.68 1.828,0.46 3.828,0.75 6,0.75 27.731,0 30.547,-39.56 7.246,-45.77 4.961,-19.25 8.77,-38.18 10.813,-55.94 13.023,-112.49 101.656,-206.2 135.707,-247.1 34.105,-40.89 119.297,-95.41 119.297,-95.41 0,0 -6.801,439.63 -351.032,613.45 0,0 24.211,-46.23 48.532,-106.47 19.945,-2.22 25.14,-26.24 14.855,-38.83"
         style="fill:#f9b01a;fill-opacity:1;fill-rule:nonzero;stroke:none"
         id="path86" /><path
         d="m 687.203,2216.02 c 12.445,-22.72 25.633,-49.96 37.723,-79.99 12.105,-30.01 23.64,-62.56 34.074,-95.45 10.105,-32.99 19.199,-66.26 26.996,-97.62 7.395,-29.77 13.137,-57.82 17.867,-82.3 -1.66,1.35 -3.293,2.72 -4.953,4.07 -5.14,23.17 -11.535,49.09 -18.66,76.77 -8.031,31.21 -17.363,64.3 -27.766,97.05 -20.125,65.68 -45.097,129.89 -68.66,175.67 -11.855,22.84 -22.851,41.31 -31.562,53.58 -8.614,12.33 -14.254,18.87 -14.254,18.87 0,0 5.933,-6.25 15.172,-18.2 9.203,-11.93 21.578,-29.71 34.023,-52.45"
         style="fill:#100f0d;fill-opacity:1;fill-rule:nonzero;stroke:none"
         id="path88" /><path
         d="m 928.82,881.93 c 0,0 -47.715,229.49 -54.531,265.84 -6.809,36.36 -12.5,177.23 -65.879,189.73 -53.406,12.48 -107.363,-45.17 -107.363,-45.17 0,0 129.516,-37.49 164.437,-142.28 34.961,-104.81 56.239,-268.12 56.239,-268.12 h 7.097"
         style="fill:#100f0d;fill-opacity:1;fill-rule:nonzero;stroke:none"
         id="path90" /><path
         d="m 422.422,1235.23 c 17.777,28.76 37.824,50.51 57.805,67.03 4.32,-4.26 10.253,-6.85 16.738,-6.85 h 1.707 c 12.715,0 23.148,11.21 22.906,23.74 -0.051,3.4 -0.879,6.53 -2.223,9.39 34.512,18.14 63.692,21.33 73.188,17.76 18.16,-6.82 82.379,-13.07 132.359,-4.26 49.981,8.8 83.508,-4.54 83.508,-4.54 0,0 -89.875,-42.18 -107.363,-45.17 -17.469,-2.97 -73.258,-26.42 -144,-86.9 -70.699,-60.5 -195.969,-217.282 -211.289,-219.828 -15.336,-2.563 14.476,149.098 76.664,249.628"
         style="fill:#f9b01a;fill-opacity:1;fill-rule:nonzero;stroke:none"
         id="path92" /><path
         d="m 636.5,1339 c 7.172,-0.75 5.234,-0.45 13.465,-0.83 -79.867,-22.85 -246.867,-97.93 -299.942,-332.12 0,0 29.383,241.12 286.477,332.95"
         style="fill:#100f0d;fill-opacity:1;fill-rule:nonzero;stroke:none"
         id="path94" /><path
         d="m 952.973,881.93 c 0,0 47.717,229.49 54.527,265.84 6.83,36.36 12.5,177.23 65.88,189.73 53.41,12.48 107.35,-45.17 107.35,-45.17 0,0 -129.5,-37.49 -164.43,-142.28 -34.929,-104.81 -56.241,-268.12 -56.241,-268.12 h -7.086"
         style="fill:#100f0d;fill-opacity:1;fill-rule:nonzero;stroke:none"
         id="path96" /><path
         d="m 1073.38,1337.5 c 0,0 33.52,13.34 83.51,4.54 49.98,-8.81 114.18,-2.56 132.35,4.26 18.17,6.8 107.91,-10.52 170.12,-111.07 62.22,-100.53 92.03,-252.191 76.69,-249.628 -15.35,2.546 -140.6,159.328 -211.31,219.828 -70.72,60.48 -126.53,83.93 -144.01,86.9 -17.46,2.99 -107.35,45.17 -107.35,45.17"
         style="fill:#f9b01a;fill-opacity:1;fill-rule:nonzero;stroke:none"
         id="path98" /><path
         d="m 1245.29,1339 c -7.17,-0.75 -5.23,-0.45 -13.45,-0.83 79.86,-22.85 246.85,-97.93 299.95,-332.12 0,0 -29.4,241.12 -286.5,332.95"
         style="fill:#100f0d;fill-opacity:1;fill-rule:nonzero;stroke:none"
         id="path100" /><path
         d="m 671.664,1715.28 c 30.074,0 30.945,-46.66 0.828,-46.66 -30.09,0 -30.949,46.66 -0.828,46.66 z m -447.187,52.77 c 0,0 122.687,90.89 254.468,5.68 17.422,-11.27 32.903,-22.12 47.043,-32.66 3.266,6.69 9.739,11.7 19.563,11.7 23.164,0 28.941,-27.63 16.652,-40.34 6.199,-5.2 12.207,-10.35 17.985,-15.42 3.117,1.8 6.859,2.92 11.39,2.92 19.121,0 26.367,-18.82 21.43,-32.59 41.437,-38.12 79.738,-73.79 147.676,-111.73 126.105,-70.42 135.195,-212.44 135.195,-276.05 0,-63.65 28.402,-114.75 25,-156.78 -3.406,-42.03 7.941,-240.85 7.941,-240.85 h 13.625 c 0,0 2.293,484.97 -13.625,517.4 -15.914,32.45 -78.39,207.41 -90.879,261.93 -12.492,54.53 -7.961,86.34 -7.961,86.34 0,0 -36.351,80.66 -140.855,101.11 -104.535,20.46 -140.883,31.81 -176.105,54.53 -35.207,22.72 -223.797,37.49 -288.543,-135.19"
         style="fill:#f9b01a;fill-opacity:1;fill-rule:nonzero;stroke:none"
         id="path102" /><path
         d="m 467.668,1835.57 c 11.137,-0.78 23.559,-2.51 37.09,-4.89 13.457,-2.64 27.961,-5.85 43.086,-10.17 15.105,-4.25 30.828,-9.49 46.875,-15.53 16.023,-6.12 32.304,-13.11 48.617,-20.73 16.187,-7.79 32.516,-16.04 48.441,-25.01 55.5,-31.37 106.965,-68.99 147.008,-101.47 0.238,-1.06 0.524,-2.12 0.781,-3.24 -40.488,32.52 -92.953,70.41 -149.464,101.72 -15.782,9.06 -31.961,17.41 -48.059,25.31 -16.188,7.72 -32.344,14.81 -48.242,21.01 -15.926,6.13 -31.551,11.49 -46.574,15.86 -15.008,4.42 -29.45,7.72 -42.809,10.45 -13.461,2.39 -25.809,4.42 -36.84,5.46 -11.051,1.55 -20.762,1.39 -28.695,2.02 -15.938,0.07 -25.074,-0.19 -25.074,-0.19 0,0 9.093,0.47 25.074,0.77 7.969,-0.45 17.711,-0.09 28.785,-1.37"
         style="fill:#100f0d;fill-opacity:1;fill-rule:nonzero;stroke:none"
         id="path104" /><path
         d="m 1162.45,1873.19 c 30.06,0 30.93,-46.68 0.8,-46.68 -30.08,0 -30.95,46.68 -0.8,46.68 z M 892.191,904.23 h 13.653 c 0,0 11.355,198.8 7.949,240.84 -3.402,42.03 24.988,93.15 24.988,156.77 0,63.64 9.102,205.62 135.199,276.07 126.1,70.43 149.95,132.92 281.75,218.12 131.79,85.2 254.47,-5.69 254.47,-5.69 -46.18,123.12 -155.23,150.93 -226.83,148.52 5.62,-13.77 -0.91,-32.82 -20.19,-32.82 -16.6,0 -24.26,14.23 -22.73,26.99 -8.14,-2.19 -14.6,-4.77 -18.79,-7.49 -35.25,-22.73 -71.57,-34.09 -176.11,-54.54 -104.52,-20.46 -140.86,-101.09 -140.86,-101.09 0,0 4.53,-31.83 -7.948,-86.35 -12.512,-54.53 -74.988,-229.48 -90.898,-261.93 -15.918,-32.45 -13.653,-517.4 -13.653,-517.4"
         style="fill:#f9b01a;fill-opacity:1;fill-rule:nonzero;stroke:none"
         id="path106" /><path
         d="m 1367.01,1857.87 c -11.15,-0.79 -23.58,-2.52 -37.09,-4.89 -13.46,-2.64 -27.97,-5.84 -43.08,-10.16 -15.1,-4.27 -30.85,-9.52 -46.9,-15.57 -16.01,-6.08 -32.3,-13.07 -48.58,-20.7 -16.22,-7.8 -32.54,-16.04 -48.47,-25.03 -55.51,-31.37 -106.99,-68.97 -147.027,-101.47 -0.218,-1.04 -0.48,-2.09 -0.785,-3.23 40.502,32.52 92.962,70.4 149.482,101.73 15.79,9.06 31.99,17.41 48.08,25.3 16.17,7.72 32.33,14.8 48.22,21.02 15.94,6.12 31.56,11.48 46.58,15.85 15.01,4.41 29.44,7.72 42.82,10.45 13.43,2.39 25.78,4.42 36.84,5.47 11.03,1.54 20.74,1.39 28.68,2.02 15.94,0.06 25.07,-0.19 25.07,-0.19 0,0 -9.11,0.46 -25.07,0.77 -7.97,-0.48 -17.7,-0.09 -28.77,-1.37"
         style="fill:#100f0d;fill-opacity:1;fill-rule:nonzero;stroke:none"
         id="path108" /><path
         d="m 691.613,2034.48 c 0,0 -51.914,25.54 -111.554,24.96 -59.637,-0.58 -78.395,17.62 -97.711,25.58 -19.309,7.94 -189.153,-15.36 -289.114,-145.99 0,0 123.832,67.01 285.711,83.49 161.871,16.48 140.313,6.82 140.313,6.82 l 51.109,-12.49 21.246,17.63"
         style="fill:#f9b01a;fill-opacity:1;fill-rule:nonzero;stroke:none"
         id="path110" /><path
         d="m 942.445,881.93 c 0,0 -2.273,436.24 0,565.76 2.293,129.51 -47.718,390.8 -77.254,465.77 -29.515,74.97 -216.957,182.89 -386.246,109.06 0,0 104.524,-1.14 131.797,-32.92 27.266,-31.83 94.274,-113.63 132.922,-142.03 38.586,-28.39 55.652,-215.84 103.367,-311.27 47.699,-95.44 77.25,-137.47 81.789,-215.85 4.532,-78.38 7.813,-438.52 7.813,-438.52 h 5.812"
         style="fill:#100f0d;fill-opacity:1;fill-rule:nonzero;stroke:none"
         id="path112" /><path
         d="m 1381.81,2358.23 c 0,0 -157.61,25.56 -234.29,-71.56 -76.69,-97.15 -261.641,-337.43 -204.938,-482.25 56.68,-144.85 -0.137,-356.73 -0.137,-356.73 0,0 58.515,114.98 51.707,298.05 -6.812,183.06 95.428,205.21 172.108,396.06 76.68,190.86 129.47,207.9 215.55,216.43"
         style="fill:#100f0d;fill-opacity:1;fill-rule:nonzero;stroke:none"
         id="path114" /><path
         d="m 952.973,1496.24 -3.129,-614.31 h -7.399 l 0.723,568.56 9.805,45.75"
         style="fill:#100f0d;fill-opacity:1;fill-rule:nonzero;stroke:none"
         id="path116" /><path
         d="m 881.68,1322.73 c 0,0 -9.528,-56.82 24.211,-169.27 V 881.93 h 8.172 v 264.71 c 0,0 38.285,87.47 86.727,106.78 0,0 -90.134,64.75 -119.11,69.31"
         style="fill:#100f0d;fill-opacity:1;fill-rule:nonzero;stroke:none"
         id="path118" /><path
         d="m 990.102,1264.81 c 0,0 -9.5,123.38 32.238,167.39 41.78,44 154.34,56.74 198.65,160.38 44.29,103.65 94.59,168.24 94.59,168.24 0,0 -228.09,-51.86 -293.24,-168.24 -65.094,-116.38 -49.231,-327.77 -49.231,-327.77 h 16.993"
         style="fill:#100f0d;fill-opacity:1;fill-rule:nonzero;stroke:none"
         id="path120" /><path
         d="m 1170.38,1710.11 c 0,0 137.34,55.26 241.06,20.7 103.73,-34.58 119.42,30.01 119.42,30.01 0,0 -6.27,-17.43 -114.7,7.68 -108.44,25.16 -189.8,-13.06 -245.78,-58.39"
         style="fill:#f9b01a;fill-opacity:1;fill-rule:nonzero;stroke:none"
         id="path122" /><path
         d="m 767.773,993.199 c 0.051,-0.008 0.122,-0.027 0.149,-0.051 C 752.836,818.102 874.789,695.172 1024.1,637.809 1011.76,630.699 998.715,624.93 985.09,620.68 H 872.813 C 785,648.121 720.547,738.281 720.547,845.332 c 0,56.137 17.746,107.617 47.226,147.867"
         style="fill:#100f0d;fill-opacity:1;fill-rule:nonzero;stroke:none"
         id="path124" /><path
         d="m 767.648,993.148 c 13.192,-5.648 81.02,-9.929 162.778,-9.929 77.234,0 142.064,3.832 160.124,9 29.08,-40.11 46.54,-91.219 46.54,-146.887 0,-90.453 -46.03,-168.832 -113.27,-207.523 -149.308,57.363 -271.261,180.293 -256.172,355.339"
         style="fill:#100f0d;fill-opacity:1;fill-rule:nonzero;stroke:none"
         id="path126" /><path
         d="m 1040.23,1347.49 c 0,0 -76.695,-33.97 -158.496,-24.88 0,0 197.716,-77.24 196.836,-547.571 0,0 115.02,292.881 -38.34,572.451"
         style="fill:#f9b01a;fill-opacity:1;fill-rule:nonzero;stroke:none"
         id="path128" /><path
         d="m 986.051,1330.33 c 1.547,-2.25 3.066,-4.35 4.676,-6.69 6.617,-9.43 12.793,-20.27 19.733,-31.53 6.19,-11.66 13.55,-23.56 19.27,-36.79 3.06,-6.52 6.17,-13.17 9.32,-19.88 2.77,-6.89 5.56,-13.86 8.38,-20.9 6.02,-13.9 10.26,-28.71 15.26,-43.27 4.72,-14.63 7.78,-29.76 11.66,-44.39 3.23,-14.77 5.48,-29.53 8.18,-43.67 2.22,-14.23 3.11,-28.17 4.52,-41.28 1.76,-13.1 1.15,-25.64 1.7,-37.15 0.16,-11.51 0.96,-22.038 0.02,-31.378 -0.57,-9.312 -1.05,-17.453 -1.45,-24.152 -0.82,-13.348 -1.29,-21 -1.29,-21 0,0 0.07,7.652 0.14,21.063 0.03,6.679 0.09,14.808 0.14,24.117 0.41,9.312 -0.97,19.781 -1.39,31.21 -0.9,11.41 -0.68,23.85 -2.82,36.82 -1.82,12.98 -3.18,26.73 -5.43,40.81 -2.78,14.02 -5.17,28.6 -8.52,43.18 -4,14.45 -7.16,29.38 -11.95,43.81 -4.82,14.46 -8.88,29.17 -14.7,43 -2.72,6.98 -5.41,13.92 -8.08,20.75 -3.04,6.68 -6.06,13.29 -9.01,19.79 -5.68,13.1 -12.48,25.13 -18.27,36.89 -6.527,11.35 -12.339,22.33 -18.64,31.88 -1.727,2.75 -3.379,5.29 -5.062,7.93 1.23,0.24 2.417,0.57 3.613,0.83"
         style="fill:#100f0d;fill-opacity:1;fill-rule:nonzero;stroke:none"
         id="path130" /><path
         d="m 4972.12,962.082 c 1.18,1.609 -1.22,-1.59 0,0 17.92,4.578 79.96,12.707 149.32,12.707 64.97,0 125.29,-9.469 146.76,-13.617 1.67,-2.121 -1.6,2.219 0,0 -16.56,-4.742 -75.96,-8.242 -146.76,-8.242 -75.17,0 -137.5,3.961 -149.32,9.152"
         style="fill:#423734;fill-opacity:1;fill-rule:nonzero;stroke:none"
         id="path132" /><path
         d="m 4952.64,1336.65 c 6.4,-4.7 103.61,-246.97 117.88,-322.5 11.79,-62.42 32.45,-211.849 32.45,-211.849 l -17.58,0.801 c 0,0 -39.33,231.508 -51.99,293.118 -18.11,88.13 -93.2,245.98 -93.2,245.98 l 12.44,-5.55"
         style="fill:#100f0d;fill-opacity:1;fill-rule:nonzero;stroke:none"
         id="path134" /><path
         d="m 4952.64,1336.65 c 0,0 49.29,18.73 55.87,42.67 6.57,23.94 -66.52,15.08 -88.77,34.79 -22.28,19.72 -42.02,21.69 -88.15,24.82 -46.11,3.17 -87.34,8.3 -113.1,-1.58 -4.14,-1.58 13.45,2.53 29.76,-11.76 45.72,-40.08 104.09,-37.79 137.23,-57.41 31.3,-18.49 53.13,-24.31 67.16,-31.53"
         style="fill:#100f0d;fill-opacity:1;fill-rule:nonzero;stroke:none"
         id="path136" /><path
         d="M 5276.69,1166.86 C 5270.28,1162.15 5173.06,919.902 5158.8,844.359 5147,781.941 5126.34,632.52 5126.34,632.52 l 17.59,0.781 c 0,0 39.34,231.508 51.98,293.129 18.13,88.14 93.22,245.99 93.22,245.99 l -12.44,-5.56"
         style="fill:#100f0d;fill-opacity:1;fill-rule:nonzero;stroke:none"
         id="path138" /><path
         d="m 5276.69,1166.86 c 0,0 -49.31,18.74 -55.89,42.68 -6.56,23.94 66.52,15.08 88.79,34.79 22.28,19.72 42.01,21.68 88.14,24.83 46.12,3.15 87.34,8.29 113.1,-1.59 4.13,-1.59 -13.46,2.51 -29.76,-11.76 -45.73,-40.06 -104.1,-37.8 -137.22,-57.41 -31.3,-18.49 -53.16,-24.31 -67.16,-31.54"
         style="fill:#100f0d;fill-opacity:1;fill-rule:nonzero;stroke:none"
         id="path140" /><path
         d="m 5171.93,841.082 c -5.31,57.469 -34.1,240.898 -26.56,404.118 3.96,86.24 58.34,374.31 87.19,437.93 16.95,37.31 31.69,65.63 41.16,80.59 1.8,5.67 27.18,20.31 11.79,-6.31 -15.43,-26.62 -77.69,-121.13 -119.11,-475.24 -20.04,-171.05 37.92,-558.088 41.83,-566.201 3.92,-8.117 -18.15,-15.008 -18.15,-15.008 -12.19,94.051 -13.37,88.578 -18.15,140.121"
         style="fill:#100f0d;fill-opacity:1;fill-rule:nonzero;stroke:none"
         id="path142" /><path
         d="m 5293.9,1763.72 c 0,0 106.06,139.65 212.14,199.74 106.07,60.11 215.69,87.02 247.5,153.12 31.81,66.1 -70.72,16.92 -109.6,6.17 -38.89,-10.79 -87.53,-15.16 -144.96,-21.9 -58.34,-6.85 -226.71,-75.94 -247.5,-159.51 -17.9,-71.91 -7.07,-144.03 42.42,-177.62"
         style="fill:#f9b01a;fill-opacity:1;fill-rule:nonzero;stroke:none"
         id="path144" /><path
         d="m 5246.66,1917.83 c 0,0 -52.65,-98.19 -27.44,-144.72 25.19,-46.52 60.33,-26.92 60.33,-26.92 l 14.35,17.53 c 0,0 -57.22,36.87 -47.24,154.11"
         style="fill:#100f0d;fill-opacity:1;fill-rule:nonzero;stroke:none"
         id="path146" /><path
         d="m 5216.58,2070.69 -40.77,-67.29 c 0,0 -88.88,28.55 -88.88,67.29 0,38.75 -11.02,26.49 -25.31,34.66 -14.25,8.15 -12.22,34.67 0,55.05 12.24,20.39 -9.68,23.96 -19.88,34.15 -10.19,10.19 -42.8,84.1 86.15,124.87 54.85,17.35 52,4.09 68.31,0 16.3,-4.07 -50.97,-132.52 20.38,-248.73"
         style="fill:#100f0d;fill-opacity:1;fill-rule:nonzero;stroke:none"
         id="path148" /><path
         d="m 5226.78,2070.69 c 0,0 -57.08,12.24 -48.93,46.88 8.15,34.68 10.19,63.22 -12.23,85.64 -22.43,22.43 14.27,144.78 61.16,191.66 46.89,46.88 165.14,105.8 205.92,138.53 40.77,32.73 89.71,41.56 142.72,66.71 53,25.15 159.04,108.74 161.07,155.63 2.04,46.89 34.67,-74.76 -44.85,-155.63 -79.53,-80.87 -281.37,-239.9 -311.94,-290.87 -30.59,-50.98 -134.58,-179.44 -152.92,-238.55"
         style="fill:#f9b01a;fill-opacity:1;fill-rule:nonzero;stroke:none"
         id="path150" /><path
         d="m 5231.91,2084.21 c 0,0 -74.3,-129.72 -108.37,-594.6 -9.98,-136.26 28.12,-532.63 28.12,-532.63 l -22.29,0.129 c 0,0 -32.43,401.931 -20.19,539.621 12.24,137.64 57.06,478.08 66.63,506.67 17.29,51.73 56.1,80.81 56.1,80.81"
         style="fill:#100f0d;fill-opacity:1;fill-rule:nonzero;stroke:none"
         id="path152" /><path
         d="m 4960.49,1541.12 38.5,-45.86 c 0,0 63.52,31.81 59,60.95 -4.5,29.14 5.21,21.2 15.01,28.99 9.78,7.8 5.16,27.5 -6.41,41.41 -11.57,13.91 4.5,19.16 10.98,28.01 6.47,8.85 22.42,68.24 -79.33,83.89 -43.26,6.66 -39.57,-2.99 -51.35,-7.95 -11.79,-4.98 53.75,-93.73 13.6,-189.44"
         style="fill:#100f0d;fill-opacity:1;fill-rule:nonzero;stroke:none"
         id="path154" /><path
         d="m 4952.82,1539.94 c 0,0 41.51,15.84 31.35,40.96 -10.18,25.11 -15.01,46.34 -0.77,65.82 14.27,19.47 -27.57,107.21 -68.28,137.03 -40.73,29.81 -136.53,60.35 -171,80.23 -34.47,19.87 -72.3,20.81 -115.11,33.57 -42.78,12.74 -132.25,63.28 -139.23,98.3 -7,35.05 -17.37,-60.26 51.84,-111.82 69.2,-51.58 239.51,-147.7 268.45,-182.48 28.91,-34.78 122.08,-119.29 142.75,-161.61"
         style="fill:#f9b01a;fill-opacity:1;fill-rule:nonzero;stroke:none"
         id="path156" /><path
         d="m 4947.39,1549.5 c 0,0 70.96,-88.91 150.68,-434.57 23.37,-101.33 40.83,-403.86 40.83,-403.86 l 16.74,2.692 c 0,0 -22.39,306.058 -47.61,408.168 -25.22,102.13 -98.53,352.94 -109.04,373.33 -19.03,36.89 -51.6,54.24 -51.6,54.24"
         style="fill:#100f0d;fill-opacity:1;fill-rule:nonzero;stroke:none"
         id="path158" /><path
         d="m 4910.43,1869.09 c 0,0 96.66,-191.38 126.16,-363.39 29.51,-172.03 88.68,-671.981 87.29,-708.661 -1.39,-36.699 24.23,2.981 24.23,2.981 0,0 -76.21,658.1 -112.69,792.37 -38.29,140.91 -108.94,278.68 -108.94,278.68 l -16.05,-1.98"
         style="fill:#100f0d;fill-opacity:1;fill-rule:nonzero;stroke:none"
         id="path160" /><path
         d="m 4668.02,2246.87 c 0,0 153.12,-55.21 170.88,-80.27 17.74,-25.07 69.98,-91.91 81.08,-122.72 11.11,-30.81 49.69,-28.27 61.85,-35.93 12.13,-7.67 19.81,-77.2 31.57,-102.42 11.78,-25.19 20.28,-46.91 15.98,-66.54 -4.3,-19.62 -40.78,-44.92 -54.78,-33.87 -13.99,11.09 -158.95,219.88 -218.54,245.9 -59.6,26.04 -115.06,29.47 -135.16,77.39 -12.72,30.28 26.83,100.43 47.12,118.46"
         style="fill:#100f0d;fill-opacity:1;fill-rule:nonzero;stroke:none"
         id="path162" /><path
         d="m 4669.01,2238.53 c 0,0 119.47,-163.37 177.14,-231.79 57.69,-68.43 116.1,-159.82 116.1,-159.82 0,0 -168.1,220.25 -180.92,234.83 -12.83,14.6 -99.75,140.31 -112.32,156.78"
         style="fill:#100f0d;fill-opacity:1;fill-rule:nonzero;stroke:none"
         id="path164" /><path
         d="m 4940.68,1796.82 c 0,0 28.93,-5.44 38.57,15.08 9.65,20.53 -22.8,73.68 -39.45,88.14 -16.65,14.44 -16.34,48.89 -21.08,55.27 -9.64,13.01 -135.14,64.22 -133.37,88.93 1.75,24.69 -80.67,32.92 -123.54,42.8 -19.35,4.44 80.26,-34.36 141.14,-97.49 45.54,-47.21 108.58,-95.61 137.73,-192.73"
         style="fill:#f9b01a;fill-opacity:1;fill-rule:nonzero;stroke:none"
         id="path166" /><path
         d="m 5281.93,1505.77 c -38.56,-98.9 -162.45,-623.231 -163.16,-656.969 -0.72,-33.762 -36.23,-15.18 -36.23,-15.18 0,0 163.43,647.499 194.1,689.759 56.34,77.62 20.95,22.52 5.29,-17.61"
         style="fill:#100f0d;fill-opacity:1;fill-rule:nonzero;stroke:none"
         id="path168" /><path
         d="m 5370.58,1467.7 c 0,0 -60.88,-10.77 -85.79,35.89 -24.93,46.65 -22.73,62.49 -17.27,74.74 5.46,12.22 -19.38,36.26 -19.38,36.26 0,0 -5.98,46.12 24.6,81.13 30.62,34.99 39.74,27.87 58.22,45.72 18.44,17.85 43.85,86.81 106.26,97.9 11.44,2.04 22.14,-4 22.14,-4 0,0 21.95,23.74 76.83,35.73 54.9,11.98 60.34,24.23 78.86,39.45 18.53,15.23 44.03,17.12 52.93,37.87 8.91,20.75 13.33,-77.09 -6.91,-106.56 -20.25,-29.47 -46.74,-59.63 -52.82,-88.18 -6.74,-31.62 -22.35,-65.76 -39.81,-80.14 -4.63,-3.78 -71.1,-39.06 -92.01,-82.2 -20.23,-41.74 -38.74,-96.16 -105.85,-123.61"
         style="fill:#f9b01a;fill-opacity:1;fill-rule:nonzero;stroke:none"
         id="path170" /><path
         d="m 5646.97,1899.59 c 0,0 -349.92,-293.19 -370.47,-379.57 l 8.29,-16.43 c 0,0 16.64,50.44 58.31,95.71 100.85,109.61 244.86,240.35 303.87,300.29"
         style="fill:#100f0d;fill-opacity:1;fill-rule:nonzero;stroke:none"
         id="path172" /><path
         d="m 4976.06,960.641 c 19.17,-4.442 76.37,-7.672 144.17,-7.68 70.68,0.008 130,3.508 146.55,8.258 26.64,-36.758 -12.14,-96.41 -12.14,-147.43 0,-82.867 12.58,-141.867 -48.92,-177.348 0.05,-0.019 0.1,-0.031 0.15,-0.07 -9.98,-5.73 -20.5,-10.469 -31.41,-14.199 -115.23,63.348 -169.3,207.058 -198.4,338.469"
         style="fill:#100f0d;fill-opacity:1;fill-rule:nonzero;stroke:none"
         id="path174" /><path
         d="m 4973.68,961.219 c 0.69,-0.199 1.54,-0.379 2.38,-0.578 29.1,-131.411 83.17,-275.121 198.4,-338.469 -1.44,-0.481 -2.88,-1.02 -4.34,-1.492 h -49.89 -49.89 c -12.49,3.91 -24.45,9.199 -35.76,15.691 0.06,0.039 0.11,0.051 0.15,0.07 -61.49,35.481 -48.91,94.481 -48.91,177.348 0,51.02 -38.78,110.672 -12.14,147.43"
         style="fill:#100f0d;fill-opacity:1;fill-rule:nonzero;stroke:none"
         id="path176" /><path
         d="m 4583.47,3300.05 -33.61,-114.41 c -9.39,-31.98 5.68,-66.06 35.65,-80.62 l 61.64,-29.95 v -158.14 l 130.54,30.78 v 182.54 l 54.12,93.39 -108.25,76.41 h -140.09"
         style="fill:#f03c7a;fill-opacity:1;fill-rule:nonzero;stroke:none"
         id="path178" /><path
         d="m 4501.47,2626.05 -152.45,-127.63 c -34.98,-29.28 -89.8,-1.11 -83.38,44.07 0.22,1.56 0.51,3.14 0.88,4.72 l 174.43,544.51 -12.19,46.93 c -4.99,19.18 7.16,38.62 26.59,42.54 v 0 c 16.4,3.32 32.82,-5.6 38.97,-21.17 l 18.52,-46.93 29.05,7.58 c 5.79,1.51 10.53,-4.72 7.52,-9.9 l -29.77,-26.82 -57.32,-187.49 128.24,71.39 -89.09,-341.8"
         style="fill:#f03c7a;fill-opacity:1;fill-rule:nonzero;stroke:none"
         id="path180" /><path
         d="m 4501.53,2998.97 -92.63,16.98 -142.38,-468.74 c -0.37,-1.58 -0.66,-3.16 -0.88,-4.72 -6.42,-45.18 48.4,-73.35 83.38,-44.07 l 152.45,127.63 89.09,341.8 -120.46,-63.61 31.43,94.73"
         style="fill:#433397;fill-opacity:1;fill-rule:nonzero;stroke:none"
         id="path182" /><path
         d="m 4462.32,2086.86 -216.08,-648.92 289.91,-571.198 27.2,16.258 43.39,-74.328 c 21.68,-37.141 7.21,-84.871 -31.44,-103.731 l -28.44,-13.882 c -34.67,-16.899 -64.99,-41.989 -86.63,-73.918 -4.93,-7.262 -9.54,-14.731 -13.81,-22.422 v 0 l 249.05,57.551 v 1434.59 h -233.15"
         style="fill:#433397;fill-opacity:1;fill-rule:nonzero;stroke:none"
         id="path184" /><path
         d="m 4563.35,883 43.39,-74.328 c 21.68,-37.152 7.21,-84.871 -31.44,-103.731 l -28.44,-13.882 c -34.67,-16.899 -64.98,-41.989 -86.63,-73.918 -4.93,-7.262 -9.54,-14.731 -13.82,-22.422 l 249.06,57.551 V 961.93 L 4563.35,883"
         style="fill:#433397;fill-opacity:1;fill-rule:nonzero;stroke:none"
         id="path186" /><path
         d="m 4695.47,758.34 v 0 c -19.16,-15.168 -43.95,-21.281 -67.95,-16.781 l -15.82,2.961 c -6.49,-16.649 -18.96,-31.071 -36.4,-39.579 l -28.44,-13.882 c -34.67,-16.911 -64.99,-42 -86.63,-73.93 -4.93,-7.258 -9.54,-14.727 -13.82,-22.41 l 249.06,57.551 v 106.07"
         style="fill:#100f0d;fill-opacity:1;fill-rule:nonzero;stroke:none"
         id="path188" /><path
         d="m 3873.57,1333.02 h -193.54 l 56.95,-506.688 -67.3,-139.262 c -5.18,-10.718 -12.01,-20.539 -20.25,-29.129 -20.7,-21.609 -32.26,-50.371 -32.26,-80.3 l 288.85,170.129 -68,99.929 35.55,485.321"
         style="fill:#100f0d;fill-opacity:1;fill-rule:nonzero;stroke:none"
         id="path190" /><path
         d="m 3847.67,979.492 h -127.9 l 17.21,-153.16 -67.3,-139.262 c -5.18,-10.718 -12.01,-20.539 -20.25,-29.129 -20.7,-21.609 -32.26,-50.371 -32.26,-80.3 l 288.85,170.129 -68,99.929 9.65,131.793"
         style="fill:#f03c7a;fill-opacity:1;fill-rule:nonzero;stroke:none"
         id="path192" /><path
         d="m 3838.02,847.699 c 0,0 -64.12,-52.449 -69.94,-52.449 -5.83,0 -31.1,31.082 -31.1,31.082 l -67.3,-139.262 c -5.18,-10.718 -12.01,-20.539 -20.25,-29.129 -20.7,-21.609 -32.26,-50.371 -32.26,-80.3 l 288.85,170.129 -68,99.929"
         style="fill:#433397;fill-opacity:1;fill-rule:nonzero;stroke:none"
         id="path194" /><path
         d="M 3969.01,2651.33 V 2439.3 h 186.4 v 212.03 h -186.4"
         style="fill:#f03c7a;fill-opacity:1;fill-rule:nonzero;stroke:none"
         id="path196" /><path
         d="m 3969.01,2631.55 v -35.12 c 20.45,-4.35 52.38,-7.62 78.06,5.69 27.91,14.46 -34.67,24.47 -78.06,29.43"
         style="fill:#433397;fill-opacity:1;fill-rule:nonzero;stroke:none"
         id="path198" /><path
         d="m 4048.62,2589.47 -59.02,13.58 c -64.32,14.8 -104.83,79.53 -90.03,143.85 l 2.09,9.07 c 14.8,64.32 79.53,104.84 143.85,90.03 l 59.02,-13.58 c 64.33,-14.8 104.84,-79.53 90.04,-143.85 l -2.09,-9.07 c -14.8,-64.32 -79.54,-104.84 -143.86,-90.03"
         style="fill:#f03c7a;fill-opacity:1;fill-rule:nonzero;stroke:none"
         id="path200" /><path
         d="m 4215.44,2452.13 h -235.55 c -129.91,0 -241.74,-91.77 -267.1,-219.19 l -60,-301.51 -222.14,102.97 -21.67,21.67 c -5.62,5.63 -15.24,1.64 -15.24,-6.31 v -21.19 l -40.75,-12.11 c -17.49,-5.2 -27.9,-23.12 -23.75,-40.9 v 0 c 3.64,-15.6 17.56,-26.65 33.58,-26.65 h 65.89 l 269.58,-203.38 c 33.38,-25.17 81.62,-8.14 91.8,32.41 v 0.01 -170.98 h 528.47 v 695.55 l -103.12,149.61"
         style="fill:#433397;fill-opacity:1;fill-rule:nonzero;stroke:none"
         id="path202" /><path
         d="m 3430.65,2034.4 -21.67,21.67 c -5.62,5.63 -15.24,1.64 -15.24,-6.31 v -21.19 l -40.75,-12.11 c -17.48,-5.2 -27.9,-23.12 -23.75,-40.9 3.64,-15.6 17.56,-26.65 33.58,-26.65 h 65.89 l 110.19,-83.12 46.83,96.73 -155.08,71.88"
         style="fill:#f03c7a;fill-opacity:1;fill-rule:nonzero;stroke:none"
         id="path204" /><path
         d="m 1194.4,1599.84 v -167.73 c 0,-54.72 44.37,-99.09 99.09,-99.09 h 667.7 V 901.711 h 146.36 l 117.85,475.479 c 36.87,148.74 -75.68,292.6 -228.92,292.6 h -283.97 l -518.11,-69.95"
         style="fill:#433397;fill-opacity:1;fill-rule:nonzero;stroke:none"
         id="path206" /><path
         d="m 1961.19,1682.74 h 44.04 l 58.64,-43.11 c 16.71,-12.29 40.01,-9.91 53.88,5.5 v 0 c 12.89,14.33 13.85,35.77 2.28,51.19 l -42.27,56.36 c 0,0 31.74,21.38 25.91,21.38 -5.83,0 -79.66,0 -79.66,0 l -53.71,12.62"
         style="fill:#f03c7a;fill-opacity:1;fill-rule:nonzero;stroke:none"
         id="path208" /><path
         d="M 3678.12,2086.86 H 1479.03 v 1554.3 h 2199.09 v -1554.3"
         style="fill:#f9b01a;fill-opacity:1;fill-rule:nonzero;stroke:none"
         id="path210" /><path
         d="m 2908.02,2907.21 h -316.54 v 313.74 c 0,99.59 80.73,180.31 180.32,180.31 v 0 c 75.23,0 136.22,-60.99 136.22,-136.22 v -357.83"
         style="fill:#100f0d;fill-opacity:1;fill-rule:nonzero;stroke:none"
         id="path212" /><path
         d="m 2821.61,2977.47 h -134.75 v 186.21 h 134.75 v -186.21"
         style="fill:#f03c7a;fill-opacity:1;fill-rule:nonzero;stroke:none"
         id="path214" /><path
         d="m 2790.76,3059.83 v 0 c 10.72,0 21.09,1.65 30.84,4.7 v 99.15 h -134.73 c 0.02,-57.12 46.76,-103.85 103.89,-103.85"
         style="fill:#100f0d;fill-opacity:1;fill-rule:nonzero;stroke:none"
         id="path216" /><path
         d="m 2902.84,2980.58 91.63,-504.55 c 7.98,-43.94 42.5,-78.26 86.49,-85.99 L 3496,2317.1 c 19.51,-3.43 38.19,9.29 42.15,28.7 v 0 c 3.41,16.73 -5.21,33.59 -20.78,40.62 l -42.98,19.42 c -5.7,2.57 -7.88,9.54 -4.66,14.91 v 0 c 4.18,6.96 -0.84,15.83 -8.97,15.83 h -67.02 l -305.68,139.88 -50.52,303.16 c -9.72,58.26 -60.13,100.96 -119.19,100.96 h -15.51"
         style="fill:#f03c7a;fill-opacity:1;fill-rule:nonzero;stroke:none"
         id="path218" /><path
         d="m 2630.56,2980.58 -91.64,-504.55 c -7.98,-43.94 -42.49,-78.26 -86.48,-85.99 l -415.05,-72.94 c -19.5,-3.43 -38.19,9.29 -42.15,28.7 v 0 c -3.41,16.73 5.21,33.59 20.78,40.62 l 42.98,19.42 c 5.7,2.57 7.89,9.54 4.67,14.91 v 0 c -4.18,6.96 0.84,15.83 8.96,15.83 h 67.02 l 305.68,139.88 50.53,303.16 c 9.71,58.26 60.12,100.96 119.19,100.96 h 15.51"
         style="fill:#f03c7a;fill-opacity:1;fill-rule:nonzero;stroke:none"
         id="path220" /><path
         d="m 2770.63,3068.25 v 0 c -57.14,0 -103.9,46.75 -103.9,103.89 v 40.6 c 0,57.14 46.76,103.89 103.9,103.89 v 0 c 57.14,0 103.89,-46.75 103.89,-103.89 v -40.6 c 0,-57.14 -46.75,-103.89 -103.89,-103.89"
         style="fill:#f03c7a;fill-opacity:1;fill-rule:nonzero;stroke:none"
         id="path222" /><path
         d="m 2649.43,3215.94 80.65,22.95 c 31.48,8.96 55.78,34.06 63.72,65.81 v 0 c 0,0 10.7,-59.88 86.62,-62.02 v 43.84 l -88.76,54.54 -117.63,-31.01 -38.5,-87.69"
         style="fill:#100f0d;fill-opacity:1;fill-rule:nonzero;stroke:none"
         id="path224" /><path
         d="m 2686.53,3167.19 v 0 c -12.04,-9.43 -29.6,-7.31 -39.03,4.73 l -5.29,6.73 c -9.43,12.04 -7.31,29.6 4.73,39.04 v 0 c 12.04,9.43 29.6,7.31 39.03,-4.72 l 5.29,-6.74 c 9.43,-12.03 7.31,-29.6 -4.73,-39.04"
         style="fill:#f03c7a;fill-opacity:1;fill-rule:nonzero;stroke:none"
         id="path226" /><path
         d="m 2549.23,2783.71 61.11,-414.48 c 0,0 -219.12,-80.31 -154.36,-727.93 h 613.95 l -113.99,922.21 c 0,0 59.56,12.54 86.02,55.89 12.59,20.63 11.33,46.88 -1.55,67.31 l -61.15,97 v 120.46 c 0,42.2 -34.22,76.41 -76.42,76.41 h -289.56 c -54.37,0 -94.96,-50.03 -83.76,-103.22 l 19.71,-93.65"
         style="fill:#f6f2ec;fill-opacity:1;fill-rule:nonzero;stroke:none"
         id="path228" /><path
         d="m 2534.96,1641.3 120.05,-769.601 c 3.53,-22.687 -3.87,-45.699 -19.97,-62.058 l -83.9,-85.301 c -11.87,-12.07 -3.32,-32.469 13.61,-32.469 1.74,0 3.47,0.238 5.14,0.699 l 141,39.461 v -24.609 h 46.08 V 1641.3 h -222.01"
         style="fill:#f03c7a;fill-opacity:1;fill-rule:nonzero;stroke:none"
         id="path230" /><path
         d="m 2633.42,807.992 v 0 l -81.47,-82.832 c -9.43,-9.59 -8.36,-24.148 3.35,-30.789 4.57,-2.59 9.81,-3.129 14.59,-1.801 l 141,39.461 v -24.609 h 46.08 v 115.719 l -85.2,-39.61 c -17.88,-8.32 -38.35,4.739 -38.35,24.461"
         style="fill:#433397;fill-opacity:1;fill-rule:nonzero;stroke:none"
         id="path232" /><path
         d="M 3013.85,1641.3 2893.8,871.699 c -3.54,-22.687 3.87,-45.699 19.96,-62.058 l 83.9,-85.301 c 11.87,-12.07 3.33,-32.469 -13.61,-32.469 -1.73,0 -3.46,0.238 -5.14,0.699 l -141,39.461 v -24.609 h -46.07 V 1641.3 h 222.01"
         style="fill:#f03c7a;fill-opacity:1;fill-rule:nonzero;stroke:none"
         id="path234" /><path
         d="m 2915.38,807.992 v 0 l 81.48,-82.832 c 9.43,-9.59 8.35,-24.148 -3.35,-30.789 -4.57,-2.59 -9.82,-3.129 -14.6,-1.801 l -141,39.461 v -24.609 h -46.07 v 115.719 l 85.19,-39.61 c 17.88,-8.32 38.35,4.739 38.35,24.461"
         style="fill:#433397;fill-opacity:1;fill-rule:nonzero;stroke:none"
         id="path236" /><path
         d="m 2673.58,2980.58 130.82,-177.45 32.38,177.45 z"
         style="fill:#f03c7a;fill-opacity:1;fill-rule:nonzero;stroke:none"
         id="path238" /><path
         d="m 1523.93,2582.73 -77.38,-12.76 c -45.43,-7.49 -88.74,23.55 -96.23,68.99 l -15.07,91.38 c -10.73,65.12 33.76,127.19 98.88,137.93 l 41.58,6.85 c 65.13,10.74 127.19,-33.76 137.93,-98.87 l 9.17,-55.6 c 10.74,-65.12 -33.76,-127.19 -98.88,-137.92"
         style="fill:#f03c7a;fill-opacity:1;fill-rule:nonzero;stroke:none"
         id="path240" /><path
         d="m 1720.27,1845.94 v 487.02 c 0,91.56 -74.22,165.79 -165.79,165.79 h -266.82 c -77.26,0 -139.89,-62.63 -139.89,-139.89 v -686.48 c 0,-40.06 32.47,-72.54 72.54,-72.54 h 427.43 c 35.77,0 64.77,28.99 64.77,64.77 v 0 h 270.05 v 119.16 l -262.29,62.17"
         style="fill:#6bc3ef;fill-opacity:1;fill-rule:nonzero;stroke:none"
         id="path242" /><g
         id="g244"><g
           id="g246"
           clip-path="url(#clipPath250)"><path
             d="m 1211.78,2475.56 c 0,-12.82 -10.4,-23.22 -23.23,-23.22 -12.83,0 -23.23,10.4 -23.23,23.22 0,12.84 10.4,23.24 23.23,23.24 12.83,0 23.23,-10.4 23.23,-23.24"
             style="fill:#f6f2ec;fill-opacity:1;fill-rule:nonzero;stroke:none"
             id="path252" /><path
             d="m 1314.43,2475.56 c 0,-12.82 -10.4,-23.22 -23.23,-23.22 -12.83,0 -23.23,10.4 -23.23,23.22 0,12.84 10.4,23.24 23.23,23.24 12.83,0 23.23,-10.4 23.23,-23.24"
             style="fill:#f6f2ec;fill-opacity:1;fill-rule:nonzero;stroke:none"
             id="path254" /><path
             d="m 1417.08,2475.56 c 0,-12.82 -10.4,-23.22 -23.24,-23.22 -12.82,0 -23.22,10.4 -23.22,23.22 0,12.84 10.4,23.24 23.22,23.24 12.84,0 23.24,-10.4 23.24,-23.24"
             style="fill:#f6f2ec;fill-opacity:1;fill-rule:nonzero;stroke:none"
             id="path256" /><path
             d="m 1519.72,2475.56 c 0,-12.82 -10.4,-23.22 -23.23,-23.22 -12.83,0 -23.23,10.4 -23.23,23.22 0,12.84 10.4,23.24 23.23,23.24 12.83,0 23.23,-10.4 23.23,-23.24"
             style="fill:#f6f2ec;fill-opacity:1;fill-rule:nonzero;stroke:none"
             id="path258" /><path
             d="m 1622.37,2475.56 c 0,-12.82 -10.4,-23.22 -23.23,-23.22 -12.83,0 -23.23,10.4 -23.23,23.22 0,12.84 10.4,23.24 23.23,23.24 12.83,0 23.23,-10.4 23.23,-23.24"
             style="fill:#f6f2ec;fill-opacity:1;fill-rule:nonzero;stroke:none"
             id="path260" /><path
             d="m 1725.02,2475.56 c 0,-12.82 -10.4,-23.22 -23.23,-23.22 -12.83,0 -23.23,10.4 -23.23,23.22 0,12.84 10.4,23.24 23.23,23.24 12.83,0 23.23,-10.4 23.23,-23.24"
             style="fill:#f6f2ec;fill-opacity:1;fill-rule:nonzero;stroke:none"
             id="path262" /><path
             d="m 1827.67,2475.56 c 0,-12.82 -10.4,-23.22 -23.24,-23.22 -12.82,0 -23.22,10.4 -23.22,23.22 0,12.84 10.4,23.24 23.22,23.24 12.84,0 23.24,-10.4 23.24,-23.24"
             style="fill:#f6f2ec;fill-opacity:1;fill-rule:nonzero;stroke:none"
             id="path264" /><path
             d="m 1930.31,2475.56 c 0,-12.82 -10.4,-23.22 -23.22,-23.22 -12.84,0 -23.24,10.4 -23.24,23.22 0,12.84 10.4,23.24 23.24,23.24 12.82,0 23.22,-10.4 23.22,-23.24"
             style="fill:#f6f2ec;fill-opacity:1;fill-rule:nonzero;stroke:none"
             id="path266" /><path
             d="m 1211.78,2384.25 c 0,-12.83 -10.4,-23.23 -23.23,-23.23 -12.83,0 -23.23,10.4 -23.23,23.23 0,12.84 10.4,23.24 23.23,23.24 12.83,0 23.23,-10.4 23.23,-23.24"
             style="fill:#f6f2ec;fill-opacity:1;fill-rule:nonzero;stroke:none"
             id="path268" /><path
             d="m 1314.43,2384.25 c 0,-12.83 -10.4,-23.23 -23.23,-23.23 -12.83,0 -23.23,10.4 -23.23,23.23 0,12.84 10.4,23.24 23.23,23.24 12.83,0 23.23,-10.4 23.23,-23.24"
             style="fill:#f6f2ec;fill-opacity:1;fill-rule:nonzero;stroke:none"
             id="path270" /><path
             d="m 1417.08,2384.25 c 0,-12.83 -10.4,-23.23 -23.24,-23.23 -12.82,0 -23.22,10.4 -23.22,23.23 0,12.84 10.4,23.24 23.22,23.24 12.84,0 23.24,-10.4 23.24,-23.24"
             style="fill:#f6f2ec;fill-opacity:1;fill-rule:nonzero;stroke:none"
             id="path272" /><path
             d="m 1519.72,2384.25 c 0,-12.83 -10.4,-23.23 -23.23,-23.23 -12.83,0 -23.23,10.4 -23.23,23.23 0,12.84 10.4,23.24 23.23,23.24 12.83,0 23.23,-10.4 23.23,-23.24"
             style="fill:#f6f2ec;fill-opacity:1;fill-rule:nonzero;stroke:none"
             id="path274" /><path
             d="m 1622.37,2384.25 c 0,-12.83 -10.4,-23.23 -23.23,-23.23 -12.83,0 -23.23,10.4 -23.23,23.23 0,12.84 10.4,23.24 23.23,23.24 12.83,0 23.23,-10.4 23.23,-23.24"
             style="fill:#f6f2ec;fill-opacity:1;fill-rule:nonzero;stroke:none"
             id="path276" /><path
             d="m 1725.02,2384.25 c 0,-12.83 -10.4,-23.23 -23.23,-23.23 -12.83,0 -23.23,10.4 -23.23,23.23 0,12.84 10.4,23.24 23.23,23.24 12.83,0 23.23,-10.4 23.23,-23.24"
             style="fill:#f6f2ec;fill-opacity:1;fill-rule:nonzero;stroke:none"
             id="path278" /><path
             d="m 1827.67,2384.25 c 0,-12.83 -10.4,-23.23 -23.24,-23.23 -12.82,0 -23.22,10.4 -23.22,23.23 0,12.84 10.4,23.24 23.22,23.24 12.84,0 23.24,-10.4 23.24,-23.24"
             style="fill:#f6f2ec;fill-opacity:1;fill-rule:nonzero;stroke:none"
             id="path280" /><path
             d="m 1930.31,2384.25 c 0,-12.83 -10.4,-23.23 -23.22,-23.23 -12.84,0 -23.24,10.4 -23.24,23.23 0,12.84 10.4,23.24 23.24,23.24 12.82,0 23.22,-10.4 23.22,-23.24"
             style="fill:#f6f2ec;fill-opacity:1;fill-rule:nonzero;stroke:none"
             id="path282" /><path
             d="m 1211.78,2292.94 c 0,-12.84 -10.4,-23.24 -23.23,-23.24 -12.83,0 -23.23,10.4 -23.23,23.24 0,12.83 10.4,23.23 23.23,23.23 12.83,0 23.23,-10.4 23.23,-23.23"
             style="fill:#f6f2ec;fill-opacity:1;fill-rule:nonzero;stroke:none"
             id="path284" /><path
             d="m 1314.43,2292.94 c 0,-12.84 -10.4,-23.24 -23.23,-23.24 -12.83,0 -23.23,10.4 -23.23,23.24 0,12.83 10.4,23.23 23.23,23.23 12.83,0 23.23,-10.4 23.23,-23.23"
             style="fill:#f6f2ec;fill-opacity:1;fill-rule:nonzero;stroke:none"
             id="path286" /><path
             d="m 1417.08,2292.94 c 0,-12.84 -10.4,-23.24 -23.24,-23.24 -12.82,0 -23.22,10.4 -23.22,23.24 0,12.83 10.4,23.23 23.22,23.23 12.84,0 23.24,-10.4 23.24,-23.23"
             style="fill:#f6f2ec;fill-opacity:1;fill-rule:nonzero;stroke:none"
             id="path288" /><path
             d="m 1519.72,2292.94 c 0,-12.84 -10.4,-23.24 -23.23,-23.24 -12.83,0 -23.23,10.4 -23.23,23.24 0,12.83 10.4,23.23 23.23,23.23 12.83,0 23.23,-10.4 23.23,-23.23"
             style="fill:#f6f2ec;fill-opacity:1;fill-rule:nonzero;stroke:none"
             id="path290" /><path
             d="m 1622.37,2292.94 c 0,-12.84 -10.4,-23.24 -23.23,-23.24 -12.83,0 -23.23,10.4 -23.23,23.24 0,12.83 10.4,23.23 23.23,23.23 12.83,0 23.23,-10.4 23.23,-23.23"
             style="fill:#f6f2ec;fill-opacity:1;fill-rule:nonzero;stroke:none"
             id="path292" /><path
             d="m 1725.02,2292.94 c 0,-12.84 -10.4,-23.24 -23.23,-23.24 -12.83,0 -23.23,10.4 -23.23,23.24 0,12.83 10.4,23.23 23.23,23.23 12.83,0 23.23,-10.4 23.23,-23.23"
             style="fill:#f6f2ec;fill-opacity:1;fill-rule:nonzero;stroke:none"
             id="path294" /><path
             d="m 1827.67,2292.94 c 0,-12.84 -10.4,-23.24 -23.24,-23.24 -12.82,0 -23.22,10.4 -23.22,23.24 0,12.83 10.4,23.23 23.22,23.23 12.84,0 23.24,-10.4 23.24,-23.23"
             style="fill:#f6f2ec;fill-opacity:1;fill-rule:nonzero;stroke:none"
             id="path296" /><path
             d="m 1930.31,2292.94 c 0,-12.84 -10.4,-23.24 -23.22,-23.24 -12.84,0 -23.24,10.4 -23.24,23.24 0,12.83 10.4,23.23 23.24,23.23 12.82,0 23.22,-10.4 23.22,-23.23"
             style="fill:#f6f2ec;fill-opacity:1;fill-rule:nonzero;stroke:none"
             id="path298" /><path
             d="m 1211.78,2201.62 c 0,-12.82 -10.4,-23.22 -23.23,-23.22 -12.83,0 -23.23,10.4 -23.23,23.22 0,12.83 10.4,23.23 23.23,23.23 12.83,0 23.23,-10.4 23.23,-23.23"
             style="fill:#f6f2ec;fill-opacity:1;fill-rule:nonzero;stroke:none"
             id="path300" /><path
             d="m 1314.43,2201.62 c 0,-12.82 -10.4,-23.22 -23.23,-23.22 -12.83,0 -23.23,10.4 -23.23,23.22 0,12.83 10.4,23.23 23.23,23.23 12.83,0 23.23,-10.4 23.23,-23.23"
             style="fill:#f6f2ec;fill-opacity:1;fill-rule:nonzero;stroke:none"
             id="path302" /><path
             d="m 1417.08,2201.62 c 0,-12.82 -10.4,-23.22 -23.24,-23.22 -12.82,0 -23.22,10.4 -23.22,23.22 0,12.83 10.4,23.23 23.22,23.23 12.84,0 23.24,-10.4 23.24,-23.23"
             style="fill:#f6f2ec;fill-opacity:1;fill-rule:nonzero;stroke:none"
             id="path304" /><path
             d="m 1519.72,2201.62 c 0,-12.82 -10.4,-23.22 -23.23,-23.22 -12.83,0 -23.23,10.4 -23.23,23.22 0,12.83 10.4,23.23 23.23,23.23 12.83,0 23.23,-10.4 23.23,-23.23"
             style="fill:#f6f2ec;fill-opacity:1;fill-rule:nonzero;stroke:none"
             id="path306" /><path
             d="m 1622.37,2201.62 c 0,-12.82 -10.4,-23.22 -23.23,-23.22 -12.83,0 -23.23,10.4 -23.23,23.22 0,12.83 10.4,23.23 23.23,23.23 12.83,0 23.23,-10.4 23.23,-23.23"
             style="fill:#f6f2ec;fill-opacity:1;fill-rule:nonzero;stroke:none"
             id="path308" /><path
             d="m 1725.02,2201.62 c 0,-12.82 -10.4,-23.22 -23.23,-23.22 -12.83,0 -23.23,10.4 -23.23,23.22 0,12.83 10.4,23.23 23.23,23.23 12.83,0 23.23,-10.4 23.23,-23.23"
             style="fill:#f6f2ec;fill-opacity:1;fill-rule:nonzero;stroke:none"
             id="path310" /><path
             d="m 1827.67,2201.62 c 0,-12.82 -10.4,-23.22 -23.24,-23.22 -12.82,0 -23.22,10.4 -23.22,23.22 0,12.83 10.4,23.23 23.22,23.23 12.84,0 23.24,-10.4 23.24,-23.23"
             style="fill:#f6f2ec;fill-opacity:1;fill-rule:nonzero;stroke:none"
             id="path312" /><path
             d="m 1930.31,2201.62 c 0,-12.82 -10.4,-23.22 -23.22,-23.22 -12.84,0 -23.24,10.4 -23.24,23.22 0,12.83 10.4,23.23 23.24,23.23 12.82,0 23.22,-10.4 23.22,-23.23"
             style="fill:#f6f2ec;fill-opacity:1;fill-rule:nonzero;stroke:none"
             id="path314" /><path
             d="m 1211.78,2110.31 c 0,-12.83 -10.4,-23.23 -23.23,-23.23 -12.83,0 -23.23,10.4 -23.23,23.23 0,12.82 10.4,23.23 23.23,23.23 12.83,0 23.23,-10.41 23.23,-23.23"
             style="fill:#f6f2ec;fill-opacity:1;fill-rule:nonzero;stroke:none"
             id="path316" /><path
             d="m 1314.43,2110.31 c 0,-12.83 -10.4,-23.23 -23.23,-23.23 -12.83,0 -23.23,10.4 -23.23,23.23 0,12.82 10.4,23.23 23.23,23.23 12.83,0 23.23,-10.41 23.23,-23.23"
             style="fill:#f6f2ec;fill-opacity:1;fill-rule:nonzero;stroke:none"
             id="path318" /><path
             d="m 1417.08,2110.31 c 0,-12.83 -10.4,-23.23 -23.24,-23.23 -12.82,0 -23.22,10.4 -23.22,23.23 0,12.82 10.4,23.23 23.22,23.23 12.84,0 23.24,-10.41 23.24,-23.23"
             style="fill:#f6f2ec;fill-opacity:1;fill-rule:nonzero;stroke:none"
             id="path320" /><path
             d="m 1519.72,2110.31 c 0,-12.83 -10.4,-23.23 -23.23,-23.23 -12.83,0 -23.23,10.4 -23.23,23.23 0,12.82 10.4,23.23 23.23,23.23 12.83,0 23.23,-10.41 23.23,-23.23"
             style="fill:#f6f2ec;fill-opacity:1;fill-rule:nonzero;stroke:none"
             id="path322" /><path
             d="m 1622.37,2110.31 c 0,-12.83 -10.4,-23.23 -23.23,-23.23 -12.83,0 -23.23,10.4 -23.23,23.23 0,12.82 10.4,23.23 23.23,23.23 12.83,0 23.23,-10.41 23.23,-23.23"
             style="fill:#f6f2ec;fill-opacity:1;fill-rule:nonzero;stroke:none"
             id="path324" /><path
             d="m 1725.02,2110.31 c 0,-12.83 -10.4,-23.23 -23.23,-23.23 -12.83,0 -23.23,10.4 -23.23,23.23 0,12.82 10.4,23.23 23.23,23.23 12.83,0 23.23,-10.41 23.23,-23.23"
             style="fill:#f6f2ec;fill-opacity:1;fill-rule:nonzero;stroke:none"
             id="path326" /><path
             d="m 1827.67,2110.31 c 0,-12.83 -10.4,-23.23 -23.24,-23.23 -12.82,0 -23.22,10.4 -23.22,23.23 0,12.82 10.4,23.23 23.22,23.23 12.84,0 23.24,-10.41 23.24,-23.23"
             style="fill:#f6f2ec;fill-opacity:1;fill-rule:nonzero;stroke:none"
             id="path328" /><path
             d="m 1930.31,2110.31 c 0,-12.83 -10.4,-23.23 -23.22,-23.23 -12.84,0 -23.24,10.4 -23.24,23.23 0,12.82 10.4,23.23 23.24,23.23 12.82,0 23.22,-10.41 23.22,-23.23"
             style="fill:#f6f2ec;fill-opacity:1;fill-rule:nonzero;stroke:none"
             id="path330" /><path
             d="m 1211.78,2018.99 c 0,-12.83 -10.4,-23.23 -23.23,-23.23 -12.83,0 -23.23,10.4 -23.23,23.23 0,12.83 10.4,23.23 23.23,23.23 12.83,0 23.23,-10.4 23.23,-23.23"
             style="fill:#f6f2ec;fill-opacity:1;fill-rule:nonzero;stroke:none"
             id="path332" /><path
             d="m 1314.43,2018.99 c 0,-12.83 -10.4,-23.23 -23.23,-23.23 -12.83,0 -23.23,10.4 -23.23,23.23 0,12.83 10.4,23.23 23.23,23.23 12.83,0 23.23,-10.4 23.23,-23.23"
             style="fill:#f6f2ec;fill-opacity:1;fill-rule:nonzero;stroke:none"
             id="path334" /><path
             d="m 1417.08,2018.99 c 0,-12.83 -10.4,-23.23 -23.24,-23.23 -12.82,0 -23.22,10.4 -23.22,23.23 0,12.83 10.4,23.23 23.22,23.23 12.84,0 23.24,-10.4 23.24,-23.23"
             style="fill:#f6f2ec;fill-opacity:1;fill-rule:nonzero;stroke:none"
             id="path336" /><path
             d="m 1519.72,2018.99 c 0,-12.83 -10.4,-23.23 -23.23,-23.23 -12.83,0 -23.23,10.4 -23.23,23.23 0,12.83 10.4,23.23 23.23,23.23 12.83,0 23.23,-10.4 23.23,-23.23"
             style="fill:#f6f2ec;fill-opacity:1;fill-rule:nonzero;stroke:none"
             id="path338" /><path
             d="m 1622.37,2018.99 c 0,-12.83 -10.4,-23.23 -23.23,-23.23 -12.83,0 -23.23,10.4 -23.23,23.23 0,12.83 10.4,23.23 23.23,23.23 12.83,0 23.23,-10.4 23.23,-23.23"
             style="fill:#f6f2ec;fill-opacity:1;fill-rule:nonzero;stroke:none"
             id="path340" /><path
             d="m 1725.02,2018.99 c 0,-12.83 -10.4,-23.23 -23.23,-23.23 -12.83,0 -23.23,10.4 -23.23,23.23 0,12.83 10.4,23.23 23.23,23.23 12.83,0 23.23,-10.4 23.23,-23.23"
             style="fill:#f6f2ec;fill-opacity:1;fill-rule:nonzero;stroke:none"
             id="path342" /><path
             d="m 1827.67,2018.99 c 0,-12.83 -10.4,-23.23 -23.24,-23.23 -12.82,0 -23.22,10.4 -23.22,23.23 0,12.83 10.4,23.23 23.22,23.23 12.84,0 23.24,-10.4 23.24,-23.23"
             style="fill:#f6f2ec;fill-opacity:1;fill-rule:nonzero;stroke:none"
             id="path344" /><path
             d="m 1930.31,2018.99 c 0,-12.83 -10.4,-23.23 -23.22,-23.23 -12.84,0 -23.24,10.4 -23.24,23.23 0,12.83 10.4,23.23 23.24,23.23 12.82,0 23.22,-10.4 23.22,-23.23"
             style="fill:#f6f2ec;fill-opacity:1;fill-rule:nonzero;stroke:none"
             id="path346" /><path
             d="m 1211.78,1927.67 c 0,-12.82 -10.4,-23.23 -23.23,-23.23 -12.83,0 -23.23,10.41 -23.23,23.23 0,12.83 10.4,23.23 23.23,23.23 12.83,0 23.23,-10.4 23.23,-23.23"
             style="fill:#f6f2ec;fill-opacity:1;fill-rule:nonzero;stroke:none"
             id="path348" /><path
             d="m 1314.43,1927.67 c 0,-12.82 -10.4,-23.23 -23.23,-23.23 -12.83,0 -23.23,10.41 -23.23,23.23 0,12.83 10.4,23.23 23.23,23.23 12.83,0 23.23,-10.4 23.23,-23.23"
             style="fill:#f6f2ec;fill-opacity:1;fill-rule:nonzero;stroke:none"
             id="path350" /><path
             d="m 1417.08,1927.67 c 0,-12.82 -10.4,-23.23 -23.24,-23.23 -12.82,0 -23.22,10.41 -23.22,23.23 0,12.83 10.4,23.23 23.22,23.23 12.84,0 23.24,-10.4 23.24,-23.23"
             style="fill:#f6f2ec;fill-opacity:1;fill-rule:nonzero;stroke:none"
             id="path352" /><path
             d="m 1519.72,1927.67 c 0,-12.82 -10.4,-23.23 -23.23,-23.23 -12.83,0 -23.23,10.41 -23.23,23.23 0,12.83 10.4,23.23 23.23,23.23 12.83,0 23.23,-10.4 23.23,-23.23"
             style="fill:#f6f2ec;fill-opacity:1;fill-rule:nonzero;stroke:none"
             id="path354" /><path
             d="m 1622.37,1927.67 c 0,-12.82 -10.4,-23.23 -23.23,-23.23 -12.83,0 -23.23,10.41 -23.23,23.23 0,12.83 10.4,23.23 23.23,23.23 12.83,0 23.23,-10.4 23.23,-23.23"
             style="fill:#f6f2ec;fill-opacity:1;fill-rule:nonzero;stroke:none"
             id="path356" /><path
             d="m 1725.02,1927.67 c 0,-12.82 -10.4,-23.23 -23.23,-23.23 -12.83,0 -23.23,10.41 -23.23,23.23 0,12.83 10.4,23.23 23.23,23.23 12.83,0 23.23,-10.4 23.23,-23.23"
             style="fill:#f6f2ec;fill-opacity:1;fill-rule:nonzero;stroke:none"
             id="path358" /><path
             d="m 1827.67,1927.67 c 0,-12.82 -10.4,-23.23 -23.24,-23.23 -12.82,0 -23.22,10.41 -23.22,23.23 0,12.83 10.4,23.23 23.22,23.23 12.84,0 23.24,-10.4 23.24,-23.23"
             style="fill:#f6f2ec;fill-opacity:1;fill-rule:nonzero;stroke:none"
             id="path360" /><path
             d="m 1930.31,1927.67 c 0,-12.82 -10.4,-23.23 -23.22,-23.23 -12.84,0 -23.24,10.41 -23.24,23.23 0,12.83 10.4,23.23 23.24,23.23 12.82,0 23.22,-10.4 23.22,-23.23"
             style="fill:#f6f2ec;fill-opacity:1;fill-rule:nonzero;stroke:none"
             id="path362" /><path
             d="m 1211.78,1836.36 c 0,-12.83 -10.4,-23.23 -23.23,-23.23 -12.83,0 -23.23,10.4 -23.23,23.23 0,12.83 10.4,23.23 23.23,23.23 12.83,0 23.23,-10.4 23.23,-23.23"
             style="fill:#f6f2ec;fill-opacity:1;fill-rule:nonzero;stroke:none"
             id="path364" /><path
             d="m 1314.43,1836.36 c 0,-12.83 -10.4,-23.23 -23.23,-23.23 -12.83,0 -23.23,10.4 -23.23,23.23 0,12.83 10.4,23.23 23.23,23.23 12.83,0 23.23,-10.4 23.23,-23.23"
             style="fill:#f6f2ec;fill-opacity:1;fill-rule:nonzero;stroke:none"
             id="path366" /><path
             d="m 1417.08,1836.36 c 0,-12.83 -10.4,-23.23 -23.24,-23.23 -12.82,0 -23.22,10.4 -23.22,23.23 0,12.83 10.4,23.23 23.22,23.23 12.84,0 23.24,-10.4 23.24,-23.23"
             style="fill:#f6f2ec;fill-opacity:1;fill-rule:nonzero;stroke:none"
             id="path368" /><path
             d="m 1519.72,1836.36 c 0,-12.83 -10.4,-23.23 -23.23,-23.23 -12.83,0 -23.23,10.4 -23.23,23.23 0,12.83 10.4,23.23 23.23,23.23 12.83,0 23.23,-10.4 23.23,-23.23"
             style="fill:#f6f2ec;fill-opacity:1;fill-rule:nonzero;stroke:none"
             id="path370" /><path
             d="m 1622.37,1836.36 c 0,-12.83 -10.4,-23.23 -23.23,-23.23 -12.83,0 -23.23,10.4 -23.23,23.23 0,12.83 10.4,23.23 23.23,23.23 12.83,0 23.23,-10.4 23.23,-23.23"
             style="fill:#f6f2ec;fill-opacity:1;fill-rule:nonzero;stroke:none"
             id="path372" /><path
             d="m 1725.02,1836.36 c 0,-12.83 -10.4,-23.23 -23.23,-23.23 -12.83,0 -23.23,10.4 -23.23,23.23 0,12.83 10.4,23.23 23.23,23.23 12.83,0 23.23,-10.4 23.23,-23.23"
             style="fill:#f6f2ec;fill-opacity:1;fill-rule:nonzero;stroke:none"
             id="path374" /><path
             d="m 1827.67,1836.36 c 0,-12.83 -10.4,-23.23 -23.24,-23.23 -12.82,0 -23.22,10.4 -23.22,23.23 0,12.83 10.4,23.23 23.22,23.23 12.84,0 23.24,-10.4 23.24,-23.23"
             style="fill:#f6f2ec;fill-opacity:1;fill-rule:nonzero;stroke:none"
             id="path376" /><path
             d="m 1930.31,1836.36 c 0,-12.83 -10.4,-23.23 -23.22,-23.23 -12.84,0 -23.24,10.4 -23.24,23.23 0,12.83 10.4,23.23 23.24,23.23 12.82,0 23.22,-10.4 23.22,-23.23"
             style="fill:#f6f2ec;fill-opacity:1;fill-rule:nonzero;stroke:none"
             id="path378" /><path
             d="m 1211.78,1745.05 c 0,-12.84 -10.4,-23.24 -23.23,-23.24 -12.83,0 -23.23,10.4 -23.23,23.24 0,12.83 10.4,23.23 23.23,23.23 12.83,0 23.23,-10.4 23.23,-23.23"
             style="fill:#f6f2ec;fill-opacity:1;fill-rule:nonzero;stroke:none"
             id="path380" /><path
             d="m 1314.43,1745.05 c 0,-12.84 -10.4,-23.24 -23.23,-23.24 -12.83,0 -23.23,10.4 -23.23,23.24 0,12.83 10.4,23.23 23.23,23.23 12.83,0 23.23,-10.4 23.23,-23.23"
             style="fill:#f6f2ec;fill-opacity:1;fill-rule:nonzero;stroke:none"
             id="path382" /><path
             d="m 1417.08,1745.05 c 0,-12.84 -10.4,-23.24 -23.24,-23.24 -12.82,0 -23.22,10.4 -23.22,23.24 0,12.83 10.4,23.23 23.22,23.23 12.84,0 23.24,-10.4 23.24,-23.23"
             style="fill:#f6f2ec;fill-opacity:1;fill-rule:nonzero;stroke:none"
             id="path384" /><path
             d="m 1519.72,1745.05 c 0,-12.84 -10.4,-23.24 -23.23,-23.24 -12.83,0 -23.23,10.4 -23.23,23.24 0,12.83 10.4,23.23 23.23,23.23 12.83,0 23.23,-10.4 23.23,-23.23"
             style="fill:#f6f2ec;fill-opacity:1;fill-rule:nonzero;stroke:none"
             id="path386" /><path
             d="m 1622.37,1745.05 c 0,-12.84 -10.4,-23.24 -23.23,-23.24 -12.83,0 -23.23,10.4 -23.23,23.24 0,12.83 10.4,23.23 23.23,23.23 12.83,0 23.23,-10.4 23.23,-23.23"
             style="fill:#f6f2ec;fill-opacity:1;fill-rule:nonzero;stroke:none"
             id="path388" /><path
             d="m 1725.02,1745.05 c 0,-12.84 -10.4,-23.24 -23.23,-23.24 -12.83,0 -23.23,10.4 -23.23,23.24 0,12.83 10.4,23.23 23.23,23.23 12.83,0 23.23,-10.4 23.23,-23.23"
             style="fill:#f6f2ec;fill-opacity:1;fill-rule:nonzero;stroke:none"
             id="path390" /><path
             d="m 1827.67,1745.05 c 0,-12.84 -10.4,-23.24 -23.24,-23.24 -12.82,0 -23.22,10.4 -23.22,23.24 0,12.83 10.4,23.23 23.22,23.23 12.84,0 23.24,-10.4 23.24,-23.23"
             style="fill:#f6f2ec;fill-opacity:1;fill-rule:nonzero;stroke:none"
             id="path392" /><path
             d="m 1930.31,1745.05 c 0,-12.84 -10.4,-23.24 -23.22,-23.24 -12.84,0 -23.24,10.4 -23.24,23.24 0,12.83 10.4,23.23 23.24,23.23 12.82,0 23.22,-10.4 23.22,-23.23"
             style="fill:#f6f2ec;fill-opacity:1;fill-rule:nonzero;stroke:none"
             id="path394" /><path
             d="m 1211.78,1653.73 c 0,-12.83 -10.4,-23.24 -23.23,-23.24 -12.83,0 -23.23,10.41 -23.23,23.24 0,12.83 10.4,23.23 23.23,23.23 12.83,0 23.23,-10.4 23.23,-23.23"
             style="fill:#f6f2ec;fill-opacity:1;fill-rule:nonzero;stroke:none"
             id="path396" /><path
             d="m 1314.43,1653.73 c 0,-12.83 -10.4,-23.24 -23.23,-23.24 -12.83,0 -23.23,10.41 -23.23,23.24 0,12.83 10.4,23.23 23.23,23.23 12.83,0 23.23,-10.4 23.23,-23.23"
             style="fill:#f6f2ec;fill-opacity:1;fill-rule:nonzero;stroke:none"
             id="path398" /><path
             d="m 1417.08,1653.73 c 0,-12.83 -10.4,-23.24 -23.24,-23.24 -12.82,0 -23.22,10.41 -23.22,23.24 0,12.83 10.4,23.23 23.22,23.23 12.84,0 23.24,-10.4 23.24,-23.23"
             style="fill:#f6f2ec;fill-opacity:1;fill-rule:nonzero;stroke:none"
             id="path400" /><path
             d="m 1519.72,1653.73 c 0,-12.83 -10.4,-23.24 -23.23,-23.24 -12.83,0 -23.23,10.41 -23.23,23.24 0,12.83 10.4,23.23 23.23,23.23 12.83,0 23.23,-10.4 23.23,-23.23"
             style="fill:#f6f2ec;fill-opacity:1;fill-rule:nonzero;stroke:none"
             id="path402" /><path
             d="m 1622.37,1653.73 c 0,-12.83 -10.4,-23.24 -23.23,-23.24 -12.83,0 -23.23,10.41 -23.23,23.24 0,12.83 10.4,23.23 23.23,23.23 12.83,0 23.23,-10.4 23.23,-23.23"
             style="fill:#f6f2ec;fill-opacity:1;fill-rule:nonzero;stroke:none"
             id="path404" /><path
             d="m 1725.02,1653.73 c 0,-12.83 -10.4,-23.24 -23.23,-23.24 -12.83,0 -23.23,10.41 -23.23,23.24 0,12.83 10.4,23.23 23.23,23.23 12.83,0 23.23,-10.4 23.23,-23.23"
             style="fill:#f6f2ec;fill-opacity:1;fill-rule:nonzero;stroke:none"
             id="path406" /><path
             d="m 1827.67,1653.73 c 0,-12.83 -10.4,-23.24 -23.24,-23.24 -12.82,0 -23.22,10.41 -23.22,23.24 0,12.83 10.4,23.23 23.22,23.23 12.84,0 23.24,-10.4 23.24,-23.23"
             style="fill:#f6f2ec;fill-opacity:1;fill-rule:nonzero;stroke:none"
             id="path408" /><path
             d="m 1930.31,1653.73 c 0,-12.83 -10.4,-23.24 -23.22,-23.24 -12.84,0 -23.24,10.41 -23.24,23.24 0,12.83 10.4,23.23 23.24,23.23 12.82,0 23.22,-10.4 23.22,-23.23"
             style="fill:#f6f2ec;fill-opacity:1;fill-rule:nonzero;stroke:none"
             id="path410" /></g></g><path
         d="m 1513.36,2501.27 9.15,128.94 h -136.53 l -24.28,-128.94 h 151.66"
         style="fill:#f03c7a;fill-opacity:1;fill-rule:nonzero;stroke:none"
         id="path412" /><path
         d="m 1712.51,1669.79 v 0 c -91.57,0 -165.8,74.23 -165.8,165.79 v 419.66 l -49.19,-416.92 c -10,-84.85 53.88,-160.44 139.2,-164.73 l 75.79,-3.8"
         style="fill:#433397;fill-opacity:1;fill-rule:nonzero;stroke:none"
         id="path414" /><path
         d="m 2191.31,643.559 c -41.94,42.621 -77.94,90.711 -106.99,142.98 l -7.85,14.133 20.4,101.039 H 1982.56 V 798.73 l -49.86,-91.308 287.54,-159.32 c 7.6,33.429 -2.34,68.437 -26.4,92.878 l -2.53,2.579"
         style="fill:#f03c7a;fill-opacity:1;fill-rule:nonzero;stroke:none"
         id="path416" /><path
         d="m 2220.24,548.102 c 7.6,33.429 -2.34,68.437 -26.4,92.878 l -2.53,2.579 c -41.94,42.621 -77.94,90.711 -106.99,142.98 l -7.85,14.133 -31.82,-25.25 -62.09,23.308 -49.86,-91.308 287.54,-159.32"
         style="fill:#433397;fill-opacity:1;fill-rule:nonzero;stroke:none"
         id="path418" /><path
         d="m 1685.82,1333.02 -69.88,-274.11 141.83,-36.15 166.51,310.26 h -238.46"
         style="fill:#433397;fill-opacity:1;fill-rule:nonzero;stroke:none"
         id="path420" /><path
         d="m 1775.16,751.922 c -30.12,51.66 -53.11,107.16 -68.35,164.976 l -4.12,15.641 44.72,92.861 -110.76,28.23 -25.43,-99.778 -70.88,-76.172 239.27,-225.41 c 15.63,30.531 14.64,66.91 -2.63,96.539 l -1.82,3.113"
         style="fill:#f03c7a;fill-opacity:1;fill-rule:nonzero;stroke:none"
         id="path422" /><path
         d="m 1779.61,652.27 c 15.63,30.531 14.64,66.91 -2.63,96.539 l -1.82,3.113 c -30.12,51.66 -53.11,107.16 -68.35,164.976 l -4.12,15.641 -37.07,-16.617 -54.4,37.93 -70.88,-76.172 239.27,-225.41"
         style="fill:#433397;fill-opacity:1;fill-rule:nonzero;stroke:none"
         id="path424" /><path
         d="m 1747.41,1025.4 -110.76,28.23 -5.16,-20.23 z"
         style="fill:#100f0d;fill-opacity:1;fill-rule:nonzero;stroke:none"
         id="path426" /><path
         d="m 1782.85,1235.88 h -520.69 c -26.71,0 -48.57,21.85 -48.57,48.57 v 0 c 0,26.72 21.86,48.57 48.57,48.57 h 520.69 c 26.72,0 48.58,-21.85 48.58,-48.57 v 0 c 0,-26.72 -21.86,-48.57 -48.58,-48.57"
         style="fill:#100f0d;fill-opacity:1;fill-rule:nonzero;stroke:none"
         id="path428" /><path
         d="m 1343.99,513.129 h -62.17 l 143.31,722.751 h 62.18 L 1343.99,513.129"
         style="fill:#100f0d;fill-opacity:1;fill-rule:nonzero;stroke:none"
         id="path430" /><path
         d="m 1630.99,1235.88 h -62.18 l 143.31,-722.751 h 62.17 l -143.3,722.751"
         style="fill:#100f0d;fill-opacity:1;fill-rule:nonzero;stroke:none"
         id="path432" /><path
         d="m 4254.8,1235.88 h -520.69 c -26.72,0 -48.57,21.85 -48.57,48.57 v 0 c 0,26.72 21.85,48.57 48.57,48.57 h 520.69 c 26.71,0 48.57,-21.85 48.57,-48.57 v 0 c 0,-26.72 -21.86,-48.57 -48.57,-48.57"
         style="fill:#f9b01a;fill-opacity:1;fill-rule:nonzero;stroke:none"
         id="path434" /><path
         d="m 3815.94,513.129 h -62.17 l 143.31,722.751 h 62.17 L 3815.94,513.129"
         style="fill:#f9b01a;fill-opacity:1;fill-rule:nonzero;stroke:none"
         id="path436" /><path
         d="m 4102.93,1235.88 h -62.17 l 143.3,-722.751 h 62.18 l -143.31,722.751"
         style="fill:#f9b01a;fill-opacity:1;fill-rule:nonzero;stroke:none"
         id="path438" /><path
         d="m 4169.07,2612.11 c 7.15,9.25 12.52,20.09 15.31,32.18 l 18.29,79.48 c 10.35,44.96 -17.97,90.21 -62.93,100.55 l -129.43,29.79 c -41.71,9.6 -83.62,-14.11 -97.72,-53.48 l 77.39,-17.65 v 0 c -12.13,-40.44 6.5,-83.76 44.18,-102.79 l 134.91,-68.08"
         style="fill:#100f0d;fill-opacity:1;fill-rule:nonzero;stroke:none"
         id="path440" /><path
         d="m 4034.16,2680.19 -27.49,-329.64 c -4.65,-55.78 16.51,-110.61 57.43,-148.81 v 0 c 35.76,-33.37 86.25,-45.85 133.45,-32.98 l 43.66,11.91 c 44.44,12.12 78.06,48.54 86.6,93.8 v 0 c 5.99,31.72 -0.74,64.52 -18.73,91.32 l -20.01,29.8 c -42.91,63.94 -64.06,140.01 -60.29,216.92 l 0.82,16.9 c 2.53,51.72 -8.86,103.17 -32.99,148.99 v 0 l -162.45,-98.21"
         style="fill:#100f0d;fill-opacity:1;fill-rule:nonzero;stroke:none"
         id="path442" /><path
         d="m 4318.56,1606.97 h -813.52 c -80.07,0 -142.32,-69.65 -133.38,-149.22 l 76.49,-680.391 -67.32,-139.269 c -5.18,-10.711 -12.01,-20.531 -20.23,-29.129 v 0 c -20.72,-21.602 -32.27,-50.371 -32.27,-80.289 v 0 l 288.84,170.129 -68,99.929 38.86,530.41 h 599.3 c 67.79,0 123.38,53.69 125.76,121.42 l 5.47,156.41"
         style="fill:#f03c7a;fill-opacity:1;fill-rule:nonzero;stroke:none"
         id="path444" /><path
         d="m 3505.04,1606.97 c -80.07,0 -142.32,-69.65 -133.38,-149.22 l 53.76,-478.258 h 136.99 l 25.62,349.648 h 599.3 c 67.79,0 123.38,53.69 125.76,121.42 l 5.47,156.41 h -813.52"
         style="fill:#100f0d;fill-opacity:1;fill-rule:nonzero;stroke:none"
         id="path446" /><path
         d="m 3549.17,798.73 c 0,0 -64.11,-52.449 -69.94,-52.449 -5.83,0 -31.08,31.078 -31.08,31.078 L 3380.83,638.09 c -5.18,-10.711 -12,-20.531 -20.23,-29.129 -20.72,-21.602 -32.27,-50.371 -32.27,-80.289 l 288.84,170.129 -68,99.929"
         style="fill:#433397;fill-opacity:1;fill-rule:nonzero;stroke:none"
         id="path448" /><path
         d="m 4630.17,3388.14 -2.34,1.81 c -17.98,13.92 -43.11,13.87 -61.05,-0.11 v 0 c -18.68,-14.57 -24.5,-40.3 -13.91,-61.49 l 2.75,-5.49 c 5.62,-11.25 15.29,-19.95 27.07,-24.35 l 120.7,-45.15 v 0 c -18.8,-23.35 -22.53,-55.42 -9.58,-82.46 l 3.21,-6.71 42.45,20.19 v -47.22 c 0,-13.87 5.8,-27.12 16.01,-36.53 l 23.11,-21.32 22.63,50.02 c 4.05,8.96 10.26,16.78 18.08,22.77 l 47.23,36.18 -50.1,99.04 -186.26,100.82"
         style="fill:#433397;fill-opacity:1;fill-rule:nonzero;stroke:none"
         id="path450" /><path
         d="m 4709.76,3365.85 c 0,-24.61 -19.95,-44.57 -44.57,-44.57 -24.62,0 -44.57,19.96 -44.57,44.57 0,24.62 19.95,44.58 44.57,44.58 24.62,0 44.57,-19.96 44.57,-44.58"
         style="fill:#433397;fill-opacity:1;fill-rule:nonzero;stroke:none"
         id="path452" /><path
         d="m 4778.59,3337.2 c 0,-24.62 -19.96,-44.57 -44.58,-44.57 -24.61,0 -44.57,19.95 -44.57,44.57 0,24.61 19.96,44.57 44.57,44.57 24.62,0 44.58,-19.96 44.58,-44.57"
         style="fill:#433397;fill-opacity:1;fill-rule:nonzero;stroke:none"
         id="path454" /><path
         d="m 4841.36,3292.63 c 0,-24.63 -19.96,-44.58 -44.57,-44.58 -24.62,0 -44.58,19.95 -44.58,44.58 0,24.61 19.96,44.57 44.58,44.57 24.61,0 44.57,-19.96 44.57,-44.57"
         style="fill:#433397;fill-opacity:1;fill-rule:nonzero;stroke:none"
         id="path456" /><path
         d="m 4880.65,3228.4 c 0,-35.46 -28.75,-64.21 -64.22,-64.21 -35.46,0 -64.22,28.75 -64.22,64.21 0,35.47 28.76,64.23 64.22,64.23 35.47,0 64.22,-28.76 64.22,-64.23"
         style="fill:#433397;fill-opacity:1;fill-rule:nonzero;stroke:none"
         id="path458" /><path
         d="M 4828.64,2980.58 H 4660.5 c -109.45,0 -198.18,-88.72 -198.18,-198.17 v -695.55 h 427.44 v 147.66 l 151.84,174.42 c 33.56,38.56 44.42,91.91 28.6,140.51 l -111.14,341.39 c -20.67,54.05 -72.55,89.74 -130.42,89.74"
         style="fill:#6bc3ef;fill-opacity:1;fill-rule:nonzero;stroke:none"
         id="path460" /><path
         d="m 2282.05,3278.5 h -570.48 c -21.66,0 -39.22,17.56 -39.22,39.22 v 0 c 0,21.66 17.56,39.22 39.22,39.22 h 570.48 c 21.66,0 39.22,-17.56 39.22,-39.22 v 0 c 0,-21.66 -17.56,-39.22 -39.22,-39.22"
         style="fill:#f6f2ec;fill-opacity:1;fill-rule:nonzero;stroke:none"
         id="path462" /><path
         d="m 2421.23,3124.46 h -729.27 c -10.83,0 -19.61,8.78 -19.61,19.61 v 0 c 0,10.83 8.78,19.61 19.61,19.61 h 729.27 c 10.83,0 19.61,-8.78 19.61,-19.61 v 0 c 0,-10.83 -8.78,-19.61 -19.61,-19.61"
         style="fill:#f6f2ec;fill-opacity:1;fill-rule:nonzero;stroke:none"
         id="path464" /><path
         d="m 1878.12,3043.12 h -186.16 c -10.83,0 -19.61,-8.78 -19.61,-19.61 v 0 c 0,-10.83 8.78,-19.61 19.61,-19.61 h 186.16 c 10.83,0 19.61,8.78 19.61,19.61 v 0 c 0,10.83 -8.78,19.61 -19.61,19.61"
         style="fill:#f6f2ec;fill-opacity:1;fill-rule:nonzero;stroke:none"
         id="path466" /><path
         d="m 1990.98,3023.51 v 0 c 0,-10.83 8.78,-19.61 19.61,-19.61 h 410.64 c 10.83,0 19.61,8.78 19.61,19.61 v 0 c 0,10.83 -8.78,19.61 -19.61,19.61 h -410.64 c -10.83,0 -19.61,-8.78 -19.61,-19.61"
         style="fill:#f6f2ec;fill-opacity:1;fill-rule:nonzero;stroke:none"
         id="path468" /><path
         d="m 1831.48,2922.56 h -139.52 c -10.83,0 -19.61,-8.78 -19.61,-19.61 v 0 c 0,-10.83 8.78,-19.61 19.61,-19.61 h 139.52 c 10.83,0 19.61,8.78 19.61,19.61 v 0 c 0,10.83 -8.78,19.61 -19.61,19.61"
         style="fill:#f6f2ec;fill-opacity:1;fill-rule:nonzero;stroke:none"
         id="path470" /><path
         d="m 1921.04,2902.95 v 0 c 0,-10.83 8.77,-19.61 19.61,-19.61 h 480.58 c 10.83,0 19.61,8.78 19.61,19.61 v 0 c 0,10.83 -8.78,19.61 -19.61,19.61 h -480.58 c -10.84,0 -19.61,-8.78 -19.61,-19.61"
         style="fill:#f6f2ec;fill-opacity:1;fill-rule:nonzero;stroke:none"
         id="path472" /><path
         d="m 2018,2801.99 h -326.04 c -10.83,0 -19.61,-8.78 -19.61,-19.61 v 0 c 0,-10.83 8.78,-19.61 19.61,-19.61 H 2018 c 10.83,0 19.61,8.78 19.61,19.61 v 0 c 0,10.83 -8.78,19.61 -19.61,19.61"
         style="fill:#f6f2ec;fill-opacity:1;fill-rule:nonzero;stroke:none"
         id="path474" /><path
         d="m 2095.9,2782.38 v 0 c 0,-10.83 8.78,-19.61 19.61,-19.61 h 186.15 c 10.83,0 19.61,8.78 19.61,19.61 v 0 c 0,10.83 -8.78,19.61 -19.61,19.61 h -186.15 c -10.83,0 -19.61,-8.78 -19.61,-19.61"
         style="fill:#f6f2ec;fill-opacity:1;fill-rule:nonzero;stroke:none"
         id="path476" /><path
         d="m 2278.35,2681.43 h -586.39 c -10.83,0 -19.61,-8.78 -19.61,-19.61 v 0 c 0,-10.83 8.78,-19.61 19.61,-19.61 h 586.39 c 10.83,0 19.6,8.78 19.6,19.61 v 0 c 0,10.83 -8.77,19.61 -19.6,19.61"
         style="fill:#f6f2ec;fill-opacity:1;fill-rule:nonzero;stroke:none"
         id="path478" /><path
         d="m 1944.17,2560.87 h -252.21 c -10.83,0 -19.61,-8.78 -19.61,-19.61 v 0 c 0,-10.83 8.78,-19.61 19.61,-19.61 h 252.21 c 10.83,0 19.61,8.78 19.61,19.61 v 0 c 0,10.83 -8.78,19.61 -19.61,19.61"
         style="fill:#f6f2ec;fill-opacity:1;fill-rule:nonzero;stroke:none"
         id="path480" /><path
         d="m 3328.33,3154.24 h -202.7 v 202.7 h 202.7 v -202.7"
         style="fill:#f6f2ec;fill-opacity:1;fill-rule:nonzero;stroke:none"
         id="path482" /><path
         d="m 3478.93,2902.55 h -202.71 v 202.7 h 202.71 v -202.7"
         style="fill:#f6f2ec;fill-opacity:1;fill-rule:nonzero;stroke:none"
         id="path484" /><path
         d="m 2960.16,2529.41 -4.21,34.1 c 0,0 -29.79,-6.4 -53.11,6.55 0,0 17.79,-30.68 57.32,-40.65"
         style="fill:#100f0d;fill-opacity:1;fill-rule:nonzero;stroke:none"
         id="path486" /><path
         d="m 1603.92,2825.83 c -13.73,37.68 -52.91,61.71 -93.85,54.96 l -110.3,-18.2 c -46.22,-7.61 -77.81,-51.67 -70.18,-97.89 l 24.68,-149.71 c 5.32,-32.26 36.06,-54.29 68.31,-48.98 v 0 c 32.08,5.3 59.41,26.23 72.86,55.83 l 17.1,37.65 c 17.09,37.62 25.94,78.47 25.94,119.78 v 0 c 0,0 42.81,11.82 65.44,46.56"
         style="fill:#433397;fill-opacity:1;fill-rule:nonzero;stroke:none"
         id="path488" /><path
         d="m 1529.56,2647.22 v 0 c -15.9,-9.18 -36.42,-3.68 -45.6,12.22 l -5.14,8.9 c -9.18,15.9 -3.68,36.42 12.22,45.6 v 0 c 15.9,9.18 36.43,3.68 45.61,-12.21 l 5.13,-8.9 c 9.18,-15.9 3.68,-36.43 -12.22,-45.61"
         style="fill:#f03c7a;fill-opacity:1;fill-rule:nonzero;stroke:none"
         id="path490" /><path
         d="m 1194.4,1562.35 477.95,37.49 H 1194.4 Z"
         style="fill:#100f0d;fill-opacity:1;fill-rule:nonzero;stroke:none"
         id="path492" /><path
         d="m 1982.56,901.711 h 114.31 L 1982.56,879.75 Z"
         style="fill:#100f0d;fill-opacity:1;fill-rule:nonzero;stroke:none"
         id="path494" /><path
         d="m 4027.49,2650.73 v 0 c -14.04,9.33 -17.9,28.46 -8.56,42.5 l 5.21,7.85 c 9.34,14.04 28.47,17.9 42.51,8.57 v 0 c 14.04,-9.33 17.89,-28.46 8.57,-42.5 l -5.23,-7.86 c -9.34,-14.04 -28.46,-17.9 -42.5,-8.56"
         style="fill:#f03c7a;fill-opacity:1;fill-rule:nonzero;stroke:none"
         id="path496" /><path
         d="m 3790.09,1777.94 95.85,346.55 -95.85,-474.06 z"
         style="fill:#100f0d;fill-opacity:1;fill-rule:nonzero;stroke:none"
         id="path498" /><path
         d="M 4535.87,2086.86 4674.56,823.141 h 20.91 V 756.5 c 0,-52.48 -40.18,-96.219 -92.46,-100.66 v 0 c -34.2,-2.91 -66.45,-18.961 -87.57,-46.008 -3.75,-4.793 -7.22,-9.84 -10.37,-15.113 v 0 h 303.08 v 228.422 h 54.41 l 27.2,1263.719 h -353.89"
         style="fill:#433397;fill-opacity:1;fill-rule:nonzero;stroke:none"
         id="path500" /><path
         d="m 4462.32,2086.86 418.33,-57.31 9.11,57.31 z"
         style="fill:#100f0d;fill-opacity:1;fill-rule:nonzero;stroke:none"
         id="path502" /><path
         d="m 4695.47,822.93 v -66.438 c 0,-52.472 -40.18,-96.211 -92.46,-100.652 v 0 c -34.2,-2.91 -66.45,-18.961 -87.57,-46.008 -3.75,-4.793 -7.22,-9.84 -10.37,-15.113 h 303.08 V 822.93 h -112.68"
         style="fill:#f03c7a;fill-opacity:1;fill-rule:nonzero;stroke:none"
         id="path504" /><path
         d="m 4808.15,665.449 -17.94,-3.39 c -41.45,-7.809 -84.01,6.14 -112.8,36.972 v 0 c -16.53,-23.851 -43.04,-40.371 -73.89,-43.14 -34.54,-3.121 -67.01,-18.95 -88.29,-46.309 -3.67,-4.73 -7.07,-9.691 -10.16,-14.863 h 303.08 v 70.73"
         style="fill:#100f0d;fill-opacity:1;fill-rule:nonzero;stroke:none"
         id="path506" /><path
         d="m 4674.56,823.141 h -32.88 L 4535.87,2086.86 Z"
         style="fill:#100f0d;fill-opacity:1;fill-rule:nonzero;stroke:none"
         id="path508" /><path
         d="m 4576.68,860.16 79.93,78.559 -93.26,-55.719 13.33,-22.84 v 0"
         style="fill:#100f0d;fill-opacity:1;fill-rule:nonzero;stroke:none"
         id="path510" /><path
         d="m 4889.76,2234.52 -175.89,-204.97 -45.63,45.78 248.71,454.08 -80.65,252.97"
         style="fill:#6bc3ef;fill-opacity:1;fill-rule:nonzero;stroke:none"
         id="path512" /><path
         d="m 4713.87,2029.55 175.89,163.59 v 41.38 z"
         style="fill:#100f0d;fill-opacity:1;fill-rule:nonzero;stroke:none"
         id="path514" /><path
         d="m 4714.97,3124.94 v 0 c -13.65,9.08 -17.4,27.68 -8.33,41.34 l 5.08,7.64 c 9.08,13.66 27.68,17.41 41.34,8.33 v 0 c 13.66,-9.07 17.41,-27.68 8.33,-41.34 l -5.08,-7.64 c -9.07,-13.65 -27.68,-17.4 -41.34,-8.33"
         style="fill:#f03c7a;fill-opacity:1;fill-rule:nonzero;stroke:none"
         id="path516" /><path
         d="m 4707.08,3053.83 -59.93,21.24 v -21.24 z"
         style="fill:#100f0d;fill-opacity:1;fill-rule:nonzero;stroke:none"
         id="path518" /><path
         d="m 4841.36,1581.1 h -151.92 v 242.89 h 151.92 V 1581.1"
         style="fill:#f6f2ec;fill-opacity:1;fill-rule:nonzero;stroke:none"
         id="path520" /><path
         d="m 4590.56,1562.35 -54.69,-137.29 74.11,-131.83 z"
         style="fill:#100f0d;fill-opacity:1;fill-rule:nonzero;stroke:none"
         id="path522" /><path
         d="m 4668.24,2075.33 64.14,-62.88 -18.51,-11.65 -72.8,74.53 h 27.17"
         style="fill:#100f0d;fill-opacity:1;fill-rule:nonzero;stroke:none"
         id="path524" /><path
         d="m 4470.1,2904.24 -53.11,-195.59 68.65,202.06 z"
         style="fill:#100f0d;fill-opacity:1;fill-rule:nonzero;stroke:none"
         id="path526" /><path
         d="m 2540.31,1606.97 216.66,34.33 h -222.01 z"
         style="fill:#100f0d;fill-opacity:1;fill-rule:nonzero;stroke:none"
         id="path528" /><path
         d="m 2791.84,1641.3 h 222.01 l -222.01,-34.33 z"
         style="fill:#100f0d;fill-opacity:1;fill-rule:nonzero;stroke:none"
         id="path530" /><g
         id="g532"><g
           id="g534"
           clip-path="url(#clipPath538)"><path
             d="m 5037.07,2813.49 c -36.85,0 -55.72,20.77 -70.89,37.45 -14.35,15.8 -23.39,24.73 -42.14,24.73 -18.73,0 -27.75,-8.93 -42.1,-24.73 -15.14,-16.68 -34.01,-37.45 -70.85,-37.45 -36.84,0 -55.72,20.77 -70.87,37.45 -14.35,15.8 -23.38,24.73 -42.12,24.73 -18.72,0 -27.75,-8.93 -42.09,-24.72 -15.16,-16.69 -34.02,-37.46 -70.86,-37.46 -36.84,0 -55.71,20.77 -70.87,37.45 -14.35,15.8 -23.37,24.73 -42.11,24.73 -18.73,0 -27.76,-8.93 -42.1,-24.73 -15.16,-16.68 -34.02,-37.45 -70.87,-37.45 -36.84,0 -55.7,20.77 -70.86,37.45 -14.35,15.8 -23.37,24.73 -42.1,24.73 v 38.86 c 36.84,0 55.7,-20.76 70.86,-37.45 14.35,-15.79 23.37,-24.73 42.1,-24.73 18.73,0 27.76,8.94 42.11,24.73 15.16,16.69 34.02,37.45 70.86,37.45 36.84,0 55.71,-20.76 70.87,-37.45 14.34,-15.79 23.38,-24.73 42.11,-24.73 18.73,0 27.75,8.94 42.1,24.73 15.15,16.69 34.01,37.45 70.85,37.45 36.84,0 55.71,-20.76 70.88,-37.45 14.34,-15.79 23.37,-24.73 42.11,-24.73 18.73,0 27.76,8.94 42.09,24.73 15.16,16.69 34.03,37.45 70.86,37.45 36.86,0 55.73,-20.76 70.89,-37.45 14.36,-15.79 23.39,-24.73 42.14,-24.73 18.75,0 27.78,8.95 42.14,24.73 15.17,16.69 34.04,37.45 70.9,37.45 v -38.86 c -18.75,0 -27.79,-8.93 -42.14,-24.73 -15.17,-16.68 -34.04,-37.45 -70.9,-37.45"
             style="fill:#f6f2ec;fill-opacity:1;fill-rule:nonzero;stroke:none"
             id="path540" /><path
             d="m 5037.07,2683.66 c -36.85,0 -55.72,20.76 -70.89,37.44 -14.35,15.79 -23.39,24.73 -42.14,24.73 -18.73,0 -27.75,-8.94 -42.1,-24.72 -15.14,-16.69 -34.01,-37.45 -70.85,-37.45 -36.84,0 -55.72,20.76 -70.87,37.45 -14.35,15.78 -23.38,24.72 -42.12,24.72 -18.72,0 -27.75,-8.94 -42.09,-24.72 -15.16,-16.69 -34.02,-37.45 -70.86,-37.45 -36.84,0 -55.71,20.76 -70.87,37.45 -14.35,15.78 -23.37,24.72 -42.11,24.72 -18.73,0 -27.76,-8.94 -42.1,-24.72 -15.16,-16.69 -34.02,-37.45 -70.87,-37.45 -36.84,0 -55.7,20.76 -70.86,37.45 -14.35,15.78 -23.37,24.72 -42.1,24.72 v 38.85 c 36.84,0 55.7,-20.76 70.86,-37.45 14.35,-15.79 23.37,-24.71 42.1,-24.71 18.73,0 27.76,8.92 42.11,24.71 15.16,16.69 34.02,37.45 70.86,37.45 36.84,0 55.71,-20.76 70.87,-37.45 14.34,-15.79 23.38,-24.71 42.11,-24.71 18.73,0 27.75,8.92 42.1,24.71 15.15,16.69 34.01,37.45 70.85,37.45 36.84,0 55.71,-20.76 70.88,-37.45 14.34,-15.79 23.37,-24.71 42.11,-24.71 18.73,0 27.76,8.92 42.09,24.71 15.16,16.69 34.03,37.45 70.86,37.45 36.86,0 55.73,-20.76 70.89,-37.44 14.36,-15.8 23.39,-24.72 42.14,-24.72 18.75,0 27.78,8.93 42.14,24.72 15.17,16.68 34.04,37.44 70.9,37.44 v -38.85 c -18.75,0 -27.79,-8.94 -42.14,-24.73 -15.17,-16.68 -34.04,-37.44 -70.9,-37.44"
             style="fill:#f9b01a;fill-opacity:1;fill-rule:nonzero;stroke:none"
             id="path542" /><path
             d="m 5037.07,2553.82 c -36.85,0 -55.72,20.76 -70.89,37.45 -14.35,15.79 -23.39,24.71 -42.14,24.71 -18.73,0 -27.75,-8.92 -42.1,-24.71 -15.14,-16.69 -34.01,-37.45 -70.85,-37.45 -36.84,0 -55.72,20.76 -70.87,37.45 -14.35,15.79 -23.38,24.71 -42.12,24.71 -18.72,0 -27.75,-8.92 -42.09,-24.71 -15.16,-16.69 -34.02,-37.45 -70.86,-37.45 -36.84,0 -55.71,20.76 -70.87,37.45 -14.35,15.79 -23.37,24.71 -42.11,24.71 -18.73,0 -27.76,-8.92 -42.1,-24.71 -15.16,-16.69 -34.02,-37.45 -70.87,-37.45 -36.84,0 -55.7,20.76 -70.86,37.45 -14.35,15.79 -23.37,24.71 -42.1,24.71 v 38.86 c 36.84,0 55.7,-20.76 70.86,-37.44 14.35,-15.79 23.37,-24.73 42.1,-24.73 18.73,0 27.76,8.94 42.11,24.73 15.16,16.68 34.02,37.44 70.86,37.44 36.84,0 55.71,-20.76 70.87,-37.44 14.34,-15.79 23.38,-24.73 42.11,-24.73 18.73,0 27.75,8.94 42.1,24.73 15.15,16.68 34.01,37.44 70.85,37.44 36.84,0 55.71,-20.76 70.88,-37.44 14.34,-15.79 23.37,-24.73 42.11,-24.73 18.73,0 27.76,8.94 42.09,24.73 15.16,16.68 34.03,37.44 70.86,37.44 36.86,0 55.73,-20.76 70.89,-37.44 14.36,-15.79 23.39,-24.73 42.14,-24.73 18.75,0 27.78,8.94 42.14,24.73 15.17,16.69 34.04,37.44 70.9,37.44 v -38.86 c -18.75,0 -27.79,-8.92 -42.14,-24.71 -15.17,-16.69 -34.04,-37.45 -70.9,-37.45"
             style="fill:#f6f2ec;fill-opacity:1;fill-rule:nonzero;stroke:none"
             id="path544" /></g></g><path
         d="m 4668.24,2075.33 248.71,454.08 -80.65,252.97 53.46,-258.96 -221.52,-448.09"
         style="fill:#433397;fill-opacity:1;fill-rule:nonzero;stroke:none"
         id="path546" /><path
         d="m 1961.19,1333.02 h 83.46 l -83.46,-25.47 z"
         style="fill:#100f0d;fill-opacity:1;fill-rule:nonzero;stroke:none"
         id="path548" /><path
         d="m 2743.3,3224.49 c -17.67,0 -32.05,-14.38 -32.05,-32.05 0,-17.67 14.38,-32.05 32.05,-32.05 17.68,0 32.05,14.38 32.05,32.05 0,17.67 -14.37,32.05 -32.05,32.05 z m 0,-71.87 c -21.96,0 -39.82,17.87 -39.82,39.82 0,21.96 17.86,39.82 39.82,39.82 21.95,0 39.82,-17.86 39.82,-39.82 0,-21.95 -17.87,-39.82 -39.82,-39.82"
         style="fill:#100f0d;fill-opacity:1;fill-rule:nonzero;stroke:none"
         id="path550" /><path
         d="m 2844.48,3224.49 c -17.67,0 -32.05,-14.38 -32.05,-32.05 0,-17.67 14.38,-32.05 32.05,-32.05 17.68,0 32.05,14.38 32.05,32.05 0,17.67 -14.37,32.05 -32.05,32.05 z m 0,-71.87 c -21.95,0 -39.82,17.87 -39.82,39.82 0,21.96 17.87,39.82 39.82,39.82 21.96,0 39.82,-17.86 39.82,-39.82 0,-21.95 -17.86,-39.82 -39.82,-39.82"
         style="fill:#100f0d;fill-opacity:1;fill-rule:nonzero;stroke:none"
         id="path552" /></g></g></svg>
